<svg width="156" height="46" viewBox="0 0 156 46" fill="none" xmlns="http://www.w3.org/2000/svg">
<path d="M45.8446 30.928H52.6766V33H43.2966V13.484H45.8446V30.928ZM62.0746 33.252C60.6372 33.252 59.3306 32.9253 58.1546 32.272C56.9972 31.6187 56.0826 30.6947 55.4106 29.5C54.7572 28.2867 54.4306 26.8867 54.4306 25.3C54.4306 23.732 54.7666 22.3507 55.4386 21.156C56.1292 19.9427 57.0626 19.0187 58.2386 18.384C59.4146 17.7307 60.7306 17.404 62.1866 17.404C63.6426 17.404 64.9586 17.7307 66.1346 18.384C67.3106 19.0187 68.2346 19.9333 68.9066 21.128C69.5972 22.3227 69.9426 23.7133 69.9426 25.3C69.9426 26.8867 69.5879 28.2867 68.8786 29.5C68.1879 30.6947 67.2452 31.6187 66.0506 32.272C64.8559 32.9253 63.5306 33.252 62.0746 33.252ZM62.0746 31.012C62.9892 31.012 63.8479 30.7973 64.6506 30.368C65.4532 29.9387 66.0972 29.2947 66.5826 28.436C67.0866 27.5773 67.3386 26.532 67.3386 25.3C67.3386 24.068 67.0959 23.0227 66.6106 22.164C66.1252 21.3053 65.4906 20.6707 64.7066 20.26C63.9226 19.8307 63.0732 19.616 62.1586 19.616C61.2252 19.616 60.3666 19.8307 59.5826 20.26C58.8172 20.6707 58.2012 21.3053 57.7346 22.164C57.2679 23.0227 57.0346 24.068 57.0346 25.3C57.0346 26.5507 57.2586 27.6053 57.7066 28.464C58.1732 29.3227 58.7892 29.9667 59.5546 30.396C60.3199 30.8067 61.1599 31.012 62.0746 31.012ZM79.6207 17.404C80.9461 17.404 82.1034 17.6933 83.0927 18.272C84.1007 18.8507 84.8474 19.5787 85.3327 20.456V17.656H87.9087V33.336C87.9087 34.736 87.6101 35.9773 87.0127 37.06C86.4154 38.1613 85.5567 39.02 84.4367 39.636C83.3354 40.252 82.0474 40.56 80.5727 40.56C78.5567 40.56 76.8767 40.084 75.5327 39.132C74.1887 38.18 73.3954 36.8827 73.1527 35.24H75.6727C75.9527 36.1733 76.5314 36.92 77.4087 37.48C78.2861 38.0587 79.3407 38.348 80.5727 38.348C81.9727 38.348 83.1114 37.9093 83.9887 37.032C84.8847 36.1547 85.3327 34.9227 85.3327 33.336V30.116C84.8287 31.012 84.0821 31.7587 83.0927 32.356C82.1034 32.9533 80.9461 33.252 79.6207 33.252C78.2581 33.252 77.0167 32.916 75.8967 32.244C74.7954 31.572 73.9274 30.6293 73.2927 29.416C72.6581 28.2027 72.3407 26.8213 72.3407 25.272C72.3407 23.704 72.6581 22.332 73.2927 21.156C73.9274 19.9613 74.7954 19.0373 75.8967 18.384C77.0167 17.7307 78.2581 17.404 79.6207 17.404ZM85.3327 25.3C85.3327 24.1427 85.0994 23.1347 84.6327 22.276C84.1661 21.4173 83.5314 20.764 82.7287 20.316C81.9447 19.8493 81.0767 19.616 80.1247 19.616C79.1727 19.616 78.3047 19.84 77.5207 20.288C76.7367 20.736 76.1114 21.3893 75.6447 22.248C75.1781 23.1067 74.9447 24.1147 74.9447 25.272C74.9447 26.448 75.1781 27.4747 75.6447 28.352C76.1114 29.2107 76.7367 29.8733 77.5207 30.34C78.3047 30.788 79.1727 31.012 80.1247 31.012C81.0767 31.012 81.9447 30.788 82.7287 30.34C83.5314 29.8733 84.1661 29.2107 84.6327 28.352C85.0994 27.4747 85.3327 26.4573 85.3327 25.3ZM93.5306 15.164C93.0453 15.164 92.6346 14.996 92.2986 14.66C91.9626 14.324 91.7946 13.9133 91.7946 13.428C91.7946 12.9427 91.9626 12.532 92.2986 12.196C92.6346 11.86 93.0453 11.692 93.5306 11.692C93.9973 11.692 94.3893 11.86 94.7066 12.196C95.0426 12.532 95.2106 12.9427 95.2106 13.428C95.2106 13.9133 95.0426 14.324 94.7066 14.66C94.3893 14.996 93.9973 15.164 93.5306 15.164ZM94.7626 17.656V33H92.2146V17.656H94.7626ZM106.581 17.376C108.448 17.376 109.96 17.9453 111.117 19.084C112.275 20.204 112.853 21.828 112.853 23.956V33H110.333V24.32C110.333 22.7893 109.951 21.6227 109.185 20.82C108.42 19.9987 107.375 19.588 106.049 19.588C104.705 19.588 103.632 20.008 102.829 20.848C102.045 21.688 101.653 22.9107 101.653 24.516V33H99.1052V17.656H101.653V19.84C102.157 19.056 102.839 18.4493 103.697 18.02C104.575 17.5907 105.536 17.376 106.581 17.376Z" fill="#72686F"/>
<rect x="1.5" y="1.5" width="153" height="43" rx="21.5" stroke="url(#paint0_linear_7003_4762)" stroke-width="3"/>
<defs>
<linearGradient id="paint0_linear_7003_4762" x1="6.5" y1="21.5" x2="156" y2="23" gradientUnits="userSpaceOnUse">
<stop stop-color="#AA62F7"/>
<stop offset="1" stop-color="#FD75D3"/>
</linearGradient>
</defs>
</svg>
