<svg width="202" height="71" viewBox="0 0 202 71" fill="none" xmlns="http://www.w3.org/2000/svg">
<path d="M53.4417 1.00974C53.8853 1.23919 54.2874 1.57665 54.6244 2.00222C54.9613 2.42778 55.2263 2.93285 55.4037 3.48765C55.7484 4.60246 55.885 5.79991 55.8033 6.98983C55.6953 9.2933 54.7521 11.6683 53.7045 13.5737C52.0809 11.9993 51.5985 9.10096 51.4257 7.59812C51.1557 5.2365 51.8181 0.763742 53.4417 1.00974Z" fill="#78C592"/>
<path d="M55.6661 17.2237C55.5325 16.5773 55.5387 15.8985 55.6841 15.256C55.8295 14.6135 56.109 14.0302 56.4941 13.565C56.8862 13.1118 57.3468 12.7599 57.8493 12.5295C58.3517 12.2992 58.8859 12.195 59.4209 12.2231C59.6681 12.2023 59.9161 12.2487 60.1474 12.3591C60.3787 12.4696 60.5878 12.6415 60.7601 12.8627C60.8913 13.1007 60.9692 13.3778 60.9856 13.6655C61.0021 13.9532 60.9565 14.2412 60.8537 14.4998C60.6393 15.0135 60.3203 15.4484 59.9285 15.7611C58.6325 16.8972 57.2105 17.7023 55.6661 17.2416" fill="#78C592"/>
<path d="M53.9844 24.3667C53.9834 24.2075 53.9955 24.0487 54.0204 23.8926C54.0528 23.5616 54.096 23.1277 54.15 22.6133C54.2614 21.1873 54.5581 19.7931 55.0284 18.485C55.5175 17.176 56.2794 16.0533 57.2352 15.2333C57.5259 14.9937 57.8375 14.7956 58.164 14.6429C58.2792 14.5892 58.3764 14.5624 58.4376 14.54C58.4686 14.5245 58.5014 14.5155 58.5348 14.5132C58.0978 14.7345 57.6794 15.0087 57.2856 15.3317C56.3653 16.1653 55.6296 17.2747 55.1472 18.5566C54.6854 19.8517 54.3809 21.2249 54.2436 22.6312C54.1752 23.168 54.1176 23.6018 54.0708 23.9015C54.0525 24.0593 54.0236 24.2149 53.9844 24.3667Z" fill="#263238"/>
<path d="M53.1888 4.4707C53.2011 4.53696 53.2095 4.60421 53.214 4.67197C53.2284 4.82404 53.2464 5.02085 53.268 5.26238C53.3148 5.77227 53.3688 6.51028 53.4336 7.42272C53.5632 9.25208 53.7108 11.7837 53.826 14.5791C53.9412 17.3746 53.9916 19.9107 54.0132 21.7355C54.0132 22.6525 54.0132 23.3949 54.0132 23.9048C54.0132 24.1508 54.0132 24.3521 54.0132 24.4997C54.0178 24.5682 54.0178 24.637 54.0132 24.7054C54.002 24.6377 53.9959 24.5688 53.9952 24.4997V23.9093C53.9952 23.3726 53.9664 22.639 53.9448 21.7355C53.898 19.9017 53.8296 17.3701 53.7144 14.5791C53.5992 11.7881 53.4696 9.25655 53.3544 7.42272C53.304 6.52817 53.2608 5.79016 53.232 5.2579C53.232 5.01637 53.2104 4.81063 53.2032 4.66751C53.1898 4.60333 53.1849 4.53684 53.1888 4.4707Z" fill="#263238"/>
<path d="M53.0518 18.7981C52.8039 17.4256 52.2965 16.1462 51.5716 15.0659C50.8467 13.9855 49.925 13.1352 48.883 12.5854C48.3502 12.3126 47.6662 12.1381 47.2594 12.6614C46.8526 13.1847 46.9894 14.0033 47.227 14.6742C47.7428 16.0233 48.5684 17.1525 49.5998 17.9198C50.6312 18.6871 51.8222 19.058 53.023 18.9859" fill="#78C592"/>
<path d="M49.2188 14.7363C49.3344 14.772 49.4467 14.823 49.5535 14.8884C49.6615 14.9465 49.7911 15.0136 49.9351 15.112C50.0791 15.2104 50.2519 15.3044 50.4247 15.4475C50.6194 15.5921 50.808 15.7488 50.9899 15.9171C51.1998 16.1084 51.4017 16.3129 51.5947 16.5299C52.0362 17.0327 52.4311 17.5953 52.7719 18.2072C53.101 18.8261 53.3728 19.4893 53.5819 20.1842C53.6698 20.489 53.7443 20.7996 53.8051 21.1145C53.8612 21.3869 53.9045 21.6632 53.9347 21.9419C53.9633 22.1701 53.9813 22.4001 53.9887 22.6308C53.999 22.805 53.999 22.9799 53.9887 23.1541C53.9987 23.3029 53.9987 23.4525 53.9887 23.6013C53.9563 23.6013 53.9887 22.9617 53.8483 21.9598C53.8087 21.7094 53.7727 21.4321 53.7043 21.1458C53.6392 20.8426 53.5611 20.544 53.4703 20.2512C53.2597 19.5716 52.9905 18.9223 52.6675 18.3145C52.334 17.7156 51.9503 17.1623 51.5227 16.6641C51.3355 16.4477 51.1397 16.2432 50.9359 16.0513C50.7606 15.8783 50.578 15.717 50.3887 15.5683C49.6903 15.0002 49.2188 14.7676 49.2188 14.7363Z" fill="#263238"/>
<path d="M6.23598 45.9207C6.7232 46.0304 7.19765 46.255 7.63138 46.5814C8.0651 46.9078 8.44933 47.3293 8.7614 47.8212C9.37711 48.8124 9.81245 49.9362 10.0347 51.1081C10.5134 53.3638 10.2022 55.9003 9.67115 58.0088C7.70185 56.8968 6.50137 54.215 5.95371 52.8048C5.0946 50.5885 4.603 46.0938 6.23598 45.9207Z" fill="#78C592"/>
<path d="M12.4928 61.0422C12.1999 60.4507 12.034 59.7924 12.012 59.1341C11.99 58.4757 12.1126 57.8406 12.3675 57.2931C12.6321 56.7554 12.9886 56.2983 13.4163 55.9483C13.844 55.5982 14.3345 55.3622 14.8592 55.2539C15.0931 55.1711 15.3447 55.1533 15.5964 55.2016C15.8482 55.2499 16.094 55.3632 16.3167 55.5336C16.5039 55.7306 16.6493 55.979 16.7381 56.2531C16.8269 56.5273 16.8557 56.8174 16.8217 57.0936C16.7444 57.6449 16.5459 58.1464 16.246 58.5481C15.2798 59.9753 14.108 61.1142 12.4973 61.0595" fill="#78C592"/>
<path d="M12.6744 68.3791C12.6331 68.2254 12.6046 68.0687 12.5892 67.9113C12.5368 67.5829 12.4687 67.1523 12.3907 66.641C12.1375 65.2332 12.0715 63.8093 12.1953 62.4248C12.337 61.0346 12.7898 59.7556 13.5069 58.7203C13.7275 58.4148 13.9788 58.1444 14.256 57.914C14.3538 57.8329 14.4411 57.7823 14.4946 57.7452C14.5207 57.7223 14.5502 57.7053 14.5819 57.6946C14.2152 58.0193 13.8798 58.3905 13.5806 58.8027C12.9013 59.8422 12.4705 61.1017 12.3284 62.4639C12.2095 63.8338 12.2625 65.2394 12.4858 66.6346C12.5555 67.1712 12.6097 67.6055 12.6403 67.9072C12.6625 68.0645 12.6739 68.2223 12.6744 68.3791Z" fill="#263238"/>
<path d="M6.86846 49.3322C6.89711 49.3932 6.92229 49.4561 6.9438 49.5205C6.99623 49.664 7.06347 49.8498 7.14552 50.078C7.31989 50.5594 7.55898 51.2597 7.85268 52.126C8.44121 53.863 9.22494 56.2747 10.0441 58.95C10.8633 61.6252 11.5542 64.0658 12.0371 65.8258C12.2692 66.7128 12.4572 67.4311 12.5863 67.9244C12.6486 68.1624 12.6996 68.3571 12.7369 68.4999C12.7587 68.565 12.7761 68.6315 12.789 68.6989C12.761 68.6363 12.7377 68.5712 12.7195 68.5045L12.57 67.9333C12.4341 67.414 12.2206 66.7117 11.9709 65.8431C11.4614 64.0809 10.7542 61.6491 9.93618 58.9782C9.11811 56.3073 8.35179 53.891 7.77606 52.1461C7.50082 51.2935 7.27218 50.5904 7.10956 50.0828C7.04841 49.8491 6.97542 49.6556 6.93222 49.5189C6.90295 49.4603 6.88141 49.3972 6.86846 49.3322Z" fill="#263238"/>
<path d="M10.361 63.2283C9.77371 61.9633 8.95894 60.8541 7.98409 59.9924C7.00924 59.1308 5.90236 58.5416 4.75508 58.2735C4.17056 58.1444 3.46469 58.1488 3.20364 58.7581C2.94259 59.3673 3.28216 60.1246 3.68188 60.7135C4.52246 61.888 5.60706 62.7715 6.7991 63.2526C7.99114 63.7337 9.2373 63.791 10.3806 63.4173" fill="#78C592"/>
<path d="M5.625 60.2686C5.74592 60.2738 5.86741 60.2947 5.98739 60.3309C6.10659 60.3598 6.24896 60.3919 6.41318 60.4506C6.5774 60.5094 6.76835 60.5565 6.97175 60.6512C7.19668 60.7418 7.41886 60.8457 7.63744 60.9625C7.88893 61.0944 8.13599 61.2411 8.37767 61.4021C8.93209 61.7768 9.45652 62.2211 9.94117 62.7267C10.4163 63.2422 10.847 63.815 11.2253 64.4342C11.3875 64.7069 11.5382 64.9885 11.6768 65.2777C11.8 65.5271 11.9118 65.7834 12.0116 66.0454C12.0971 66.2589 12.1727 66.4768 12.2383 66.6981C12.2923 66.864 12.3366 67.0332 12.3708 67.2044C12.4181 67.3458 12.456 67.4906 12.484 67.6371C12.4527 67.6453 12.3221 67.0183 11.9326 66.0846C11.8309 65.8523 11.7258 65.5932 11.5872 65.3335C11.4474 65.0568 11.2963 64.7876 11.1343 64.5274C10.7585 63.9232 10.3337 63.3632 9.86734 62.857C9.39307 62.362 8.88175 61.924 8.34199 61.5502C8.10611 61.3883 7.86486 61.24 7.61917 61.1059C7.40575 60.9829 7.18822 60.8732 6.9675 60.7772C6.14805 60.4045 5.63293 60.2988 5.625 60.2686Z" fill="#263238"/>
<path d="M33.6667 21L11 35.1161V70L22.3333 61.9367V40.7625L39 30.8813V23.8232L33.6667 21Z" fill="url(#paint0_linear_7003_4739)"/>
<path d="M10 27.3929V14.0476L32 0L54 14.75V41.4405L26.6667 59V44.9524L42.6667 35.119V21.0714L32.6667 14.0476L10 27.3929Z" fill="url(#paint1_linear_7003_4739)"/>
<path d="M70.0977 23.4531V27.8828C70.0977 28.2747 70.084 28.6576 70.0566 29.0312C70.0384 29.4049 69.9609 29.7376 69.8242 30.0293C69.6966 30.321 69.4915 30.5579 69.209 30.7402C68.9264 30.9134 68.5208 31 67.9922 31C67.4818 31 67.0853 30.9134 66.8027 30.7402C66.5293 30.5579 66.3288 30.321 66.2012 30.0293C66.0736 29.7376 65.9961 29.4049 65.9688 29.0312C65.9505 28.6576 65.9414 28.2747 65.9414 27.8828V14.9766C65.9414 14.5846 65.9505 14.2018 65.9688 13.8281C65.9961 13.4544 66.0736 13.1217 66.2012 12.8301C66.3288 12.5384 66.5293 12.306 66.8027 12.1328C67.0853 11.9505 67.4818 11.8594 67.9922 11.8594H72.5039C73.6341 11.9141 74.6458 12.151 75.5391 12.5703C75.9219 12.7526 76.291 12.9805 76.6465 13.2539C77.0111 13.5273 77.3346 13.8646 77.6172 14.2656C77.9089 14.6576 78.1413 15.127 78.3145 15.6738C78.4876 16.2116 78.5742 16.8359 78.5742 17.5469C78.5742 18.5221 78.4193 19.3789 78.1094 20.1172C77.8086 20.8464 77.3665 21.4616 76.7832 21.9629C76.209 22.4551 75.5026 22.8288 74.6641 23.084C73.8346 23.3301 72.8958 23.4531 71.8477 23.4531H70.0977ZM71.957 20.1992C72.4128 20.1719 72.8229 20.0625 73.1875 19.8711C73.3424 19.7891 73.4928 19.6842 73.6387 19.5566C73.7845 19.429 73.9167 19.2741 74.0352 19.0918C74.1536 18.9004 74.2448 18.6771 74.3086 18.4219C74.3815 18.1667 74.418 17.875 74.418 17.5469C74.418 17.237 74.3815 16.9681 74.3086 16.7402C74.2448 16.5033 74.1582 16.3027 74.0488 16.1387C73.9395 15.9655 73.8164 15.8197 73.6797 15.7012C73.543 15.5827 73.4017 15.4824 73.2559 15.4004C72.9095 15.2272 72.5221 15.1224 72.0938 15.0859H70.0977V20.1992H71.957ZM81.2266 15.0039C81.2266 14.612 81.2448 14.2292 81.2812 13.8555C81.3177 13.4818 81.4043 13.1491 81.541 12.8574C81.6868 12.5566 81.8965 12.3151 82.1699 12.1328C82.4434 11.9505 82.8216 11.8594 83.3047 11.8594C83.8242 11.8594 84.2298 11.9505 84.5215 12.1328C84.8132 12.3151 85.0273 12.5566 85.1641 12.8574C85.3008 13.1491 85.3828 13.4818 85.4102 13.8555C85.4466 14.2292 85.4648 14.612 85.4648 15.0039V26.9805H88.1445C88.5182 26.9805 88.8874 26.9987 89.252 27.0352C89.6165 27.0716 89.9401 27.1582 90.2227 27.2949C90.5143 27.4316 90.7467 27.6322 90.9199 27.8965C91.0931 28.1608 91.1797 28.5208 91.1797 28.9766C91.1797 29.4414 91.0931 29.8105 90.9199 30.084C90.7467 30.3483 90.5143 30.5488 90.2227 30.6855C89.9401 30.8223 89.6165 30.9089 89.252 30.9453C88.8874 30.9818 88.5182 31 88.1445 31H84.2617C83.7786 31 83.3503 30.9818 82.9766 30.9453C82.6029 30.9089 82.2839 30.8223 82.0195 30.6855C81.7643 30.5488 81.5684 30.3483 81.4316 30.084C81.2949 29.8105 81.2266 29.4414 81.2266 28.9766V15.0039ZM97.4141 22.7422H101.762L99.7383 15.4141H99.4375L97.4141 22.7422ZM106 24.082C106.018 24.7018 106.041 25.3353 106.068 25.9824C106.096 26.6296 106.109 27.2539 106.109 27.8555V28.2656C106.109 28.612 106.096 28.9492 106.068 29.2773C106.05 29.5964 105.982 29.888 105.863 30.1523C105.745 30.4076 105.558 30.6126 105.303 30.7676C105.048 30.9225 104.688 31 104.223 31C103.749 31 103.384 30.9225 103.129 30.7676C102.874 30.6126 102.682 30.4076 102.555 30.1523C102.436 29.8971 102.363 29.6055 102.336 29.2773C102.318 28.9492 102.309 28.612 102.309 28.2656V26.3516H96.8398V28.2656C96.8398 28.612 96.8262 28.9492 96.7988 29.2773C96.7806 29.6055 96.7077 29.8971 96.5801 30.1523C96.4616 30.4076 96.2747 30.6126 96.0195 30.7676C95.7643 30.9225 95.3997 31 94.9258 31C94.4518 31 94.0872 30.9225 93.832 30.7676C93.5768 30.6126 93.39 30.4076 93.2715 30.1523C93.153 29.888 93.0846 29.5964 93.0664 29.2773C93.0482 28.9492 93.0391 28.612 93.0391 28.2656V27.8555C93.0391 27.5729 93.0391 27.2721 93.0391 26.9531C93.0482 26.6341 93.0573 26.3105 93.0664 25.9824C93.0755 25.6543 93.0846 25.3307 93.0938 25.0117C93.1029 24.6836 93.112 24.3737 93.1211 24.082C93.5768 22.4961 94.0553 20.8919 94.5566 19.2695C95.0579 17.638 95.5365 16.0247 95.9922 14.4297C96.0833 14.0924 96.1927 13.7689 96.3203 13.459C96.4479 13.14 96.6165 12.8665 96.8262 12.6387C97.0358 12.4017 97.3047 12.2148 97.6328 12.0781C97.9609 11.9323 98.3802 11.8594 98.8906 11.8594H100.258C100.759 11.8594 101.174 11.9323 101.502 12.0781C101.839 12.2148 102.113 12.4017 102.322 12.6387C102.532 12.8665 102.696 13.14 102.814 13.459C102.942 13.7689 103.056 14.0924 103.156 14.4297L106 24.082ZM116.062 27.9102C116.062 28.293 116.044 28.6712 116.008 29.0449C115.971 29.4095 115.885 29.7376 115.748 30.0293C115.611 30.321 115.406 30.5579 115.133 30.7402C114.859 30.9134 114.486 31 114.012 31C113.529 31 113.15 30.9134 112.877 30.7402C112.604 30.5579 112.394 30.321 112.248 30.0293C112.111 29.7376 112.025 29.4095 111.988 29.0449C111.952 28.6712 111.934 28.293 111.934 27.9102V23.1523L107.859 15.8789C107.641 15.4961 107.431 15.1224 107.23 14.7578C107.03 14.3841 106.93 14.0104 106.93 13.6367C106.93 13.3906 106.998 13.1445 107.135 12.8984C107.281 12.6432 107.54 12.4062 107.914 12.1875C108.324 11.9688 108.707 11.8594 109.062 11.8594C109.336 11.8594 109.582 11.9232 109.801 12.0508C110.029 12.1693 110.234 12.3288 110.416 12.5293C110.598 12.7298 110.762 12.9577 110.908 13.2129C111.054 13.459 111.186 13.7096 111.305 13.9648L113.793 19.1875H114.23L116.719 13.9648C116.837 13.7096 116.969 13.459 117.115 13.2129C117.261 12.9577 117.425 12.7298 117.607 12.5293C117.79 12.3288 117.99 12.1693 118.209 12.0508C118.437 11.9232 118.688 11.8594 118.961 11.8594C119.152 11.8594 119.339 11.8867 119.521 11.9414C119.704 11.9961 119.9 12.0781 120.109 12.1875C120.465 12.4062 120.715 12.6432 120.861 12.8984C121.016 13.1445 121.094 13.3906 121.094 13.6367C121.094 13.8008 121.021 14.0697 120.875 14.4434C120.729 14.8079 120.492 15.2865 120.164 15.8789L116.062 23.1523V27.9102ZM130.117 11.8594C130.482 11.8594 130.851 11.873 131.225 11.9004C131.598 11.9277 131.936 12.0052 132.236 12.1328C132.537 12.2604 132.783 12.4564 132.975 12.7207C133.166 12.9759 133.262 13.3359 133.262 13.8008C133.262 14.2656 133.166 14.6302 132.975 14.8945C132.783 15.1497 132.537 15.3411 132.236 15.4688C131.936 15.5964 131.598 15.6738 131.225 15.7012C130.851 15.7285 130.482 15.7422 130.117 15.7422H126.863V19.4609H128.586C128.951 19.4609 129.315 19.4746 129.68 19.502C130.053 19.5202 130.382 19.5931 130.664 19.7207C130.956 19.8392 131.193 20.026 131.375 20.2812C131.557 20.5273 131.648 20.8737 131.648 21.3203C131.648 21.776 131.557 22.127 131.375 22.373C131.193 22.6191 130.956 22.806 130.664 22.9336C130.382 23.0521 130.053 23.125 129.68 23.1523C129.315 23.1706 128.951 23.1797 128.586 23.1797H126.863V27.1172H130.117C130.482 27.1172 130.851 27.1309 131.225 27.1582C131.598 27.1855 131.936 27.263 132.236 27.3906C132.537 27.5091 132.783 27.7005 132.975 27.9648C133.166 28.2201 133.262 28.5755 133.262 29.0312C133.262 29.5052 133.161 29.8743 132.961 30.1387C132.77 30.403 132.523 30.599 132.223 30.7266C131.922 30.8542 131.585 30.9316 131.211 30.959C130.837 30.9863 130.473 31 130.117 31H124.758C124.247 31 123.851 30.9089 123.568 30.7266C123.295 30.5443 123.094 30.3073 122.967 30.0156C122.839 29.7148 122.762 29.3776 122.734 29.0039C122.716 28.6302 122.707 28.2474 122.707 27.8555V15.0039C122.707 14.612 122.716 14.2292 122.734 13.8555C122.762 13.4818 122.839 13.1491 122.967 12.8574C123.094 12.5566 123.295 12.3151 123.568 12.1328C123.851 11.9505 124.247 11.8594 124.758 11.8594H130.117ZM136.215 14.9766C136.215 14.5846 136.224 14.2018 136.242 13.8281C136.27 13.4544 136.347 13.1217 136.475 12.8301C136.602 12.5384 136.803 12.306 137.076 12.1328C137.359 11.9505 137.755 11.8594 138.266 11.8594H142.777C143.898 11.9141 144.901 12.151 145.785 12.5703C146.159 12.7526 146.523 12.9805 146.879 13.2539C147.243 13.5182 147.567 13.8509 147.85 14.252C148.132 14.6439 148.36 15.1087 148.533 15.6465C148.706 16.1842 148.793 16.8086 148.793 17.5195C148.793 17.6654 148.779 17.8613 148.752 18.1074C148.725 18.3444 148.665 18.6087 148.574 18.9004C148.483 19.1829 148.36 19.4792 148.205 19.7891C148.05 20.099 147.845 20.3952 147.59 20.6777C147.335 20.9603 147.02 21.2201 146.646 21.457C146.282 21.694 145.849 21.8854 145.348 22.0312C145.667 22.1589 145.99 22.3275 146.318 22.5371C146.646 22.7376 146.943 22.9974 147.207 23.3164C147.471 23.6354 147.686 24.0182 147.85 24.4648C148.023 24.9115 148.109 25.431 148.109 26.0234V27.9648C148.109 28.0742 148.137 28.1654 148.191 28.2383C148.246 28.3112 148.301 28.375 148.355 28.4297C148.574 28.6484 148.702 28.8398 148.738 29.0039C148.775 29.1589 148.793 29.2865 148.793 29.3867C148.793 29.7057 148.729 29.9746 148.602 30.1934C148.474 30.4121 148.305 30.5898 148.096 30.7266C147.895 30.8633 147.663 30.959 147.398 31.0137C147.143 31.0775 146.879 31.1094 146.605 31.1094C146.305 31.1094 145.999 31.0638 145.689 30.9727C145.38 30.8724 145.097 30.7311 144.842 30.5488C144.587 30.3665 144.377 30.1387 144.213 29.8652C144.058 29.5918 143.98 29.2773 143.98 28.9219V26.0234C143.98 25.6224 143.953 25.2533 143.898 24.916C143.844 24.5788 143.739 24.2871 143.584 24.041C143.429 23.7949 143.215 23.6035 142.941 23.4668C142.668 23.3301 142.312 23.2617 141.875 23.2617H140.344V27.8281C140.344 28.2292 140.33 28.6211 140.303 29.0039C140.285 29.3867 140.212 29.7285 140.084 30.0293C139.956 30.321 139.751 30.5579 139.469 30.7402C139.186 30.9134 138.785 31 138.266 31C137.755 31 137.359 30.9134 137.076 30.7402C136.803 30.5579 136.602 30.321 136.475 30.0293C136.347 29.7285 136.27 29.3867 136.242 29.0039C136.224 28.6211 136.215 28.2292 136.215 27.8281V14.9766ZM142.203 20.1992C142.659 20.181 143.069 20.0716 143.434 19.8711C143.589 19.7891 143.739 19.6842 143.885 19.5566C144.031 19.429 144.163 19.2695 144.281 19.0781C144.4 18.8867 144.491 18.6634 144.555 18.4082C144.628 18.153 144.664 17.8568 144.664 17.5195C144.664 17.2188 144.628 16.9544 144.555 16.7266C144.491 16.4896 144.404 16.2845 144.295 16.1113C144.186 15.9382 144.058 15.7923 143.912 15.6738C143.775 15.5553 143.634 15.4596 143.488 15.3867C143.142 15.2135 142.75 15.1133 142.312 15.0859H140.344V20.1992H142.203ZM65.4219 43.2734C65.4219 42.3984 65.5495 41.6556 65.8047 41.0449C66.0599 40.4251 66.3835 39.9102 66.7754 39.5C67.1764 39.0898 67.6139 38.7708 68.0879 38.543C68.571 38.306 69.0358 38.1283 69.4824 38.0098C69.9382 37.8913 70.3483 37.8184 70.7129 37.791C71.0775 37.7637 71.3464 37.75 71.5195 37.75H71.9844C72.1576 37.75 72.4264 37.7637 72.791 37.791C73.1556 37.8184 73.5612 37.8913 74.0078 38.0098C74.4544 38.1283 74.9147 38.306 75.3887 38.543C75.8717 38.7708 76.3047 39.0898 76.6875 39.5C77.0794 39.9102 77.3984 40.4251 77.6445 41.0449C77.8997 41.6556 78.0273 42.3984 78.0273 43.2734V51.4492C78.0273 52.3516 77.8997 53.1172 77.6445 53.7461C77.3984 54.375 77.0794 54.8991 76.6875 55.3184C76.3047 55.7376 75.8717 56.0703 75.3887 56.3164C74.9147 56.5534 74.4544 56.7311 74.0078 56.8496C73.5612 56.9681 73.1556 57.041 72.791 57.0684C72.4264 57.0957 72.1576 57.1094 71.9844 57.1094H71.5195C71.3464 57.1094 71.0775 57.0957 70.7129 57.0684C70.3483 57.041 69.9382 56.9681 69.4824 56.8496C69.0358 56.7311 68.571 56.5534 68.0879 56.3164C67.6139 56.0703 67.1764 55.7376 66.7754 55.3184C66.3835 54.8991 66.0599 54.375 65.8047 53.7461C65.5495 53.1172 65.4219 52.3516 65.4219 51.4492V43.2734ZM69.9609 51.9688C69.9792 52.306 70.0566 52.6022 70.1934 52.8574C70.3118 53.0853 70.4896 53.2904 70.7266 53.4727C70.9727 53.6549 71.319 53.7461 71.7656 53.7461C72.2031 53.7461 72.5404 53.6549 72.7773 53.4727C73.0143 53.2904 73.1921 53.0853 73.3105 52.8574C73.4382 52.6022 73.5156 52.306 73.543 51.9688V43.0547C73.5156 42.7266 73.4382 42.4303 73.3105 42.166C73.1921 41.9473 73.0143 41.7467 72.7773 41.5645C72.5404 41.373 72.2031 41.2773 71.7656 41.2773C71.319 41.2773 70.9727 41.373 70.7266 41.5645C70.4896 41.7467 70.3118 41.9473 70.1934 42.166C70.0566 42.4303 69.9792 42.7266 69.9609 43.0547V51.9688ZM81.3633 40.9766C81.3633 40.5846 81.3724 40.2018 81.3906 39.8281C81.418 39.4544 81.4954 39.1217 81.623 38.8301C81.7507 38.5384 81.9512 38.306 82.2246 38.1328C82.5072 37.9505 82.9036 37.8594 83.4141 37.8594H87.9258C89.0469 37.9141 90.0495 38.151 90.9336 38.5703C91.3073 38.7526 91.6719 38.9805 92.0273 39.2539C92.3919 39.5182 92.7155 39.8509 92.998 40.252C93.2806 40.6439 93.5085 41.1087 93.6816 41.6465C93.8548 42.1842 93.9414 42.8086 93.9414 43.5195C93.9414 43.6654 93.9277 43.8613 93.9004 44.1074C93.873 44.3444 93.8138 44.6087 93.7227 44.9004C93.6315 45.1829 93.5085 45.4792 93.3535 45.7891C93.1986 46.099 92.9935 46.3952 92.7383 46.6777C92.4831 46.9603 92.1686 47.2201 91.7949 47.457C91.4303 47.694 90.9974 47.8854 90.4961 48.0312C90.8151 48.1589 91.1387 48.3275 91.4668 48.5371C91.7949 48.7376 92.0911 48.9974 92.3555 49.3164C92.6198 49.6354 92.834 50.0182 92.998 50.4648C93.1712 50.9115 93.2578 51.431 93.2578 52.0234V53.9648C93.2578 54.0742 93.2852 54.1654 93.3398 54.2383C93.3945 54.3112 93.4492 54.375 93.5039 54.4297C93.7227 54.6484 93.8503 54.8398 93.8867 55.0039C93.9232 55.1589 93.9414 55.2865 93.9414 55.3867C93.9414 55.7057 93.8776 55.9746 93.75 56.1934C93.6224 56.4121 93.4538 56.5898 93.2441 56.7266C93.0436 56.8633 92.8112 56.959 92.5469 57.0137C92.2917 57.0775 92.0273 57.1094 91.7539 57.1094C91.4531 57.1094 91.1478 57.0638 90.8379 56.9727C90.528 56.8724 90.2454 56.7311 89.9902 56.5488C89.735 56.3665 89.5254 56.1387 89.3613 55.8652C89.2064 55.5918 89.1289 55.2773 89.1289 54.9219V52.0234C89.1289 51.6224 89.1016 51.2533 89.0469 50.916C88.9922 50.5788 88.8874 50.2871 88.7324 50.041C88.5775 49.7949 88.3633 49.6035 88.0898 49.4668C87.8164 49.3301 87.4609 49.2617 87.0234 49.2617H85.4922V53.8281C85.4922 54.2292 85.4785 54.6211 85.4512 55.0039C85.4329 55.3867 85.36 55.7285 85.2324 56.0293C85.1048 56.321 84.8997 56.5579 84.6172 56.7402C84.3346 56.9134 83.9336 57 83.4141 57C82.9036 57 82.5072 56.9134 82.2246 56.7402C81.9512 56.5579 81.7507 56.321 81.623 56.0293C81.4954 55.7285 81.418 55.3867 81.3906 55.0039C81.3724 54.6211 81.3633 54.2292 81.3633 53.8281V40.9766ZM87.3516 46.1992C87.8073 46.181 88.2174 46.0716 88.582 45.8711C88.737 45.7891 88.8874 45.6842 89.0332 45.5566C89.179 45.429 89.3112 45.2695 89.4297 45.0781C89.5482 44.8867 89.6393 44.6634 89.7031 44.4082C89.776 44.153 89.8125 43.8568 89.8125 43.5195C89.8125 43.2188 89.776 42.9544 89.7031 42.7266C89.6393 42.4896 89.5527 42.2845 89.4434 42.1113C89.334 41.9382 89.2064 41.7923 89.0605 41.6738C88.9238 41.5553 88.7826 41.4596 88.6367 41.3867C88.2904 41.2135 87.8984 41.1133 87.4609 41.0859H85.4922V46.1992H87.3516ZM102.719 37.8594C103.53 37.8594 104.291 37.9642 105.002 38.1738C105.722 38.3835 106.346 38.6979 106.875 39.1172C107.413 39.5365 107.832 40.0605 108.133 40.6895C108.443 41.3092 108.598 42.0339 108.598 42.8633C108.598 43.2917 108.538 43.6836 108.42 44.0391C108.311 44.3854 108.165 44.6999 107.982 44.9824C107.809 45.265 107.613 45.5111 107.395 45.7207C107.185 45.9303 106.98 46.1126 106.779 46.2676C106.579 46.4134 106.401 46.5319 106.246 46.623C106.091 46.7051 105.982 46.7552 105.918 46.7734C106.465 46.9284 106.925 47.1289 107.299 47.375C107.673 47.612 107.982 47.8763 108.229 48.168C108.484 48.4505 108.68 48.7467 108.816 49.0566C108.962 49.3574 109.067 49.6536 109.131 49.9453C109.204 50.2279 109.245 50.4922 109.254 50.7383C109.272 50.9753 109.281 51.1667 109.281 51.3125C109.281 52.0234 109.195 52.6523 109.021 53.1992C108.848 53.737 108.62 54.2064 108.338 54.6074C108.055 54.9993 107.732 55.3366 107.367 55.6191C107.003 55.8926 106.633 56.1159 106.26 56.2891C105.367 56.7083 104.359 56.9453 103.238 57H98.7539C98.2344 57 97.8333 56.9134 97.5508 56.7402C97.2682 56.5579 97.0632 56.321 96.9355 56.0293C96.8079 55.7285 96.7305 55.3913 96.7031 55.0176C96.6849 54.6439 96.6758 54.2565 96.6758 53.8555V40.9766C96.6758 40.5846 96.6849 40.2018 96.7031 39.8281C96.7305 39.4544 96.8079 39.1217 96.9355 38.8301C97.0632 38.5384 97.2682 38.306 97.5508 38.1328C97.8333 37.9505 98.2344 37.8594 98.7539 37.8594H102.719ZM100.832 48.6328V53.7734H102.828C103.257 53.7552 103.639 53.6549 103.977 53.4727C104.122 53.3997 104.264 53.304 104.4 53.1855C104.537 53.0671 104.66 52.9212 104.77 52.748C104.879 52.5658 104.965 52.3607 105.029 52.1328C105.093 51.8958 105.125 51.6224 105.125 51.3125C105.125 50.9753 105.089 50.6836 105.016 50.4375C104.952 50.1823 104.861 49.9635 104.742 49.7812C104.633 49.5898 104.505 49.4303 104.359 49.3027C104.214 49.166 104.068 49.0566 103.922 48.9746C103.566 48.7832 103.165 48.6693 102.719 48.6328H100.832ZM100.832 41.0859V45.7344H102.582C102.974 45.7161 103.325 45.625 103.635 45.4609C103.762 45.3971 103.89 45.3105 104.018 45.2012C104.145 45.0918 104.259 44.9642 104.359 44.8184C104.46 44.6634 104.537 44.4811 104.592 44.2715C104.656 44.0618 104.688 43.8203 104.688 43.5469C104.688 43.237 104.656 42.9681 104.592 42.7402C104.528 42.5033 104.441 42.3027 104.332 42.1387C104.232 41.9655 104.113 41.8197 103.977 41.7012C103.849 41.5827 103.717 41.4824 103.58 41.4004C103.252 41.2272 102.883 41.1224 102.473 41.0859H100.832ZM112.426 41.0039C112.426 40.612 112.444 40.2292 112.48 39.8555C112.526 39.4818 112.622 39.1491 112.768 38.8574C112.923 38.5566 113.15 38.3151 113.451 38.1328C113.752 37.9505 114.167 37.8594 114.695 37.8594C115.224 37.8594 115.639 37.9505 115.939 38.1328C116.24 38.3151 116.464 38.5566 116.609 38.8574C116.764 39.1491 116.86 39.4818 116.896 39.8555C116.942 40.2292 116.965 40.612 116.965 41.0039V53.8555C116.965 54.2565 116.947 54.6439 116.91 55.0176C116.874 55.3913 116.778 55.7285 116.623 56.0293C116.477 56.321 116.249 56.5579 115.939 56.7402C115.639 56.9134 115.224 57 114.695 57C114.167 57 113.752 56.9134 113.451 56.7402C113.15 56.5579 112.923 56.321 112.768 56.0293C112.622 55.7285 112.526 55.3913 112.48 55.0176C112.444 54.6439 112.426 54.2565 112.426 53.8555V41.0039ZM129.434 37.8594C129.798 37.8594 130.163 37.873 130.527 37.9004C130.901 37.9277 131.238 38.0052 131.539 38.1328C131.84 38.2604 132.081 38.4564 132.264 38.7207C132.455 38.9759 132.551 39.3359 132.551 39.8008C132.551 40.2565 132.455 40.6165 132.264 40.8809C132.081 41.1361 131.84 41.3275 131.539 41.4551C131.238 41.5827 130.901 41.6647 130.527 41.7012C130.163 41.7285 129.798 41.7422 129.434 41.7422H128.039V53.8828C128.039 54.2747 128.025 54.6576 127.998 55.0312C127.98 55.4049 127.907 55.7376 127.779 56.0293C127.652 56.321 127.447 56.5579 127.164 56.7402C126.882 56.9134 126.48 57 125.961 57C125.441 57 125.04 56.9134 124.758 56.7402C124.475 56.5579 124.27 56.321 124.143 56.0293C124.015 55.7376 123.938 55.4049 123.91 55.0312C123.892 54.6576 123.883 54.2747 123.883 53.8828V41.7422H122.488C122.124 41.7422 121.755 41.7285 121.381 41.7012C121.016 41.6647 120.684 41.5827 120.383 41.4551C120.082 41.3275 119.836 41.1361 119.645 40.8809C119.462 40.6165 119.371 40.2565 119.371 39.8008C119.371 39.3359 119.462 38.9759 119.645 38.7207C119.836 38.4564 120.082 38.2604 120.383 38.1328C120.684 38.0052 121.016 37.9277 121.381 37.9004C121.755 37.873 122.124 37.8594 122.488 37.8594H129.434Z" fill="url(#paint2_linear_7003_4739)"/>
<defs>
<linearGradient id="paint0_linear_7003_4739" x1="11" y1="70" x2="39" y2="15" gradientUnits="userSpaceOnUse">
<stop stop-color="#EF7CAF"/>
<stop offset="1" stop-color="#C39BDC"/>
</linearGradient>
<linearGradient id="paint1_linear_7003_4739" x1="10" y1="16.5" x2="40.5" y2="54.5" gradientUnits="userSpaceOnUse">
<stop stop-color="#EF7CAF"/>
<stop offset="1" stop-color="#9363C7" stop-opacity="0.48"/>
</linearGradient>
<linearGradient id="paint2_linear_7003_4739" x1="133" y1="1" x2="133" y2="59" gradientUnits="userSpaceOnUse">
<stop stop-color="#682392"/>
<stop offset="1" stop-color="#E97EB3"/>
</linearGradient>
</defs>
</svg>
