<svg width="381" height="357" viewBox="0 0 381 357" fill="none" xmlns="http://www.w3.org/2000/svg">
<path d="M260.777 6.83785C294.489 17.2112 325.367 35.6016 346.708 61.3279C368.05 87.0552 379.586 118.947 380.425 151.071C381.227 181.799 364.514 209.484 351.317 237.82C338.032 266.346 328.088 297.001 302.75 317.856C276.31 339.618 242.319 356.429 206.533 356.99C171.599 357.538 142.777 335.095 111.608 320.855C82.3814 307.504 48.5049 299.507 28.8897 275.837C9.27675 252.17 8.28292 220.882 4.44076 191.536C0.602491 162.22 -4.113 132.442 6.45754 104.505C17.4247 75.5194 37.6226 49.3072 65.0745 31.2861C92.3631 13.3721 126.397 7.99985 159.827 3.82356C193.755 -0.41495 228.359 -3.13735 260.777 6.83785Z" fill="#F8D39D"/>
<path d="M222.471 145.143C220.632 138.707 219.108 132.172 217.906 125.565C217.361 118.849 216.4 112.18 215.032 105.601C214.988 100.914 214.061 96.2842 212.307 91.9923C210.448 87.6401 208.789 82.8488 204.905 80.4864C202.074 78.7695 198.408 77.1591 195.156 77.006C188.553 76.7132 182.626 77.931 177.423 82.3297C170.418 88.239 169.668 98.78 167.717 107.804C166.839 111.806 166.614 115.943 167.054 120.028C167.154 120.92 167.277 121.738 167.432 122.497L163.474 123.229L160.656 165.493L224.713 169.838C224.713 169.838 232.963 169.359 236.915 163.683C236.89 163.703 226.85 160.083 222.471 145.143Z" fill="#263238"/>
<path d="M169.281 219.489C169.281 219.489 158.275 231.78 155.859 249.068L192.775 274.17L229.938 247.884C229.938 247.884 226.989 231.846 217.723 219.522L169.281 219.489Z" fill="#263238"/>
<path d="M181.438 285.642C181.983 285.602 212.617 285.642 212.617 285.642L231.756 287.033C238.433 287.253 240.359 283.706 240.205 281.357C240 278.369 237.182 274.981 237.182 274.981C237.182 274.981 221.468 271.361 221.078 271.654C220.688 271.947 182.899 275.028 182.899 275.028L181.438 285.642Z" fill="#AE7461"/>
<path d="M223.662 241.023C223.941 241.655 254.476 250.685 254.476 250.685L192.433 274.356C192.433 274.356 183.532 262.67 183.811 262.67C184.09 262.67 223.662 241.023 223.662 241.023Z" fill="#263238"/>
<path d="M196.516 264.9V285.902C196.516 285.902 236.032 286.893 249.114 283.772C262.195 280.651 269.727 265.379 265.032 257.48C259.532 248.203 246.048 249.168 241.613 249.687C237.178 250.206 196.516 264.9 196.516 264.9Z" fill="#263238"/>
<path d="M166.028 243.099C166.028 243.099 127.453 245.022 121.742 248.762L185.062 271.594C185.062 271.594 193.962 259.909 193.684 259.909C193.405 259.909 166.028 243.099 166.028 243.099Z" fill="#263238"/>
<path d="M190.508 272.885C190.508 272.885 148.118 253.966 143.286 251.91C132.348 247.251 115.718 243.319 115.018 259.849C114.318 276.379 134.417 286.268 148.464 287.299H187.102L190.508 272.885Z" fill="#263238"/>
<path d="M196.518 261.805L184.75 262.97C184.75 262.97 182.656 259.895 180.854 259.15C179.052 258.405 175.719 259.15 173.527 258.198C171.334 257.247 165.747 252.449 163.616 250.878C161.745 249.528 159.587 248.707 157.342 248.489C157.342 248.489 152.387 247.425 149.377 250.486C147.996 251.876 147.859 255.044 147.859 255.044C147.859 255.044 182.662 274.975 183.047 274.762C183.431 274.549 196.512 277.424 196.512 277.424L196.518 261.805Z" fill="#AE7461"/>
<path d="M183.055 274.735C182.876 274.676 182.704 274.595 182.541 274.496C182.169 274.309 181.692 274.056 181.098 273.744L175.82 270.902L168.016 266.63C165.087 265 161.822 263.303 158.503 261.306C155.183 259.31 151.993 257.446 149.038 255.889C146.442 254.486 143.768 253.257 141.03 252.209C139.184 251.521 137.299 250.958 135.387 250.526C134.712 250.366 134.179 250.286 133.82 250.206C133.636 250.185 133.455 250.138 133.281 250.066C133.466 250.063 133.651 250.078 133.833 250.113C134.198 250.166 134.731 250.22 135.418 250.353C137.35 250.722 139.255 251.242 141.116 251.91C143.891 252.923 146.6 254.135 149.224 255.537C152.197 257.087 155.375 258.97 158.713 260.934C162.052 262.897 165.291 264.633 168.208 266.257L175.969 270.616L181.191 273.591L182.597 274.416C182.759 274.506 182.912 274.613 183.055 274.735Z" fill="#455A64"/>
<path d="M196.523 277.384C196.523 277.51 193.507 277.018 189.834 276.279C186.161 275.54 183.194 274.855 183.219 274.735C183.244 274.615 186.229 275.108 189.908 275.84C193.587 276.572 196.542 277.264 196.523 277.384Z" fill="#6F4439"/>
<path d="M196.522 281.357C196.498 281.227 196.488 281.096 196.491 280.964C196.491 280.671 196.491 280.299 196.491 279.826C196.491 278.781 196.491 277.337 196.435 275.52C196.435 271.787 196.392 266.55 196.367 260.355V260.195L196.522 260.162L210.483 257.14L233.456 252.282L240.393 250.878L242.288 250.512C242.508 250.456 242.732 250.425 242.957 250.419C242.744 250.496 242.527 250.559 242.307 250.606L240.449 251.051L233.462 252.589L210.545 257.58L196.578 260.554L196.726 260.355C196.695 266.55 196.671 271.787 196.652 275.52C196.652 277.337 196.609 278.781 196.596 279.826C196.596 280.292 196.596 280.671 196.596 280.964C196.585 281.097 196.56 281.229 196.522 281.357Z" fill="#455A64"/>
<path d="M180.876 256.555C180.82 256.615 179.854 255.543 178.144 254.013C175.921 252.03 173.506 250.31 170.941 248.882C168.375 247.491 165.675 246.406 162.889 245.648C160.758 245.069 159.402 244.876 159.414 244.796C159.733 244.777 160.054 244.799 160.368 244.863C161.236 244.973 162.098 245.131 162.951 245.335C165.778 246.011 168.514 247.067 171.096 248.476C173.704 249.91 176.136 251.687 178.336 253.767C179.007 254.395 179.646 255.061 180.25 255.763C180.483 256.003 180.693 256.269 180.876 256.555Z" fill="#455A64"/>
<path d="M233.642 244.39C233.303 244.434 232.961 244.452 232.62 244.443C231.69 244.518 230.765 244.656 229.851 244.856C226.823 245.514 223.853 246.453 220.976 247.664C218.074 248.839 215.286 250.314 212.651 252.07C210.638 253.447 209.554 254.545 209.492 254.472C209.717 254.184 209.965 253.919 210.235 253.68C210.534 253.374 210.85 253.09 211.183 252.828C211.567 252.529 211.988 252.163 212.496 251.797C215.109 249.949 217.905 248.42 220.833 247.238C223.73 246.015 226.735 245.11 229.802 244.536C230.731 244.366 231.671 244.275 232.614 244.264C232.96 244.252 233.307 244.295 233.642 244.39Z" fill="#455A64"/>
<path d="M178.023 145.429C178.023 145.429 181.387 159.683 194.208 158.179C203.499 157.088 202.26 145.036 202.26 145.036L178.023 145.429Z" fill="#AE7461"/>
<path d="M170.077 212.612L170.146 212.445L170.092 212.271L165.765 198.505L163.026 183.925L163.023 183.867L163.008 183.605L162.949 182.612C162.899 181.756 162.828 180.531 162.742 179.06C162.571 176.118 162.345 172.186 162.123 168.231C161.9 164.276 161.682 160.298 161.529 157.262C161.452 155.744 161.391 154.462 161.354 153.537C161.335 153.075 161.322 152.703 161.316 152.437C161.315 152.392 161.315 152.351 161.314 152.312L178.309 145.929H202.222L213.103 148.811C213.158 148.978 213.238 149.224 213.341 149.539C213.546 150.173 213.839 151.088 214.19 152.215C214.89 154.469 215.818 157.567 216.729 160.942C217.64 164.319 218.532 167.968 219.162 171.328C219.794 174.697 220.155 177.736 220.023 179.91C219.751 184.37 218.921 192.251 218.158 199.029C217.776 202.415 217.412 205.522 217.142 207.782C217.008 208.912 216.897 209.83 216.82 210.466C216.782 210.784 216.751 211.032 216.731 211.199L216.708 211.39L216.702 211.439L216.7 211.451L216.7 211.454L216.7 211.455C216.7 211.455 216.7 211.455 217.196 211.516L216.7 211.455L216.686 211.57L216.723 211.679L222.078 227.247C205.16 236.182 183.313 234.544 164.078 227.113L170.077 212.612Z" fill="#F4ECDB" stroke="black"/>
<path d="M132.208 219.069C132.208 219.069 122.527 215.549 125.531 206.585C128.535 197.621 139.554 180.965 142.824 174.882C146.095 168.8 150.61 156.249 158.309 152.969C166.008 149.688 167.717 150.253 167.717 150.253C167.717 150.253 172.437 171.761 163.072 183.527L161.102 182.861L144.379 204.156L170.622 211.217L169.501 224.526L132.208 219.069Z" fill="#AE7461"/>
<path d="M212.37 167.416C212.37 167.416 208.394 159.909 207.855 158.099C207.316 156.289 206.232 151.664 205.377 151.258C204.523 150.853 203.817 152.47 203.519 154.213C203.222 155.957 205.507 159.71 204.758 160.315C204.009 160.921 191.032 156.988 188.871 156.356C186.709 155.724 180.621 154.479 180.441 157.634C180.441 157.634 177.493 157.501 177.313 158.838C177.187 159.456 177.187 160.096 177.313 160.715C177.313 160.715 176.774 163.13 178.639 163.936C179.664 164.395 180.734 164.732 181.828 164.94C181.828 164.94 180.323 165.746 181.649 167.423C182.974 169.1 191.156 172.52 191.156 172.52C191.156 172.52 194.873 176.413 198.137 177.285C201.401 178.157 206.92 178.157 206.92 178.157L212.37 167.416Z" fill="#AE7461"/>
<path d="M213.498 148.397L221.698 151.192C221.698 151.192 227.149 152.582 230.593 156.655C234.036 160.728 237.901 169.805 241.122 172.134C244.343 174.463 254.693 184.585 255.529 188.89C256.365 193.196 256.148 203.783 250.623 204.369C250.623 204.369 221.457 171.542 221.128 171.668C220.8 171.794 218.032 176.379 218.032 176.379C218.032 176.379 214.829 167.882 213.368 163.343C211.906 158.805 213.498 148.397 213.498 148.397Z" fill="#AE7461"/>
<path d="M212.364 167.416C212.364 167.416 227.775 176.952 234.142 178.15C240.509 179.348 246.567 179.58 249.49 182.954C252.414 186.328 250.642 204.369 250.642 204.369C250.642 204.369 247.298 205.88 240.41 202.506C233.522 199.132 206.883 178.15 206.883 178.15L212.364 167.416Z" fill="#AE7461"/>
<path d="M170.208 211.942C170.208 211.942 173.497 208.581 176.73 207.384C179.963 206.186 181.859 204.482 183.457 203.703C185.402 202.759 187.582 202.239 187.037 204.968C186.727 206.518 185.042 207.63 183.283 208.927C181.524 210.225 179.685 210.618 181.023 211.03C182.36 211.443 188.895 212.894 192.171 212.701C192.171 212.701 199.839 212.661 199.926 214.777C200.013 216.893 191.391 216.214 190.047 216.44C189.273 216.569 188.51 216.758 187.761 217.006C187.761 217.006 196.699 217.765 199.245 218.337C201.79 218.909 201.592 220.606 200.626 221.099C200.135 221.352 199.63 221.574 199.115 221.764C199.115 221.764 199.839 223.235 198.427 223.761C197.015 224.286 185.166 223.86 185.166 223.86C185.166 223.86 193.392 224.692 193.974 225.398C194.092 225.579 194.167 225.788 194.191 226.008C194.214 226.228 194.187 226.45 194.111 226.656C194.035 226.861 193.912 227.043 193.754 227.185C193.596 227.326 193.408 227.423 193.206 227.467C192.301 227.647 184.027 226.968 183.574 227.095C180.622 227.604 177.6 227.376 174.742 226.429C170.183 224.978 169.031 223.488 169.031 223.488L170.208 211.942Z" fill="#AE7461"/>
<path d="M248.477 181.989C248.348 181.952 248.223 181.898 248.106 181.83L247.084 181.297C245.835 180.642 244.551 180.069 243.237 179.58C241.296 178.853 239.274 178.405 237.223 178.25C234.925 178.023 232.268 178.057 229.71 177.005C227.338 176.046 225.021 174.935 222.773 173.678C220.685 172.546 218.834 171.468 217.291 170.55C215.749 169.632 214.51 168.86 213.662 168.321L212.689 167.689C212.573 167.62 212.465 167.538 212.367 167.442C212.491 167.495 212.611 167.557 212.726 167.629L213.724 168.201L217.403 170.337C218.957 171.229 220.816 172.274 222.903 173.392C225.148 174.641 227.458 175.752 229.821 176.719C232.299 177.75 234.931 177.73 237.254 177.97C239.329 178.15 241.371 178.633 243.324 179.407C244.635 179.923 245.912 180.535 247.146 181.237L248.143 181.823C248.258 181.87 248.369 181.926 248.477 181.989Z" fill="#6F4439"/>
<path d="M194.996 160.249C194.274 160.11 193.561 159.925 192.859 159.696C191.546 159.337 189.725 158.891 187.687 158.532C185.649 158.172 183.785 157.966 182.435 157.866C181.701 157.84 180.969 157.769 180.242 157.653C180.446 157.608 180.654 157.592 180.862 157.607C181.239 157.607 181.791 157.607 182.472 157.607C186.021 157.758 189.539 158.381 192.946 159.463C193.565 159.67 194.123 159.856 194.482 159.996C194.662 160.057 194.835 160.142 194.996 160.249Z" fill="#6F4439"/>
<path d="M196.35 164.009C196.35 164.102 192.014 163.343 186.75 162.239C181.485 161.134 177.192 160.242 177.211 160.129C177.23 160.016 181.547 160.828 186.811 161.899C192.076 162.971 196.362 163.916 196.35 164.009Z" fill="#6F4439"/>
<path d="M193.298 167.263C192.716 167.188 192.14 167.063 191.576 166.89C190.517 166.63 189.055 166.278 187.439 165.925C185.822 165.572 184.342 165.26 183.277 165.087C182.695 165.007 182.119 164.88 181.555 164.707C182.144 164.686 182.734 164.733 183.314 164.847C184.391 164.987 185.878 165.233 187.501 165.586C189.124 165.938 190.598 166.331 191.632 166.657C192.206 166.796 192.764 166.999 193.298 167.263Z" fill="#6F4439"/>
<path d="M187.18 220.719C189.157 220.741 191.132 220.879 193.095 221.132C195.069 221.269 197.036 221.52 198.985 221.884C197.008 221.862 195.033 221.725 193.07 221.471C191.095 221.334 189.129 221.083 187.18 220.719Z" fill="#6F4439"/>
<path d="M145.281 203.983C143.613 204.217 141.959 204.55 140.326 204.981C138.717 205.526 137.137 206.166 135.594 206.898C135.978 206.554 136.405 206.269 136.863 206.053C137.944 205.469 139.074 204.998 140.239 204.649C141.402 204.306 142.592 204.083 143.794 203.983C144.287 203.907 144.788 203.907 145.281 203.983Z" fill="#6F4439"/>
<path d="M155.562 172.394C155.947 172.817 156.285 173.286 156.572 173.791C157.154 174.689 157.916 175.96 158.684 177.411C159.452 178.862 160.078 180.219 160.499 181.218C160.757 181.741 160.965 182.292 161.118 182.861C160.803 182.379 160.534 181.864 160.313 181.324C159.842 180.359 159.186 179.028 158.455 177.584C157.724 176.14 156.962 174.856 156.43 173.924C156.101 173.441 155.811 172.929 155.562 172.394Z" fill="#6F4439"/>
<path d="M190.038 205.807L191.016 189.396H188.508L193.066 180.945L198.083 189.27H195.346L196.331 205.7L190.038 205.807Z" fill="#263238"/>
<path d="M184.907 74.3307C184.174 72.8939 182.994 71.7797 181.574 71.1831C180.006 70.4037 178.298 70 176.57 70C174.841 70 173.134 70.4037 171.565 71.1831C170.008 71.9907 168.659 73.1962 167.637 74.694C166.614 76.1918 165.949 77.9361 165.7 79.7742C165.489 81.6198 165.751 83.4922 166.459 85.1892C167.166 86.8862 168.291 88.3434 169.713 89.4035C167.872 89.4665 166.073 90.0125 164.473 90.994C164.225 91.1132 164.002 91.2839 163.816 91.4964C163.63 91.7088 163.485 91.9587 163.389 92.2317C163.185 93.1301 164.064 93.9686 164.919 94.0085C165.56 94.0047 166.188 93.8113 166.734 93.4495C166.413 93.6201 166.129 93.8601 165.899 94.1544C165.668 94.4487 165.497 94.791 165.396 95.1598C165.136 96.4907 166.418 97.6619 167.663 97.7151C168.908 97.7684 170.066 97.0497 171.138 96.3842L184.108 78.7627C185.328 77.7778 185.551 75.7948 184.907 74.3307Z" fill="#263238"/>
<path d="M177.786 89.53L199.117 82.7688C205.993 81.6908 210.886 90.628 211.623 98.0745C212.409 106.32 213.066 116.421 212.385 122.63C211.003 135.114 202.214 137.064 202.214 137.064C202.214 137.064 202.214 137.25 202.264 140.937V148.53C202.357 150.946 201.96 151.757 200.585 153.674C197.439 158.053 191.703 158.638 184.94 155.95C181.019 154.393 178.294 151.258 177.997 146.993L178.034 96.4707C177.935 94.1816 175.699 89.8361 177.786 89.53Z" fill="#AE7461"/>
<path d="M204.213 109.361C204.405 109.154 205.507 110.073 207.099 110.106C208.691 110.139 209.88 109.307 210.047 109.52C210.134 109.614 209.936 109.986 209.428 110.372C208.728 110.871 207.901 111.124 207.062 111.098C206.233 111.083 205.43 110.784 204.77 110.246C204.281 109.8 204.12 109.447 204.213 109.361Z" fill="#263238"/>
<path d="M190.068 109.8C190.241 109.587 191.399 110.432 192.991 110.359C194.583 110.286 195.723 109.381 195.902 109.587C195.989 109.673 195.816 110.053 195.32 110.479C194.65 111.019 193.841 111.324 193.004 111.35C192.177 111.401 191.357 111.168 190.662 110.685C190.161 110.279 189.981 109.913 190.068 109.8Z" fill="#263238"/>
<path d="M200.747 116.827C200.747 116.734 201.719 116.508 203.311 116.215C203.72 116.155 204.098 116.049 204.16 115.749C204.175 115.296 204.063 114.849 203.838 114.465L202.493 111.191C200.635 106.533 199.297 102.673 199.477 102.6C199.657 102.526 201.286 106.24 203.131 110.905C203.577 112.063 204.005 113.154 204.407 114.232C204.684 114.75 204.78 115.355 204.68 115.942C204.63 116.096 204.548 116.236 204.441 116.351C204.334 116.466 204.204 116.554 204.061 116.608C203.838 116.685 203.607 116.73 203.373 116.741C201.756 116.874 200.753 116.927 200.747 116.827Z" fill="#263238"/>
<path d="M202.261 137.037C196.829 137.355 191.422 136.047 186.641 133.258C186.641 133.258 190.778 141.776 202.292 140.132L202.261 137.037Z" fill="#6F4439"/>
<path d="M198.153 124.726C197.718 124.862 197.256 124.855 196.825 124.706C196.395 124.556 196.016 124.271 195.737 123.888C195.499 123.538 195.355 123.124 195.32 122.691C195.286 122.259 195.363 121.825 195.543 121.437C195.722 121.048 195.997 120.72 196.339 120.488C196.68 120.256 197.074 120.129 197.478 120.121C197.963 120.064 198.451 120.206 198.843 120.52C199.235 120.834 199.502 121.295 199.59 121.812C200.011 124.234 198.153 124.726 198.153 124.726Z" fill="#6F4439"/>
<path d="M195.138 99.4655C195.021 99.9446 193.417 99.8914 191.577 100.324C189.737 100.756 188.282 101.462 187.997 101.076C187.867 100.89 188.09 100.41 188.66 99.9114C189.419 99.2746 190.304 98.8331 191.246 98.6208C192.189 98.4086 193.165 98.4312 194.098 98.6869C194.81 98.9065 195.188 99.2392 195.138 99.4655Z" fill="#263238"/>
<path d="M210.077 100.923C209.711 101.255 208.553 100.67 207.091 100.424C205.63 100.177 204.36 100.264 204.131 99.8181C204.032 99.5985 204.279 99.2458 204.868 98.9663C205.667 98.6285 206.539 98.5408 207.382 98.7134C208.227 98.8514 209.016 99.2489 209.656 99.858C210.12 100.33 210.238 100.756 210.077 100.923Z" fill="#263238"/>
<path d="M199.188 81.4312L199.243 81.6973H199.2L199.188 81.4312Z" fill="#263238"/>
<path d="M177.244 145.489C183.011 145.129 183.803 136.512 183.438 133.258C183.032 129.638 182.382 126.055 181.493 122.537C180.13 117.213 182.001 111.484 182.688 105.947C185.636 105.431 188.306 103.774 190.195 101.289C192.512 98.3873 193.912 94.7938 195.281 91.2602C195.19 94.7475 194.09 98.1178 192.134 100.903C192.783 101.012 193.447 100.955 194.072 100.738C194.697 100.521 195.266 100.149 195.733 99.6517C196.659 98.6483 197.379 97.4466 197.845 96.1247C199.096 92.9829 199.791 89.6181 199.895 86.2026C200.323 91.092 199.808 96.0235 198.384 100.69C199.217 100.526 200.074 100.562 200.892 100.796C201.728 100.923 202.688 100.896 203.283 100.251C203.643 99.7766 203.869 99.2014 203.933 98.5936C204.735 94.4337 204.865 90.1569 204.317 85.9498C205.415 88.1806 206.303 90.5235 206.968 92.9438C207.632 95.3791 207.649 97.9651 207.018 100.41C207.208 100.613 207.465 100.727 207.733 100.727C208.001 100.727 208.258 100.613 208.449 100.41C208.807 99.9775 209.025 99.4308 209.068 98.8531C209.372 96.7636 209.031 94.6407 208.684 92.5645C209.842 94.7672 210.226 97.3159 210.864 99.7448C211.502 102.174 212.518 104.663 214.481 106.053C214.814 102.881 214.719 99.6735 214.197 96.5306C213.806 93.9287 212.654 91.3467 211.595 88.971C210.47 86.334 208.88 83.9565 206.913 81.9703C203.512 78.7694 202.094 80.1469 199.92 81.3714L199.66 81.4845C199.662 81.4269 199.662 81.3691 199.66 81.3115L199.567 80.819C193.877 79.4497 187.95 79.7462 182.404 81.6775C178.309 83.1149 177.932 92.5844 176.934 88.0859C176.315 85.3642 173.039 87.8463 173.001 87.9262C168.17 97.2893 163.048 112.136 162.812 135.6L177.244 145.489Z" fill="#263238"/>
<path d="M173.054 87.5669C173.741 87.913 175.692 84.6988 179.186 82.17C182.679 79.6413 186.11 78.7362 186.049 77.9177C186.049 77.5451 185.039 77.2523 183.447 77.4253C181.377 77.7252 179.401 78.544 177.68 79.8156C175.958 81.0872 174.539 82.7759 173.537 84.7454C172.825 86.3092 172.763 87.4072 173.054 87.5669Z" fill="#455A64"/>
<path d="M199.479 121.525C199.479 121.525 199.423 121.392 199.305 121.179C199.127 120.889 198.876 120.658 198.581 120.514C198.153 120.288 197.666 120.222 197.199 120.328C196.917 120.357 196.647 120.464 196.414 120.638C196.181 120.811 195.993 121.046 195.868 121.319C195.614 121.874 195.548 122.507 195.682 123.109C195.741 123.353 195.845 123.581 195.988 123.781C196.13 123.981 196.309 124.149 196.512 124.274C196.913 124.473 197.327 124.64 197.751 124.773C197.751 124.773 197.614 124.806 197.373 124.773C197.023 124.746 196.682 124.644 196.369 124.473C196.129 124.345 195.916 124.164 195.743 123.943C195.571 123.722 195.442 123.466 195.366 123.189C195.187 122.506 195.249 121.776 195.539 121.139C195.684 120.795 195.922 120.506 196.221 120.308C196.588 120.078 197.005 119.953 197.43 119.946C197.855 119.939 198.275 120.05 198.649 120.268C198.981 120.45 199.245 120.748 199.398 121.113C199.51 121.372 199.497 121.525 199.479 121.525Z" fill="#263238"/>
<path d="M208.228 125.771C208.2 125.449 208.273 125.125 208.436 124.853C208.599 124.58 208.842 124.374 209.126 124.267C209.364 124.152 209.622 124.096 209.882 124.101C210.143 124.107 210.398 124.175 210.631 124.3C210.813 124.004 211.065 123.766 211.361 123.609C211.658 123.453 211.987 123.384 212.317 123.409C212.646 123.435 212.963 123.555 213.235 123.756C213.507 123.957 213.724 124.232 213.864 124.553C214.258 124.35 214.694 124.262 215.129 124.299C215.564 124.335 215.982 124.494 216.342 124.76C216.686 125.026 216.936 125.411 217.048 125.85C217.161 126.289 217.13 126.757 216.961 127.175C218.2 127.841 217.327 129.731 216.038 129.285C216.357 129.547 216.575 129.924 216.654 130.346C216.732 130.769 216.666 131.207 216.466 131.581C216.251 131.945 215.964 132.254 215.624 132.484C215.284 132.715 214.901 132.86 214.502 132.912C213.699 133.039 212.879 132.907 212.146 132.531C211.414 132.155 210.802 131.553 210.39 130.802C209.944 131.093 209.415 131.2 208.902 131.104C208.388 131.008 207.924 130.715 207.596 130.28C207.268 129.844 207.098 129.296 207.117 128.736C207.136 128.176 207.344 127.643 207.702 127.235C206.655 127.144 205.648 126.769 204.773 126.145C203.899 125.521 203.187 124.669 202.703 123.668C204.354 124.842 206.246 125.564 208.216 125.771" fill="white"/>
</svg>
