<svg width="569" height="498" viewBox="0 0 569 498" fill="none" xmlns="http://www.w3.org/2000/svg">
<path d="M91.5467 409.959C93.0534 410.487 94.4193 411.263 95.5639 412.243C96.7084 413.222 97.6085 414.384 98.2111 415.661C99.3819 418.226 99.846 420.982 99.5684 423.72C99.2015 429.021 95.9977 434.486 92.4393 438.871C86.9244 435.248 85.2858 428.578 84.6989 425.12C83.7818 419.685 86.0318 409.393 91.5467 409.959Z" fill="#78C592"/>
<path d="M99.1145 447.27C98.6607 445.782 98.6818 444.22 99.1757 442.742C99.6696 441.263 100.619 439.921 101.927 438.85C103.259 437.807 104.823 436.998 106.53 436.467C108.237 435.937 110.051 435.698 111.869 435.762C112.708 435.714 113.55 435.821 114.336 436.075C115.122 436.33 115.832 436.725 116.417 437.234C116.863 437.782 117.128 438.419 117.184 439.082C117.239 439.744 117.085 440.406 116.735 441.001C116.007 442.184 114.924 443.184 113.593 443.904C109.191 446.518 104.36 448.371 99.1145 447.311" fill="#78C592"/>
<path d="M93.4221 463.707C93.4186 463.341 93.4595 462.975 93.5444 462.616C93.6544 461.854 93.8012 460.856 93.9846 459.672C94.3629 456.391 95.3706 453.182 96.9683 450.172C98.6294 447.16 101.217 444.576 104.464 442.689C105.452 442.138 106.51 441.682 107.619 441.331C108.01 441.207 108.341 441.145 108.548 441.094C108.654 441.058 108.765 441.038 108.879 441.032C107.394 441.542 105.973 442.172 104.635 442.916C101.509 444.834 99.0104 447.387 97.3718 450.337C95.8031 453.317 94.7687 456.477 94.3025 459.714C94.0702 460.949 93.8745 461.947 93.7156 462.637C93.6534 463 93.5553 463.358 93.4221 463.707Z" fill="#263238"/>
<path d="M90.6685 417.925C90.7102 418.078 90.7388 418.232 90.7541 418.388C90.8031 418.738 90.8642 419.191 90.9376 419.747C91.0965 420.92 91.28 422.619 91.5001 424.718C91.9403 428.928 92.4416 434.754 92.8329 441.187C93.2242 447.62 93.3954 453.455 93.4688 457.655C93.4688 459.765 93.4688 461.473 93.4688 462.647C93.4688 463.213 93.4688 463.676 93.4688 464.016C93.4844 464.173 93.4844 464.332 93.4688 464.489C93.4306 464.333 93.4101 464.175 93.4077 464.016V462.657C93.4077 461.422 93.3098 459.734 93.2365 457.655C93.0775 453.435 92.8452 447.609 92.4539 441.187C92.0626 434.764 91.6223 428.938 91.231 424.718C91.0598 422.66 90.9131 420.961 90.8153 419.737C90.8153 419.181 90.7419 418.707 90.7175 418.378C90.6717 418.23 90.6552 418.077 90.6685 417.925Z" fill="#263238"/>
<path d="M90.2282 450.893C89.3864 447.735 87.6629 444.79 85.2004 442.304C82.738 439.818 79.6074 437.862 76.0679 436.596C74.2582 435.968 71.9348 435.567 70.553 436.771C69.1712 437.976 69.6359 439.859 70.443 441.403C72.1951 444.507 74.9994 447.106 78.5028 448.872C82.0061 450.637 86.0518 451.491 90.1304 451.325" fill="#78C592"/>
<path d="M77.2188 441.547C77.6116 441.629 77.9929 441.746 78.356 441.897C78.7228 442.031 79.163 442.185 79.6522 442.411C80.1413 442.638 80.7282 442.854 81.3152 443.183C81.9764 443.516 82.6172 443.877 83.235 444.264C83.948 444.704 84.6337 445.175 85.2894 445.674C86.7891 446.831 88.1303 448.126 89.288 449.534C90.4059 450.958 91.3289 452.485 92.0393 454.083C92.3379 454.785 92.591 455.5 92.7975 456.224C92.988 456.851 93.135 457.487 93.2377 458.128C93.3348 458.653 93.3961 459.183 93.4211 459.714C93.4561 460.114 93.4561 460.517 93.4211 460.918C93.4552 461.26 93.4552 461.605 93.4211 461.947C93.3111 461.947 93.4211 460.475 92.9442 458.17C92.8097 457.593 92.6874 456.955 92.4551 456.296C92.2339 455.599 91.9686 454.912 91.6603 454.238C90.9447 452.674 90.0304 451.18 88.9334 449.781C87.8006 448.403 86.4971 447.13 85.0448 445.983C84.4089 445.485 83.7437 445.015 83.0516 444.573C82.4561 444.175 81.8356 443.804 81.1929 443.461C78.8206 442.154 77.2188 441.619 77.2188 441.547Z" fill="#263238"/>
<path d="M83.9229 200.883C83.9229 200.883 63.942 53.368 243.758 50.0537C423.574 46.7395 404.547 199.226 396.928 219.945C389.31 240.664 353.139 300.65 349.336 328.019C345.533 355.387 350.559 437.595 353.005 464.469H167.894L168.591 383.229C168.591 383.229 101.042 392.348 88.6796 366.657C76.3169 340.967 77.2218 291.212 77.2218 291.212C77.2218 291.212 40.1214 291.212 37.26 286.24C34.3986 281.269 83.9229 200.883 83.9229 200.883Z" fill="#E4CDFC"/>
<g opacity="0.7">
<path d="M66.7822 204.883C66.7822 204.883 46.8013 57.3675 226.617 54.0532C406.433 50.739 387.406 203.225 379.788 223.945C372.17 244.664 335.999 304.65 332.196 332.018C328.393 359.386 333.418 441.594 335.864 468.468H150.753L151.45 387.228C151.45 387.228 83.9017 396.348 71.539 370.657C59.1763 344.966 60.0812 295.211 60.0812 295.211C60.0812 295.211 22.9808 295.211 20.1194 290.24C17.258 285.269 66.7822 204.883 66.7822 204.883Z" fill="#DCBAFF"/>
</g>
<path d="M178.178 110.245C167.882 108.084 154.284 103.545 143.217 111.882C137.568 116.143 134.401 125.561 134.022 132.035C128.497 132.369 123.131 133.74 118.318 136.046C113.504 138.353 109.364 141.536 106.202 145.364C102.817 149.245 100.984 153.93 100.969 158.745C101.164 163.541 104.038 168.399 108.942 170.674C106.276 174.006 104.735 177.885 104.483 181.896C104.231 185.908 105.278 189.902 107.511 193.452C109.807 196.907 113.214 199.748 117.341 201.648C121.467 203.549 126.147 204.432 130.842 204.197C130.109 208.346 130.62 212.584 132.328 216.524C134.037 220.465 136.889 223.983 140.625 226.759C144.37 229.418 148.873 231.21 153.691 231.959C158.509 232.708 163.475 232.388 168.102 231.03C177.016 242.136 197.449 244.565 209.482 235.95C210.986 234.921 212.478 233.614 214.373 233.326C216.059 233.223 217.748 233.5 219.264 234.128C227.311 236.733 235.907 238.997 244.381 237.813C252.855 236.63 261.097 231.01 261.684 223.609C270.947 227.856 281.316 230.105 291.863 230.155C303.92 230.155 317.971 225.555 320.539 215.396C324.102 217.726 328.384 219.145 332.878 219.487C337.371 219.828 341.887 219.076 345.888 217.32C349.872 215.428 353.156 212.645 355.377 209.279C357.597 205.913 358.668 202.095 358.47 198.248C368.693 199.916 377.4 191.126 380.127 182.469C382.78 174.05 382.046 164.601 376.642 157.232C371.237 149.862 360.806 145.076 350.852 146.63C353.465 143.37 355.01 139.587 355.33 135.663C355.65 131.74 354.734 127.815 352.674 124.285C350.556 120.832 347.355 117.934 343.419 115.904C339.483 113.873 334.962 112.789 330.346 112.767C329.22 109.705 327.225 106.919 324.535 104.651C321.844 102.383 318.538 100.699 314.901 99.7469C311.275 98.8843 307.452 98.7939 303.774 99.4838C300.096 100.174 296.68 101.622 293.832 103.699C290.735 99.3342 286.492 95.6235 281.429 92.8511C276.365 90.0787 270.615 88.3183 264.619 87.7044C258.632 87.2036 252.588 87.8717 246.957 89.6568C241.326 91.4419 236.26 94.296 232.153 97.9971C223.985 91.945 209.213 88.6308 198.966 91.4921C193.877 92.8422 189.289 95.2764 185.646 98.5585C182.004 101.841 179.431 105.859 178.178 110.225" fill="#F39DD9"/>
<g opacity="0.3">
<path d="M177.209 118.702C166.913 116.541 153.315 112.002 142.248 120.339C136.599 124.6 133.432 134.018 133.053 140.492C127.528 140.826 122.162 142.197 117.349 144.503C112.535 146.81 108.396 149.993 105.234 153.821C101.848 157.702 100.015 162.387 100 167.202C100.196 171.998 103.069 176.856 107.973 179.131C105.307 182.463 103.766 186.342 103.514 190.353C103.262 194.365 104.309 198.359 106.542 201.909C108.839 205.364 112.245 208.205 116.372 210.105C120.499 212.006 125.178 212.889 129.874 212.654C129.14 216.803 129.651 221.041 131.359 224.981C133.068 228.922 135.92 232.44 139.656 235.216C143.401 237.875 147.904 239.667 152.722 240.416C157.54 241.165 162.507 240.845 167.133 239.487C176.047 250.593 196.481 253.022 208.513 244.407C210.017 243.378 211.509 242.071 213.404 241.783C215.091 241.68 216.779 241.957 218.296 242.586C226.342 245.19 234.938 247.454 243.412 246.27C251.887 245.087 260.128 239.467 260.715 232.066C269.978 236.313 280.347 238.562 290.895 238.613C302.952 238.613 317.002 234.012 319.57 223.853C323.133 226.183 327.415 227.603 331.909 227.944C336.403 228.285 340.918 227.533 344.919 225.778C348.903 223.885 352.187 221.102 354.408 217.736C356.629 214.37 357.699 210.552 357.502 206.705C367.725 208.373 376.431 199.583 379.158 190.926C381.811 182.507 381.078 173.058 375.673 165.689C370.268 158.319 359.837 153.533 349.884 155.087C352.497 151.827 354.041 148.044 354.361 144.12C354.681 140.197 353.765 136.272 351.706 132.742C349.587 129.289 346.387 126.391 342.45 124.361C338.514 122.33 333.993 121.246 329.377 121.224C328.251 118.162 326.257 115.376 323.566 113.108C320.875 110.84 317.569 109.156 313.933 108.204C310.307 107.341 306.483 107.251 302.805 107.941C299.127 108.631 295.711 110.079 292.863 112.156C289.766 107.791 285.523 104.08 280.46 101.308C275.396 98.5358 269.646 96.7753 263.65 96.1615C257.663 95.6606 251.619 96.3287 245.988 98.1138C240.357 99.899 235.291 102.753 231.184 106.454C223.016 100.402 208.244 97.0878 197.997 99.9492C192.908 101.299 188.32 103.733 184.678 107.016C181.035 110.298 178.463 114.316 177.209 118.682" fill="white"/>
</g>
<path d="M169.261 129.112C168.213 129.056 167.16 129.115 166.13 129.287C163.284 129.874 160.766 131.27 159.001 133.239C156.666 135.71 155.247 139.415 154.721 143.686C154.372 145.926 154.347 148.194 154.648 150.438C154.915 152.886 156.126 155.192 158.096 157.005L158.524 157.376L157.913 157.458C152.366 158.291 147.354 160.762 143.777 164.426C142.024 166.2 140.658 168.221 139.742 170.396C138.55 173.346 138.152 176.482 138.574 179.577C138.997 182.672 140.231 185.65 142.188 188.295L142.408 188.583L142.016 188.655C140.035 189.098 138.226 189.971 136.77 191.187C135.464 192.265 134.377 193.517 133.554 194.893C132.262 197.174 131.467 199.631 131.207 202.149C130.925 204.208 130.889 205.896 130.84 207.028C130.84 207.553 130.84 207.985 130.84 208.314C130.868 208.461 130.868 208.61 130.84 208.757C130.824 208.61 130.824 208.462 130.84 208.314C130.84 207.975 130.84 207.553 130.84 207.017C130.805 205.382 130.875 203.747 131.048 202.118C131.258 199.556 132.025 197.047 133.31 194.718C134.14 193.29 135.247 191.989 136.587 190.868C138.088 189.608 139.956 188.703 142.004 188.244L141.833 188.604C139.817 185.898 138.543 182.847 138.103 179.675C137.663 176.502 138.068 173.287 139.289 170.262C140.226 168.013 141.629 165.922 143.435 164.087C147.105 160.297 152.268 157.74 157.986 156.882L157.815 157.345C155.76 155.443 154.498 153.029 154.22 150.469C153.928 148.182 153.969 145.873 154.342 143.594C154.917 139.291 156.421 135.493 158.855 132.992C160.681 131.002 163.276 129.611 166.192 129.061C167.207 128.892 168.254 128.909 169.261 129.112Z" fill="#FF725E"/>
<path d="M194.982 193.163C194.398 193.447 193.784 193.684 193.148 193.874C191.453 194.467 189.723 194.986 187.963 195.428C185.341 196.117 182.602 196.437 179.856 196.375C178.219 196.318 176.604 196.036 175.075 195.541C173.441 195 171.919 194.246 170.563 193.308C167.789 191.655 165.6 189.399 164.228 186.782C163.256 184.589 163.039 182.209 163.605 179.917C163.958 178.38 164.677 176.92 165.72 175.625C166.002 175.278 166.317 174.95 166.662 174.647C166.906 174.431 167.029 174.328 167.053 174.338C167.078 174.348 166.613 174.822 165.94 175.748C164.795 177.368 164.097 179.185 163.9 181.063C163.704 182.941 164.012 184.833 164.803 186.597C166.149 189.103 168.258 191.266 170.917 192.865C173.423 194.646 176.546 195.697 179.819 195.86C182.508 195.944 185.195 195.666 187.78 195.037C190.006 194.543 191.766 194.007 192.989 193.668C193.636 193.453 194.302 193.284 194.982 193.163Z" fill="#FF725E"/>
<path d="M306.756 174.163C306.772 174.259 306.772 174.356 306.756 174.451C306.756 174.667 306.67 174.956 306.597 175.316C306.45 176.067 306.23 177.189 305.888 178.63C305.491 180.4 304.973 182.15 304.335 183.869C303.493 186.193 302.231 188.394 300.593 190.395C298.53 192.837 295.917 194.914 292.902 196.509C289.451 198.448 285.61 199.843 281.566 200.626C279.345 201.055 277.069 201.245 274.792 201.192C272.395 201.092 270.02 200.764 267.711 200.214C262.807 199.007 258.163 197.148 253.955 194.707L254.444 194.532C253.576 198.824 252.671 203.446 249.993 207.697C249.295 208.756 248.475 209.756 247.547 210.682C246.591 211.609 245.507 212.439 244.319 213.152C241.85 214.509 239.086 215.439 236.187 215.89C231.256 216.692 226.167 216.481 221.353 215.273C216.539 214.065 212.144 211.897 208.539 208.952L209.077 208.798C208.66 211.111 207.488 213.282 205.69 215.066C203.992 216.805 201.864 218.21 199.454 219.183C194.901 220.862 189.808 221.2 185 220.141C180.753 219.278 176.732 217.764 173.138 215.674C169.97 213.92 167.386 211.514 165.63 208.685C164.901 207.46 164.418 206.142 164.2 204.784C164.031 203.58 164.08 202.362 164.346 201.171C164.754 199.272 165.749 197.497 167.232 196.025C168.168 195.119 169.345 194.414 170.668 193.966C171.122 193.81 171.593 193.693 172.075 193.616C172.075 193.616 171.585 193.74 170.705 194.059C169.428 194.522 168.294 195.226 167.391 196.117C165.977 197.587 165.034 199.338 164.652 201.202C164.126 203.695 164.595 206.264 165.985 208.51C167.721 211.25 170.243 213.582 173.322 215.293C176.875 217.331 180.841 218.807 185.024 219.647C189.713 220.653 194.666 220.312 199.099 218.679C201.413 217.743 203.461 216.398 205.103 214.737C206.826 213.022 207.949 210.937 208.343 208.716L208.441 208.191L208.894 208.561C212.311 211.376 216.478 213.462 221.049 214.644C225.872 215.915 230.995 216.152 235.955 215.334C238.786 214.898 241.485 213.988 243.891 212.658C245.036 211.977 246.078 211.182 246.997 210.29C247.888 209.392 248.674 208.424 249.345 207.398C251.961 203.281 252.866 198.691 253.747 194.419L253.82 194.007L254.224 194.234C258.375 196.652 262.957 198.501 267.797 199.71C270.057 200.253 272.383 200.578 274.73 200.677C276.961 200.739 279.192 200.563 281.37 200.152C285.36 199.396 289.154 198.039 292.571 196.148C295.555 194.595 298.148 192.563 300.202 190.168C301.84 188.206 303.11 186.043 303.968 183.756C304.631 182.051 305.178 180.315 305.607 178.558C305.986 177.127 306.243 176.016 306.426 175.264L306.634 174.42C306.663 174.331 306.704 174.245 306.756 174.163Z" fill="#FF725E"/>
<path d="M312.943 141.669C313.222 141.662 313.501 141.683 313.774 141.731C314.043 141.731 314.385 141.782 314.777 141.844L316.134 142.122C318.986 142.813 321.63 144.009 323.887 145.632C327.245 148.03 329.948 151.011 331.811 154.37C332.913 156.353 333.785 158.422 334.415 160.546C334.762 161.676 334.946 162.837 334.966 164.004C334.918 165.193 334.791 166.378 334.587 167.555C334.219 169.898 333.327 172.162 331.957 174.225C330.623 176.12 328.852 177.772 326.748 179.083C323.247 181.327 319.26 182.973 315.009 183.931C312.14 184.513 309.19 184.758 306.242 184.662C305.202 184.662 304.395 184.579 303.796 184.538C303.519 184.529 303.244 184.494 302.977 184.435C303.253 184.41 303.532 184.41 303.808 184.435C304.358 184.435 305.153 184.435 306.254 184.435C313.558 184.538 320.677 182.5 326.394 178.671C328.416 177.392 330.12 175.79 331.407 173.957C332.724 171.948 333.583 169.748 333.938 167.473C335.161 162.769 333.205 158.333 331.26 154.617C329.456 151.31 326.843 148.361 323.593 145.961C321.401 144.346 318.843 143.12 316.073 142.359L314.752 142.04L313.762 141.865C313.482 141.822 313.207 141.757 312.943 141.669Z" fill="#FF725E"/>
<path d="M355.581 157.87C355.9 158.252 356.151 158.672 356.327 159.115C356.863 160.309 357.172 161.567 357.244 162.841C357.361 164.744 357.012 166.646 356.217 168.43C355.282 170.642 353.64 172.594 351.472 174.071C350.345 174.815 349.113 175.441 347.804 175.934C346.596 176.416 345.317 176.762 344.001 176.963C341.764 177.327 339.451 177.171 337.312 176.51C335.89 176.05 334.596 175.35 333.509 174.451C333.214 174.211 332.94 173.953 332.69 173.679C332.591 173.591 332.509 173.49 332.445 173.381C332.882 173.654 333.291 173.957 333.668 174.287C334.785 175.099 336.07 175.73 337.459 176.15C339.524 176.729 341.734 176.839 343.866 176.469C345.138 176.263 346.371 175.917 347.535 175.44C348.792 174.963 349.975 174.358 351.057 173.638C353.13 172.219 354.717 170.361 355.654 168.255C356.444 166.54 356.823 164.711 356.767 162.872C356.679 161.163 356.279 159.476 355.581 157.87Z" fill="#FF725E"/>
<path d="M332.446 113.344C331.674 113.187 330.889 113.077 330.098 113.014C329.132 112.971 328.164 113.023 327.212 113.169C325.912 113.405 324.656 113.793 323.483 114.321C320.235 115.814 317.622 118.125 316.011 120.929C313.982 124.161 312.832 128.278 311.78 132.848L311.683 133.291L311.401 132.91C308.71 129.376 305.016 126.462 300.653 124.429C295.666 122.04 289.934 120.985 284.218 121.403C277.856 121.902 271.854 124.111 267.099 127.702C264.529 129.562 262.447 131.85 260.984 134.423C259.397 137.054 259.023 140.086 259.933 142.935L260.52 144.531L259.37 143.172C256.81 140.267 253.457 137.924 249.594 136.34C245.731 134.757 241.472 133.979 237.176 134.073C236.185 134.104 235.196 134.186 234.217 134.32C232.239 134.571 230.307 135.034 228.47 135.699C226.619 136.398 224.871 137.275 223.26 138.314C221.662 139.393 220.207 140.615 218.919 141.957C216.6 144.426 214.865 147.245 213.808 150.264C212.812 153.22 212.537 156.315 213.001 159.362L213.074 159.805L212.573 159.661C208.541 158.446 204.231 158.031 199.978 158.446C195.871 158.887 192.075 160.517 189.242 163.057C187.919 164.294 186.902 165.74 186.251 167.311C185.6 168.882 185.328 170.547 185.451 172.208C185.626 175.434 187.136 178.507 189.718 180.895C192.149 183.175 195.334 184.792 198.865 185.537C202.219 186.185 205.68 186.352 209.1 186.031C212.317 185.824 215.462 185.127 218.381 183.972C221.084 182.897 223.338 181.161 224.85 178.991L225.009 178.754L225.229 178.96C227.377 180.938 230.165 182.344 233.251 183.005C235.989 183.61 238.872 183.578 241.59 182.912C243.944 182.331 246.06 181.212 247.705 179.68C249.081 178.379 250.137 176.86 250.811 175.213C251.784 172.943 251.967 170.486 251.336 168.132C251.078 167.321 250.751 166.526 250.358 165.754L250.701 166.331C251.026 166.897 251.28 167.49 251.459 168.101C252.159 170.484 252.019 172.988 251.055 175.306C250.382 176.983 249.322 178.533 247.937 179.865C246.258 181.451 244.092 182.616 241.676 183.231C238.89 183.927 235.931 183.973 233.116 183.365C229.948 182.697 227.08 181.266 224.862 179.248H225.229C223.678 181.488 221.359 183.282 218.577 184.394C215.611 185.601 212.407 186.337 209.125 186.566C205.64 186.9 202.114 186.736 198.694 186.082C195.054 185.319 191.767 183.66 189.254 181.317C186.584 178.853 185.018 175.683 184.827 172.352C184.699 170.623 184.98 168.891 185.653 167.255C186.327 165.618 187.381 164.111 188.752 162.821C191.689 160.187 195.623 158.495 199.88 158.035C204.231 157.599 208.643 158.018 212.769 159.259L212.328 159.568C211.854 156.441 212.137 153.265 213.16 150.233C214.235 147.141 216.013 144.254 218.394 141.731C219.711 140.353 221.204 139.1 222.845 137.995C224.495 136.927 226.289 136.025 228.188 135.308C230.081 134.623 232.07 134.146 234.107 133.888C235.111 133.754 236.124 133.672 237.139 133.641C238.147 133.618 239.155 133.642 240.16 133.713C244.047 133.963 247.822 134.92 251.226 136.52C254.63 138.119 257.58 140.322 259.872 142.976L259.309 143.203C258.361 140.229 258.753 137.065 260.41 134.32C261.929 131.658 264.09 129.292 266.756 127.373C271.616 123.723 277.743 121.489 284.23 121.001C290.05 120.574 295.885 121.652 300.958 124.089C305.378 126.168 309.11 129.144 311.817 132.745L311.438 132.797C312.502 128.227 313.688 124.079 315.779 120.816C317.447 117.983 320.123 115.659 323.434 114.167C324.63 113.641 325.911 113.267 327.237 113.055C328.205 112.908 329.191 112.866 330.172 112.932C330.768 112.977 331.357 113.07 331.933 113.21C332.263 113.282 332.446 113.344 332.446 113.344Z" fill="#FF725E"/>
<path d="M304.665 157.304C304.67 157.874 304.604 158.443 304.47 159.002C304.221 160.548 303.832 162.076 303.308 163.572C302.58 165.842 301.125 167.9 299.101 169.521C296.414 171.306 293.159 172.38 289.747 172.609C286.357 172.987 282.909 172.586 279.769 171.446C277.216 170.486 275.028 168.95 273.447 167.01C272.375 165.719 271.637 164.253 271.282 162.707C271.181 162.29 271.124 161.867 271.111 161.441C271.078 161.292 271.078 161.138 271.111 160.989C271.111 160.989 271.209 161.596 271.502 162.656C271.956 164.137 272.736 165.534 273.801 166.773C275.383 168.609 277.52 170.055 279.989 170.962C283.044 172.017 286.377 172.372 289.649 171.991C292.932 171.758 296.066 170.733 298.673 169.037C300.635 167.483 302.074 165.519 302.843 163.346C303.397 161.877 303.846 160.382 304.188 158.868C304.307 158.339 304.466 157.816 304.665 157.304Z" fill="#FF725E"/>
<path d="M296.032 102.67C295.565 102.888 295.078 103.074 294.577 103.226C293.623 103.566 292.241 104.07 290.541 104.77C288.482 105.534 286.557 106.531 284.818 107.734C283.812 108.479 283.057 109.434 282.63 110.503C282.382 111.071 282.276 111.675 282.318 112.279C282.36 112.883 282.549 113.473 282.874 114.013L282.348 114.301C280.282 111.882 276.723 110.184 272.823 109.309C268.713 108.308 264.441 107.863 260.166 107.991C256.686 108.204 253.335 109.191 250.457 110.853C248.507 111.98 246.792 113.371 245.382 114.97C244.392 116.102 243.952 116.792 243.891 116.761C243.969 116.584 244.063 116.412 244.172 116.246C244.467 115.76 244.802 115.293 245.175 114.846C246.864 112.768 249.081 111.033 251.665 109.765C254.25 108.498 257.137 107.73 260.117 107.518C262.214 107.392 264.321 107.454 266.403 107.703C268.633 107.937 270.84 108.308 273.006 108.815C276.98 109.741 280.698 111.47 282.862 114.023L282.336 114.311C281.974 113.708 281.765 113.048 281.72 112.373C281.676 111.698 281.798 111.023 282.079 110.39C282.562 109.243 283.408 108.228 284.525 107.456C286.315 106.243 288.304 105.255 290.431 104.523C292.168 103.854 293.586 103.391 294.564 103.102C295.038 102.924 295.529 102.78 296.032 102.67Z" fill="#FF725E"/>
<path d="M185.592 143.759C184.926 143.113 184.378 142.388 183.965 141.607C182.976 139.766 182.502 137.758 182.578 135.739C182.655 133.719 183.28 131.741 184.406 129.956C185.514 128.274 187.113 126.857 189.052 125.839C191.228 124.693 193.716 124.034 196.279 123.924C199.073 123.781 201.853 124.344 204.264 125.54L203.824 125.932C202.392 124.13 201.499 122.065 201.219 119.91C200.525 114.667 202.197 109.395 205.903 105.14C208.876 101.648 213.199 99.1336 218.131 98.028C221.424 97.2713 224.887 97.2007 228.219 97.8222C229.12 97.9847 230.003 98.2084 230.861 98.4912C231.163 98.5802 231.453 98.694 231.729 98.8308C231.729 98.8926 230.506 98.4191 228.17 98.0383C224.08 97.393 219.856 97.7481 215.998 99.0615C212.141 100.375 208.811 102.592 206.404 105.449C202.826 109.614 201.217 114.751 201.892 119.859C202.145 121.924 202.984 123.908 204.338 125.643L205.181 126.673L203.959 126.024C201.657 124.883 199.007 124.339 196.34 124.46C193.877 124.553 191.482 125.173 189.383 126.261C187.507 127.243 185.958 128.61 184.883 130.234C183.957 131.642 183.36 133.186 183.122 134.783C182.763 137.091 183.135 139.438 184.198 141.587C184.956 143.017 185.653 143.728 185.592 143.759Z" fill="#FF725E"/>
<path d="M124.287 157.16C124.287 157.16 124.409 157.16 124.653 157.16C125.015 157.202 125.366 157.292 125.693 157.427C126.927 157.904 127.947 158.701 128.603 159.702C129.114 160.434 129.447 161.244 129.583 162.085C129.72 162.926 129.657 163.781 129.398 164.601C128.723 166.603 127.223 168.336 125.167 169.49C123.12 170.607 120.784 171.296 118.356 171.497C116.407 171.703 114.435 171.703 112.486 171.497C111.159 171.351 109.883 170.969 108.745 170.375C108.323 170.166 107.954 169.89 107.656 169.562C109.104 170.417 110.788 170.946 112.548 171.096C114.459 171.242 116.384 171.197 118.283 170.962C120.599 170.741 122.825 170.075 124.788 169.017C126.718 167.932 128.14 166.317 128.811 164.447C129.31 162.913 129.087 161.276 128.187 159.877C127.607 158.918 126.7 158.126 125.583 157.602C124.788 157.283 124.262 157.221 124.287 157.16Z" fill="#FF725E"/>
<path d="M171.627 234.746C171.269 234.596 170.939 234.402 170.649 234.17C169.822 233.561 169.087 232.87 168.46 232.111C166.353 229.65 165.043 226.77 164.657 223.753C164.422 222.098 164.48 220.423 164.828 218.782C165.122 217.448 165.615 216.152 166.296 214.922C166.787 213.735 167.629 212.673 168.742 211.834C168.549 212.123 168.337 212.401 168.106 212.668C167.564 213.434 167.098 214.236 166.712 215.066C166.102 216.285 165.663 217.56 165.403 218.864C165.107 220.458 165.07 222.079 165.293 223.681C165.669 226.623 166.877 229.447 168.815 231.916C169.67 232.915 170.61 233.861 171.627 234.746Z" fill="#FF725E"/>
<path d="M215.317 221.602C215.749 222.235 216.024 222.936 216.125 223.661C216.47 225.438 216.353 227.257 215.782 228.992C215.216 230.729 214.201 232.338 212.811 233.706C212.278 234.302 211.598 234.794 210.817 235.147C210.744 235.075 211.49 234.519 212.444 233.459C213.675 232.077 214.587 230.513 215.134 228.848C215.676 227.173 215.854 225.43 215.66 223.702C215.502 223.007 215.387 222.307 215.317 221.602Z" fill="#FF725E"/>
<path d="M263.177 209.076C263.408 209.396 263.581 209.742 263.69 210.105C264.079 211.037 264.377 211.994 264.583 212.967C265.268 216.191 265.092 219.502 264.069 222.662C263.031 225.822 261.149 228.741 258.567 231.195C257.791 231.938 256.944 232.626 256.035 233.253C255.723 233.507 255.364 233.716 254.971 233.871C254.898 233.789 256.341 232.842 258.2 230.948C260.621 228.48 262.4 225.612 263.421 222.528C264.419 219.438 264.656 216.209 264.118 213.039C263.702 210.548 263.091 209.107 263.177 209.076Z" fill="#FF725E"/>
<path d="M317.557 194.275C317.557 194.275 317.801 194.512 318.131 195.006C318.597 195.691 319.006 196.403 319.354 197.137C321.816 202.002 322.621 207.347 321.677 212.576C321.54 213.363 321.349 214.143 321.103 214.912C321.042 215.202 320.922 215.48 320.748 215.735C320.638 215.735 320.956 214.5 321.213 212.524C321.877 207.391 321.103 202.198 318.951 197.363C318.119 195.459 317.459 194.347 317.557 194.275Z" fill="#FF725E"/>
<path d="M234.811 76.9381C232.587 75.2551 230.04 73.9013 227.278 72.9343C224.592 71.7367 221.706 70.8866 218.719 70.4125C210.685 69.3833 202.932 73.1401 197.564 77.5248C192.196 81.9095 188.148 87.1382 181.875 90.9053L198.09 90.6789C202.981 90.6068 207.982 90.5245 212.433 89.1144C218.107 87.3338 222.424 82.9388 228.587 82.4447C231.976 82.3611 235.36 82.7081 238.626 83.474C238.24 81.0023 236.899 78.7059 234.811 76.9381ZM218.401 82.3212C217.966 82.5381 217.46 82.6319 216.958 82.5888C216.552 82.5458 216.141 82.5458 215.735 82.5888C214.757 82.7535 214.255 83.6798 213.436 84.1533C213.103 84.3552 212.708 84.4722 212.298 84.4904C211.889 84.5087 211.481 84.4274 211.125 84.2562C210.774 84.0659 210.508 83.7821 210.371 83.4501C210.233 83.1181 210.232 82.7569 210.367 82.4241C210.529 82.1354 210.758 81.8765 211.039 81.6625C211.743 81.0988 212.575 80.6611 213.485 80.3759C214.025 80.0142 214.667 79.7766 215.348 79.6864C216.03 79.5962 216.728 79.6564 217.374 79.8612C218.205 80.0671 219.11 80.5303 219.159 81.2816C219.136 81.4868 219.055 81.6844 218.923 81.858C218.791 82.0316 218.612 82.1763 218.401 82.28V82.3212Z" fill="#78C492"/>
<path d="M201.453 82.548C201.453 82.548 201.808 82.3833 202.456 82.0334C203.104 81.6834 204.009 81.1173 205.134 80.3454C206.259 79.5734 207.579 78.5544 209.218 77.4634C211.128 76.251 213.306 75.3726 215.626 74.8799C216.973 74.5962 218.358 74.4613 219.747 74.4785C221.245 74.5187 222.734 74.6982 224.185 75.0137C227.391 75.7177 230.411 76.9223 233.088 78.5647C236.055 80.3683 238.587 82.632 240.547 85.2344C242.664 87.9982 244.369 90.9712 245.621 94.0861C248.275 100.457 249.534 106.798 251.002 112.459C252.469 118.12 253.655 123.266 254.67 127.579C255.685 131.891 256.541 135.319 257.116 137.779C257.385 138.952 257.593 139.837 257.752 140.558C257.752 140.846 257.862 141.083 257.899 141.288C257.907 141.371 257.907 141.453 257.899 141.535C257.851 141.462 257.818 141.382 257.801 141.299L257.581 140.578L256.822 137.82C256.187 135.37 255.282 131.912 254.169 127.661C253.056 123.41 251.723 118.243 250.305 112.572C248.886 106.901 247.529 100.581 244.9 94.2714C242.271 87.962 238.272 82.3216 232.672 78.9867C230.063 77.369 227.119 76.1752 223.99 75.4666C221.279 74.8071 218.414 74.7363 215.662 75.2608C213.4 75.7155 211.265 76.5371 209.377 77.6795C207.738 78.7088 206.406 79.7381 205.232 80.4792C204.35 81.0658 203.423 81.6022 202.456 82.0848C202.205 82.2137 201.943 82.3272 201.673 82.4245L201.453 82.548Z" fill="#263238"/>
<path d="M274.178 96.8754C273.636 98.094 273.411 99.3964 273.518 100.694C273.626 101.992 274.063 103.256 274.801 104.399C276.391 106.53 279.24 107.631 281.857 108.784C285.904 110.55 289.741 112.639 293.315 115.021C294.085 113.642 293.498 111.995 292.85 110.565C292.288 109.319 291.701 108.084 291.077 106.859C289.5 103.772 287.629 100.622 284.535 98.5326C281.441 96.4431 277.443 94.9816 274.178 96.8754Z" fill="#78C492"/>
<path d="M283.428 103.174C283.428 103.174 282.988 102.701 282.205 101.878C281.063 100.723 279.761 99.6864 278.329 98.7898C276.212 97.4585 273.738 96.5855 271.126 96.2475C267.938 95.8322 264.68 96.4144 261.967 97.884C259.368 99.5006 257.305 101.652 255.976 104.132C254.791 106.128 253.774 108.192 252.931 110.307C252.349 111.733 251.967 113.212 251.794 114.713C251.683 115.742 251.72 116.37 251.659 116.37C251.602 116.231 251.573 116.085 251.573 115.937C251.538 115.523 251.538 115.107 251.573 114.692C251.652 113.161 251.969 111.646 252.515 110.184C253.308 108.021 254.293 105.912 255.462 103.874C256.794 101.301 258.901 99.0659 261.576 97.39C264.421 95.8357 267.855 95.237 271.2 95.7123C273.88 96.0852 276.404 97.0236 278.537 98.4398C279.974 99.3822 281.249 100.487 282.327 101.723C282.623 102.053 282.897 102.397 283.147 102.752C283.367 103.03 283.452 103.164 283.428 103.174Z" fill="#263238"/>
<path d="M180.37 149.708C179.73 149.205 178.964 148.831 178.128 148.613C177.292 148.395 176.408 148.339 175.543 148.448C174.677 148.558 173.852 148.831 173.13 149.247C172.407 149.663 171.806 150.211 171.371 150.85C170.819 151.912 170.496 153.048 170.417 154.205C170.227 155.059 170.227 155.935 170.417 156.789C170.595 157.203 170.742 157.626 170.857 158.055C170.9 158.584 170.821 159.115 170.625 159.619C170.296 160.443 170.115 161.303 170.087 162.172C170.076 162.606 170.198 163.035 170.44 163.419C170.681 163.803 171.035 164.128 171.468 164.364C171.86 164.47 172.222 164.642 172.532 164.869C172.766 165.174 172.874 165.536 172.838 165.898C172.838 167.298 172.923 168.698 172.96 170.097C174.102 169.395 174.988 168.438 175.517 167.333C176.047 166.229 176.199 165.023 175.956 163.85C175.723 163.146 175.568 162.426 175.491 161.699C175.491 160.103 176.971 158.683 176.812 157.087C176.653 155.492 175.173 154.452 174.819 152.97C174.691 152.411 174.736 151.833 174.951 151.292C175.165 150.751 175.54 150.266 176.042 149.883C176.564 149.515 177.197 149.277 177.871 149.195C178.545 149.113 179.233 149.191 179.857 149.419" fill="#78C492"/>
<path d="M247.928 104.07C247.266 103.293 246.374 102.675 245.342 102.277C244.309 101.878 243.171 101.713 242.04 101.797C240.908 101.881 239.822 102.212 238.889 102.757C237.955 103.301 237.206 104.041 236.715 104.903C236.293 105.937 235.704 106.917 234.967 107.816C233.389 109.278 230.442 109.041 228.852 110.482C228.323 110.998 227.946 111.611 227.752 112.273C227.345 113.465 227.235 114.714 227.429 115.943C227.622 117.173 228.115 118.355 228.877 119.416C229.99 120.929 231.677 122.205 232.166 123.955C232.79 126.22 231.31 128.958 233.022 130.748C235.017 129.008 236.399 126.836 237.016 124.474C237.634 122.112 237.462 119.653 236.52 117.368C236.209 116.81 236.042 116.203 236.03 115.587C236.251 113.529 239.931 113.385 241.435 111.748C242.536 110.554 242.242 108.846 242.304 107.322C242.365 105.799 243.355 103.946 245.128 104.029C246.351 104.029 247.696 104.955 248.479 104.193" fill="#78C492"/>
<path d="M277.26 151.745C276.722 152.507 276.184 153.516 276.82 154.226C277.101 154.545 277.553 154.72 277.859 155.019C278.556 155.739 278.128 156.809 277.761 157.684C277.394 158.559 277.284 159.743 278.238 160.206C278.813 160.453 279.461 160.288 280.121 160.36C280.673 160.462 281.179 160.695 281.58 161.03C281.981 161.366 282.259 161.79 282.383 162.254C282.624 163.192 282.657 164.158 282.481 165.105C284.303 164.323 284.817 162.306 284.927 160.556C285.085 159.704 284.834 158.834 284.23 158.137C283.936 157.88 283.57 157.715 283.301 157.437C282.628 156.737 282.946 155.708 283.215 154.833C283.484 153.958 283.557 152.775 282.665 152.342C282.065 152.034 281.173 152.126 280.769 151.643C280.182 150.943 281.442 149.965 280.525 149.584" fill="#78C492"/>
<path d="M317.735 159.465C316.566 156.569 314.546 153.97 311.863 151.907C309.18 149.845 305.921 148.387 302.389 147.67C299.479 147.124 296.275 147.176 293.768 148.617L293.193 148.802C292.79 152.013 292.472 155.523 294.575 158.189C297.913 162.43 305.58 162.409 309.396 166.372C312.171 169.285 312.037 173.577 314.018 176.901C316.293 174.476 317.823 171.617 318.472 168.575C319.12 165.534 318.867 162.405 317.735 159.465ZM300.995 156.377C300.842 156.819 300.519 157.205 300.075 157.473C299.632 157.742 299.095 157.878 298.549 157.86C298.01 157.814 297.495 157.644 297.064 157.368C296.632 157.092 296.3 156.721 296.104 156.295C295.908 155.86 295.824 155.394 295.858 154.929C295.891 154.464 296.042 154.011 296.299 153.598L296.421 153.794C296.915 153.538 297.486 153.408 298.065 153.418C298.645 153.428 299.209 153.578 299.689 153.851C300.17 154.123 300.548 154.506 300.777 154.954C301.007 155.402 301.078 155.896 300.983 156.377H300.995Z" fill="#6DBD60"/>
<path d="M310.424 160.865C310.254 160.722 310.11 160.559 309.996 160.381L308.871 158.92C307.52 157.131 305.972 155.453 304.249 153.907C301.542 151.753 298.325 150.104 294.809 149.069C292.769 148.405 290.612 148.03 288.426 147.958C286.092 147.91 283.784 148.382 281.737 149.327C277.494 151.303 274.632 154.535 272.334 157.468C270.289 160.104 268.533 162.891 267.088 165.795C266.136 167.758 265.319 169.764 264.642 171.806C264.141 173.257 263.921 174.07 263.859 174.06C263.861 173.855 263.894 173.651 263.957 173.453C264.031 173.062 264.177 172.485 264.385 171.755C264.993 169.678 265.769 167.638 266.709 165.651C268.098 162.698 269.822 159.865 271.857 157.19C274.168 154.216 277.054 150.891 281.468 148.833C283.616 147.842 286.039 147.351 288.487 147.412C290.743 147.488 292.967 147.885 295.066 148.586C298.651 149.668 301.917 151.388 304.64 153.629C306.349 155.208 307.857 156.933 309.14 158.775C309.593 159.424 309.935 159.938 310.155 160.288C310.279 160.468 310.37 160.662 310.424 160.865Z" fill="#263238"/>
<path d="M216.453 183.705C216.551 183.766 216.649 183.838 216.747 183.89L217.089 183.808L216.453 183.705Z" fill="#455A64"/>
<path d="M223.223 208.417C223.052 206.699 222.636 205 222.563 203.271C222.416 199.864 223.615 196.468 223.211 193.081C222.984 191.247 222.289 189.476 221.172 187.89C220.056 186.303 218.544 184.939 216.742 183.89C213.958 184.617 211.392 185.839 209.217 187.472C207.043 189.106 205.309 191.113 204.135 193.359C202.951 195.692 202.371 198.21 202.434 200.747C202.498 203.283 203.202 205.779 204.502 208.067C205.725 210.126 207.363 212.02 207.571 214.243C207.779 216.466 206.458 218.607 206.031 220.83C205.162 225.359 207.963 229.744 210.665 233.696C210.512 232.606 210.626 231.501 211 230.449C211.375 229.398 212.001 228.422 212.842 227.582C214.395 225.843 216.376 224.412 218.026 222.745C221.872 218.705 223.732 213.577 223.223 208.417ZM218.332 202.19C218.05 202.569 217.653 202.878 217.183 203.086C216.951 203.187 216.69 203.233 216.429 203.219C216.168 203.204 215.917 203.13 215.703 203.003C215.437 202.788 215.232 202.524 215.104 202.231C214.857 201.793 214.641 201.343 214.456 200.883C214.109 199.91 214.05 198.88 214.282 197.883C214.514 196.886 215.031 195.952 215.789 195.16V195.099C216.237 195.079 216.685 195.149 217.095 195.303C217.505 195.457 217.866 195.69 218.149 195.984C219.039 196.838 219.53 197.935 219.53 199.072C219.525 200.191 219.106 201.281 218.332 202.19Z" fill="#68B181"/>
<path d="M210.813 200.904C210.781 200.692 210.781 200.477 210.813 200.265C210.813 199.843 210.96 199.236 211.082 198.444C211.45 196.213 211.96 194 212.611 191.815C213.54 188.548 215.022 185.411 217.013 182.5C219.429 178.868 223.049 175.907 227.431 173.978C229.638 173.033 232.055 172.487 234.528 172.375C237 172.263 239.473 172.588 241.787 173.329C245.464 174.759 248.499 177.143 250.445 180.133C251.782 182.089 252.927 184.134 253.869 186.247C254.199 186.988 254.456 187.575 254.615 187.966C254.714 188.164 254.783 188.371 254.823 188.583C254.681 188.405 254.57 188.211 254.493 188.007C254.26 187.575 253.979 186.978 253.624 186.329C252.607 184.261 251.409 182.259 250.041 180.339C248.104 177.463 245.133 175.178 241.555 173.813C239.319 173.112 236.933 172.809 234.55 172.924C232.168 173.039 229.839 173.57 227.713 174.482C223.46 176.356 219.93 179.213 217.539 182.716C215.555 185.583 214.049 188.665 213.063 191.877C212.183 194.604 211.694 196.879 211.339 198.433C211.18 199.174 211.058 199.771 210.948 200.235C210.93 200.461 210.885 200.685 210.813 200.904Z" fill="#263238"/>
<path d="M151.254 135.668C147.388 136.415 143.781 137.909 140.719 140.031C137.656 142.153 135.222 144.846 133.609 147.896C132.024 151.004 131.297 154.373 131.481 157.751C131.665 161.129 132.756 164.428 134.672 167.401C136.763 164.879 137.852 161.863 139.564 159.167C141.276 156.47 143.807 153.794 147.329 153.166C150.276 152.651 153.174 152.641 156.096 152.044C159.278 151.415 162.076 149.826 163.959 147.577C166.05 145.22 168.789 143.913 170.88 141.566C166.723 136.286 158.432 134.382 151.254 135.668ZM142.511 150.078C142.388 150.318 142.194 150.527 141.948 150.685C141.671 150.829 141.343 150.888 141.02 150.852C140.698 150.817 140.399 150.689 140.175 150.49C139.956 150.279 139.807 150.024 139.743 149.749C139.678 149.474 139.701 149.19 139.808 148.925C139.967 148.503 140.407 148.112 140.909 148.195L140.725 148.452C140.824 148.337 140.954 148.244 141.103 148.179C141.253 148.115 141.419 148.081 141.588 148.081C141.756 148.081 141.922 148.115 142.072 148.179C142.221 148.244 142.351 148.337 142.45 148.452C142.63 148.694 142.73 148.972 142.741 149.258C142.752 149.544 142.672 149.827 142.511 150.078ZM157.441 147.536C156.538 148.479 155.254 149.109 153.834 149.306C152.437 149.484 151.014 149.456 149.628 149.224C148.984 149.174 148.37 148.975 147.854 148.647C147.554 148.407 147.348 148.094 147.265 147.752C147.182 147.409 147.225 147.054 147.39 146.733C147.448 146.616 147.546 146.516 147.671 146.445C147.828 146.374 148.009 146.348 148.185 146.373C149.31 146.525 150.464 146.404 151.511 146.023C152.261 145.538 152.899 144.941 153.394 144.263C153.8 143.789 154.367 143.43 155.02 143.233C154.939 143.247 154.856 143.247 154.776 143.233H155.314C155.431 143.218 155.551 143.218 155.668 143.233C155.865 143.189 156.065 143.158 156.267 143.141C156.635 143.161 156.989 143.269 157.288 143.451C157.586 143.633 157.818 143.882 157.955 144.17C158.223 144.721 158.316 145.32 158.226 145.91C158.136 146.5 157.866 147.06 157.441 147.536Z" fill="#68B181"/>
<path d="M145.703 144.16C145.828 144.029 145.972 143.912 146.131 143.81C146.556 143.489 147.001 143.186 147.464 142.904C149.194 141.881 151.088 141.07 153.089 140.496C156.071 139.637 159.226 139.287 162.37 139.467C166.241 139.637 169.997 140.628 173.29 142.349C176.525 144.123 179.28 146.452 181.373 149.183C183.068 151.396 184.501 153.744 185.653 156.192C186.631 158.251 187.304 160.001 187.719 161.195C187.939 161.792 188.086 162.224 188.184 162.584C188.245 162.745 188.286 162.91 188.306 163.078C187.978 162.492 187.7 161.886 187.475 161.267C186.986 160.093 186.252 158.395 185.212 156.347C184.022 153.945 182.564 151.643 180.859 149.471C178.793 146.817 176.095 144.553 172.935 142.822C169.734 141.153 166.092 140.177 162.334 139.981C159.259 139.797 156.172 140.108 153.236 140.897C150.546 141.664 148.008 142.764 145.703 144.16Z" fill="#263238"/>
<path d="M336.347 121.279C338.103 122.211 340.059 122.842 342.105 123.137C344.151 123.432 346.245 123.385 348.269 122.998C351.644 122.339 354.934 120.713 358.345 121.218C360.987 121.598 363.237 123.225 365.939 123.276C369.608 123.389 372.628 120.621 376.284 120.302C378.73 120.075 381.175 121.032 383.438 121.959C384.086 119.715 382.141 117.595 380.344 115.886C376.675 112.458 372.726 108.846 367.468 107.796C361.671 106.643 355.716 108.825 349.761 108.825C348.37 108.742 346.972 108.784 345.591 108.949C343.305 109.371 341.446 110.781 339.722 112.139C338.081 113.209 336.814 114.631 336.053 116.256C335.515 117.8 335.907 119.478 335.43 121.032" fill="#68B181"/>
<path d="M371.155 115.464C371.155 115.464 370.213 115.217 368.513 114.857C366.114 114.337 363.653 114.047 361.176 113.992C357.498 113.904 353.825 114.282 350.281 115.114C345.928 116.116 341.798 117.708 338.053 119.828C331.303 123.762 325.537 128.774 321.08 134.577C319.655 136.291 318.48 138.144 317.583 140.094C316.984 141.484 316.837 142.297 316.776 142.287C316.766 142.086 316.787 141.886 316.837 141.69C316.957 141.125 317.125 140.568 317.338 140.022C318.152 138.019 319.279 136.115 320.689 134.361C325.077 128.434 330.862 123.327 337.686 119.355C341.491 117.211 345.688 115.608 350.11 114.61C353.694 113.794 357.406 113.447 361.115 113.58C363.626 113.666 366.115 114.011 368.526 114.61C369.178 114.771 369.819 114.964 370.445 115.186C370.698 115.246 370.937 115.34 371.155 115.464Z" fill="#263238"/>
<path d="M468.164 361.017L474.143 379.883C474.143 379.883 453.355 391.329 454.065 394.9L497.878 386.46L490.016 356.745L468.164 361.017Z" fill="#F8E5BC"/>
<path d="M487.267 375.663C487.719 375.691 488.143 375.857 488.458 376.13C488.774 376.403 488.959 376.765 488.979 377.145C488.964 377.527 488.775 377.889 488.452 378.157C488.129 378.425 487.696 378.579 487.243 378.586C486.763 378.556 486.314 378.377 485.982 378.085C485.65 377.792 485.459 377.406 485.445 377.001C485.512 376.606 485.759 376.248 486.133 376.002C486.507 375.757 486.979 375.643 487.451 375.684" fill="#E0E0E0"/>
<g opacity="0.6">
<path d="M497.879 386.461L496.95 383.496L455.239 392.688C455.239 392.688 453.478 393.779 454.016 394.89L497.879 386.461Z" fill="white"/>
</g>
<path d="M473.424 379.822C473.485 379.997 474.573 379.873 475.784 380.254C476.994 380.635 477.765 381.283 477.948 381.17C478.132 381.057 477.52 380.079 476.041 379.647C474.561 379.215 473.289 379.668 473.424 379.822Z" fill="#263238"/>
<path d="M469.212 382.302C469.212 382.487 470.227 382.621 471.156 383.239C472.085 383.856 472.526 384.628 472.733 384.587C472.941 384.546 472.807 383.486 471.621 382.735C470.435 381.983 469.175 382.138 469.212 382.302Z" fill="#263238"/>
<path d="M467.854 387.449C468.062 387.449 468.123 386.491 467.303 385.606C466.484 384.721 465.371 384.526 465.323 384.69C465.274 384.855 466.044 385.267 466.692 385.997C467.34 386.728 467.646 387.469 467.854 387.449Z" fill="#263238"/>
<path d="M472.584 375.427C472.718 375.571 473.636 375.139 474.871 374.974C476.106 374.809 477.133 374.974 477.194 374.768C477.255 374.562 476.179 374.13 474.748 374.336C473.318 374.542 472.449 375.272 472.584 375.427Z" fill="#263238"/>
<path d="M418.609 137.181L396.781 201.737L413.925 204.557L425.249 172.012L418.609 137.181Z" fill="#F5F5F5"/>
<path d="M418.601 137.181C418.981 139.106 421.414 151.344 425.51 171.971V172.074C422.233 181.522 418.381 192.659 414.236 204.629L414.15 204.877L413.857 204.825L406.52 203.621L396.737 202.015L396.383 201.953L396.481 201.665C402.656 183.396 408.269 167.185 412.267 155.636C416.107 144.5 418.173 138.509 418.626 137.181C418.173 138.53 416.18 144.644 412.39 155.996C408.538 167.638 403.243 183.704 397.129 201.82L396.872 201.47L406.655 203.075L413.991 204.28L413.612 204.475C417.794 192.515 421.683 181.378 424.972 171.95V172.053C421.194 151.375 418.956 139.116 418.601 137.181Z" fill="#E0E0E0"/>
<path d="M517.73 247.993C517.73 247.993 516.153 253.407 506.908 254.456C479.053 257.616 462.508 275.392 462.508 275.392L469.759 255.589L496.588 239.851L513.707 244.39L517.73 247.993Z" fill="#E0E0E0"/>
<path d="M480.569 294.629C475.922 278.984 472.596 270.585 472.596 270.585C472.596 270.585 473.122 203.95 472.596 198.413C471.312 185.032 462.361 169.696 461.2 167.74L417.031 176.458L419.868 194.985L430.984 276.442L469.209 369.652L495.439 366.225C495.439 366.225 485.216 310.274 480.569 294.629Z" fill="#263238"/>
<path d="M439.182 94.4357L440.796 94.7445L457.182 97.8323C457.182 97.8323 460.667 133.033 461.254 137.428C461.841 141.823 454.577 150.634 454.577 150.634C454.577 150.634 461.254 154.051 463.052 158.456C464.849 162.862 463.052 170.355 463.052 170.355L453.037 177.807C448.96 180.866 444.077 183.064 438.791 184.219L418.003 188.738C418.003 188.738 415.557 150.335 409.235 134.948C405.004 124.655 416.572 102.618 416.572 102.618L430.879 94.3843" fill="#F8E5BC"/>
<path d="M429.108 130.46C425.718 130.882 422.3 131.12 418.873 131.17C415.457 131.406 412.026 131.454 408.602 131.315C411.991 130.892 415.41 130.655 418.837 130.604C422.253 130.375 425.684 130.327 429.108 130.46Z" fill="white"/>
<path d="M432.122 150.017C429.148 150.545 426.132 150.889 423.098 151.046C420.082 151.375 417.041 151.523 414 151.488C416.978 150.957 419.998 150.613 423.037 150.459C426.048 150.127 429.085 149.979 432.122 150.017Z" fill="white"/>
<path d="M436.021 171.775C435.229 172.228 434.358 172.575 433.44 172.805C429.102 174.14 424.47 174.663 419.867 174.338C418.909 174.324 417.96 174.182 417.055 173.916C420.262 173.998 423.473 173.905 426.666 173.638C431.936 173.062 435.947 171.631 436.021 171.775Z" fill="white"/>
<path d="M412.385 83.114C409.597 82.023 407.848 79.6145 406.821 77.1751C405.794 74.7357 405.317 72.1317 404.18 69.7335C403.324 67.9323 404.266 65.0812 402.346 64.0107C399.9 62.6727 399.973 59.132 400.903 57.3719C401.906 55.4472 404.645 54.0165 404.828 53.399C405.317 51.8036 403.605 50.0744 404.266 48.4996C405.709 44.8148 409.279 45.2986 409.279 45.2986C410.906 43.6415 413.107 41.4491 416.616 40.6669C420.492 39.8332 426.191 39.2053 429.639 40.9139C433.087 42.6225 435.619 43.7547 436.731 46.9866" fill="#263238"/>
<path d="M442.175 51.505C443.154 51.5949 444.058 51.9904 444.707 52.6135C445.357 53.2365 445.706 54.0419 445.685 54.8707L443.337 99.5822C443.239 104.862 434.08 107.816 427.367 107.693C420.58 107.559 420.372 104.759 420.287 99.7469C420.14 91.3584 420.152 88.2088 420.152 88.2603C420.152 88.3117 411.592 87.0457 409.844 77.6382C408.976 72.955 409.269 65.2869 409.758 59.0187C410.186 53.3783 414.65 46.4616 421.326 47.0689L442.175 51.505Z" fill="#D38D6E"/>
<path d="M411.938 65.3999C411.928 65.7186 412.067 66.0278 412.326 66.2608C412.584 66.4938 412.941 66.6319 413.32 66.6453C413.677 66.6712 414.033 66.5778 414.31 66.3853C414.586 66.1928 414.762 65.9166 414.799 65.616C414.803 65.3008 414.661 64.9969 414.403 64.7683C414.145 64.5397 413.792 64.4045 413.418 64.3912C413.064 64.3649 412.712 64.4555 412.436 64.6437C412.159 64.8319 411.981 65.103 411.938 65.3999Z" fill="#263238"/>
<path d="M411.717 62.9709C411.9 63.1355 412.939 62.4562 414.529 62.4665C416.119 62.4768 417.195 63.1252 417.366 62.9606C417.537 62.7959 417.268 62.6106 416.779 62.3018C416.112 61.9111 415.317 61.7059 414.505 61.7151C413.703 61.7119 412.92 61.9207 412.267 62.3121C411.802 62.6209 411.631 62.8988 411.717 62.9709Z" fill="#263238"/>
<path d="M426.829 65.4003C426.818 65.7139 426.953 66.0187 427.203 66.2509C427.454 66.483 427.802 66.6245 428.174 66.6457C428.532 66.6743 428.889 66.582 429.167 66.389C429.444 66.1959 429.619 65.918 429.653 65.6164C429.657 65.3012 429.515 64.9973 429.257 64.7687C428.999 64.5401 428.646 64.4049 428.272 64.3916C427.924 64.3736 427.581 64.468 427.313 64.6554C427.045 64.8428 426.872 65.1092 426.829 65.4003Z" fill="#263238"/>
<path d="M426.873 63.2385C427.044 63.4032 428.096 62.7239 429.673 62.7342C431.251 62.7445 432.351 63.3929 432.522 63.2282C432.693 63.0635 432.424 62.8783 431.923 62.5798C431.262 62.1855 430.471 61.9767 429.661 61.9828C428.859 61.9775 428.075 62.1865 427.423 62.5798C426.958 62.8886 426.787 63.1768 426.873 63.2385Z" fill="#263238"/>
<path d="M421.252 72.821C420.44 72.5984 419.597 72.4669 418.745 72.4299C418.354 72.4299 417.987 72.327 417.913 72.1005C417.871 71.7421 417.965 71.3816 418.182 71.0712C418.561 70.2684 418.941 69.4347 419.405 68.5495C420.49 66.413 421.369 64.2067 422.034 61.9519C420.75 64.0099 419.662 66.1507 418.782 68.354C418.39 69.2391 418.011 70.0831 417.657 70.8963C417.411 71.2954 417.338 71.7536 417.449 72.1931C417.505 72.3107 417.592 72.4156 417.705 72.4996C417.817 72.5836 417.951 72.6443 418.097 72.6769C418.316 72.7259 418.542 72.7535 418.769 72.7592C419.591 72.8638 420.424 72.8845 421.252 72.821Z" fill="#263238"/>
<path d="M420.148 88.2604C425.408 88.3373 430.59 87.1827 435.116 84.9255C435.116 84.9255 431.325 91.554 420.148 90.6586V88.2604Z" fill="#B26746"/>
<path d="M421.893 75.9912C422.182 75.686 422.557 75.4468 422.984 75.2957C423.412 75.1447 423.877 75.0865 424.339 75.1266C424.678 75.1526 425.009 75.2363 425.309 75.3725C425.61 75.5087 425.874 75.6946 426.087 75.9191C426.293 76.1352 426.414 76.3998 426.434 76.6763C426.454 76.9529 426.371 77.2278 426.197 77.463C425.951 77.6964 425.627 77.8622 425.267 77.9393C424.908 78.0163 424.529 78.001 424.18 77.8953C423.449 77.6645 422.78 77.3148 422.211 76.866C422.04 76.7603 421.892 76.6316 421.771 76.4852C421.716 76.4128 421.687 76.329 421.688 76.2433C421.687 76.1577 421.716 76.0738 421.771 76.0014" fill="#B26746"/>
<path d="M425.736 73.768C425.492 73.768 425.48 75.1576 424.049 76.156C422.618 77.1543 420.833 77 420.821 77.1852C420.808 77.3705 421.212 77.4528 421.97 77.4734C422.948 77.4846 423.899 77.2079 424.66 76.6912C425.031 76.4393 425.338 76.1272 425.563 75.7736C425.787 75.42 425.925 75.032 425.969 74.6326C426.091 74.1077 425.895 73.7578 425.736 73.768Z" fill="#263238"/>
<path d="M426.283 58.9261C426.43 59.2761 427.971 59.1114 429.78 59.2967C431.59 59.482 433.045 59.904 433.29 59.5849C433.4 59.4408 433.143 59.1114 432.556 58.7615C431.773 58.3345 430.88 58.07 429.952 57.9895C429.026 57.8923 428.087 57.9841 427.213 58.2571C426.552 58.4836 426.21 58.7615 426.283 58.9261Z" fill="#263238"/>
<path d="M411.402 59.4408C411.671 59.7393 412.735 59.4408 414.019 59.4408C415.303 59.4408 416.379 59.6467 416.624 59.3379C416.734 59.1938 416.562 58.8953 416.098 58.6174C415.466 58.2728 414.723 58.1003 413.97 58.1234C413.219 58.1293 412.49 58.3386 411.891 58.7204C411.439 58.988 411.292 59.2865 411.402 59.4408Z" fill="#263238"/>
<path d="M436.031 46.3278C436.037 47.2726 435.796 48.2069 435.323 49.0641C434.851 49.9212 434.16 50.6801 433.299 51.2866C432.439 51.8931 431.429 52.3323 430.344 52.5729C429.258 52.8135 428.123 52.8495 427.019 52.6784C425.307 52.4211 423.436 51.6491 421.957 52.4622C420.477 53.2753 420.343 55.231 418.961 56.2396C416.992 57.6806 413.862 56.3323 411.367 56.9601C409.435 57.4336 408.225 59.0187 406.941 60.295C405.657 61.5713 403.737 62.8476 401.805 62.3535C401.858 60.8886 402.116 59.4341 402.575 58.0203C403.033 56.5938 404.067 55.3458 405.498 54.4899C406.292 54.0473 407.222 53.7797 407.943 53.2753C409.545 52.1843 409.912 50.2905 410.902 48.7671C411.555 47.7902 412.474 46.9579 413.584 46.3387C414.694 45.7195 415.962 45.3312 417.286 45.2059C419.487 45.0206 421.749 45.5764 423.889 45.1132C425.479 44.7839 426.86 43.9193 428.462 43.662C431.593 43.1576 434.491 45.0515 436.765 46.9247" fill="#263238"/>
<path d="M441.917 66.7074C442.184 66.7961 442.405 66.961 442.542 67.1734C442.679 67.3857 442.723 67.6319 442.666 67.8688C442.61 68.1057 442.455 68.3182 442.231 68.469C442.007 68.6199 441.727 68.6995 441.44 68.6939C437.686 69.4144 437.196 63.2388 438.028 61.489C436.626 60.5069 435.374 59.3834 434.298 58.1439C433.103 56.1666 432.51 53.9701 432.574 51.7521C431.217 51.8242 425.457 50.2185 426.069 50.0744C427.475 49.7347 430.336 48.9731 431.095 47.9438C431.849 46.8443 432.935 45.9321 434.242 45.2995C435.55 44.6668 437.033 44.3363 438.542 44.3414C440.062 44.4443 441.502 44.9577 442.648 45.8053C443.794 46.6528 444.584 47.7892 444.9 49.0451C446.728 49.0982 448.504 49.5663 450.041 50.3998C451.578 51.2333 452.818 52.4012 453.631 53.7798C454.482 55.228 454.898 56.8298 454.842 58.4448C454.787 60.0598 454.262 61.6387 453.313 63.0432C452.709 63.7071 452.318 64.4903 452.176 65.3179C452.176 66.3472 453.081 67.1912 453.729 68.0558C454.546 69.3008 454.997 70.6926 455.044 72.1144C455.091 73.5363 454.732 74.9469 453.998 76.2282C452.628 78.8013 451.662 79.6968 449.718 80.2217C445.903 81.251 450.33 87.828 443.983 87.828" fill="#263238"/>
<path d="M441.765 69.2908C441.786 68.8291 441.946 68.3793 442.228 67.9831C442.511 67.5869 442.908 67.2571 443.382 67.0242C443.856 66.7913 444.392 66.6628 444.941 66.6506C445.49 66.6384 446.033 66.7429 446.522 66.9544C447.647 67.5102 448.515 68.6115 448.405 70.7421C448.136 76.4031 441.435 75.0033 441.422 74.8592C441.41 74.7151 441.63 71.6376 441.765 69.2908Z" fill="#D38D6E"/>
<path d="M443.6 72.7595C443.6 72.7595 443.71 72.8418 443.906 72.9242C444.189 73.0162 444.503 73.0162 444.786 72.9242C445.233 72.7087 445.602 72.3964 445.856 72.0198C446.109 71.6432 446.238 71.2162 446.229 70.7833C446.272 70.2962 446.185 69.8072 445.973 69.3526C445.919 69.1739 445.814 69.0091 445.667 68.8726C445.52 68.7362 445.335 68.6324 445.129 68.5704C444.997 68.5336 444.853 68.5383 444.725 68.5838C444.597 68.6292 444.493 68.7122 444.432 68.8174C444.334 68.9718 444.371 69.085 444.334 69.0953C444.297 69.1056 444.187 68.9924 444.261 68.7659C444.297 68.6231 444.398 68.4977 444.542 68.416C444.73 68.3051 444.963 68.2608 445.19 68.2925C445.473 68.3424 445.735 68.4544 445.949 68.6171C446.164 68.7798 446.324 68.9874 446.413 69.2188C446.676 69.7162 446.79 70.2607 446.743 70.8039C446.753 71.3101 446.584 71.8075 446.257 72.2327C445.931 72.6579 445.461 72.9918 444.909 73.1918C444.726 73.232 444.536 73.2362 444.351 73.204C444.166 73.1719 443.993 73.1043 443.845 73.0065C443.613 72.9036 443.576 72.8212 443.6 72.7595Z" fill="#B26746"/>
<path d="M451.756 64.8857C451.756 64.8857 451.976 64.5769 452.294 63.9799C452.721 63.1492 452.925 62.2496 452.893 61.345C452.85 60.0072 452.233 58.7277 451.157 57.7425C450.547 57.1593 449.802 56.6865 448.968 56.353C448.048 56.0163 447.06 55.8312 446.058 55.8075C443.979 55.7251 441.949 55.9928 440.078 55.8075C438.424 55.6583 436.848 55.1356 435.517 54.2945C434.624 53.733 433.865 53.0346 433.279 52.2359C433.045 51.9546 432.872 51.6411 432.766 51.3096C433.526 52.3813 434.532 53.3154 435.725 54.0577C437.024 54.835 438.541 55.3139 440.127 55.4472C441.925 55.6119 443.93 55.334 446.082 55.4472C447.149 55.4721 448.2 55.6714 449.176 56.0339C450.078 56.3822 450.882 56.8874 451.536 57.5161C452.475 58.3984 453.071 59.5015 453.244 60.6772C453.416 61.8528 453.157 63.0448 452.502 64.0931C452.322 64.3982 452.068 64.6682 451.756 64.8857Z" fill="#455A64"/>
<path d="M451.751 52.3284C450.912 51.9107 449.961 51.6772 448.987 51.6491C447.937 51.6409 446.893 51.7908 445.906 52.0917C444.768 52.4004 443.558 52.8739 442.237 53.2342C440.951 53.6007 439.579 53.6996 438.238 53.5223C437.142 53.3605 436.097 53.0101 435.169 52.4931C434.549 52.157 433.992 51.7441 433.518 51.2682C433.328 51.1063 433.178 50.9138 433.078 50.7021C433.759 51.273 434.504 51.7867 435.304 52.2358C436.218 52.6783 437.221 52.9749 438.263 53.1106C439.535 53.2495 440.828 53.1404 442.041 52.7916C443.362 52.4519 444.585 51.9784 445.71 51.68C446.757 51.3878 447.86 51.2622 448.963 51.3094C449.711 51.351 450.438 51.534 451.09 51.8446C451.579 52.1122 451.763 52.3078 451.751 52.3284Z" fill="#455A64"/>
<path d="M406.555 47.9026C406.767 48.2299 407.025 48.5341 407.325 48.8084C407.768 49.1425 408.287 49.397 408.85 49.5563C409.414 49.7156 410.01 49.7763 410.602 49.7348C412.373 49.5339 414.008 48.8293 415.237 47.738C416.753 46.6161 418.233 45.0824 420.47 44.1767C421.562 43.7398 422.783 43.5823 423.98 43.7238C425.083 43.8759 426.134 44.227 427.061 44.7531C428.611 45.6226 429.873 46.809 430.73 48.2011C431.322 49.1115 431.833 50.0576 432.258 51.0316C432.446 51.3808 432.585 51.7469 432.674 52.1227C432.435 51.7968 432.234 51.4521 432.075 51.0934C431.586 50.1522 431.035 49.2347 430.424 48.3452C429.563 47.008 428.324 45.8697 426.817 45.031C425.939 44.5556 424.951 44.2433 423.919 44.1149C422.812 43.9927 421.686 44.1429 420.678 44.5472C418.587 45.3809 417.108 46.8734 415.555 48.0056C414.252 49.143 412.526 49.8697 410.663 50.0641C410.029 50.0899 409.396 50.0034 408.804 49.8101C408.212 49.6168 407.675 49.3212 407.227 48.9422C406.993 48.7302 406.811 48.482 406.689 48.2114C406.621 48.1169 406.575 48.012 406.555 47.9026Z" fill="#455A64"/>
<path d="M429.797 42.2415C430.335 42.495 430.799 42.8467 431.154 43.2707C432.077 44.2569 432.72 45.4076 433.034 46.6349C433.348 47.8623 433.324 49.1337 432.964 50.3521C432.855 50.8625 432.608 51.3451 432.243 51.7622C432.326 51.2619 432.448 50.7668 432.609 50.2801C432.864 49.1005 432.839 47.8902 432.536 46.7188C432.23 45.5481 431.661 44.4373 430.861 43.4457C430.478 43.0626 430.122 42.6605 429.797 42.2415Z" fill="#455A64"/>
<path d="M319.899 35.6234C319.899 35.6234 310.691 38.9685 311.449 44.9897C311.994 48.8969 313.002 52.7483 314.457 56.4867C314.457 56.4867 299.991 47.2232 285.843 50.9698L285.758 53.7282C285.758 53.7282 295.907 52.699 304.601 56.7337C313.296 60.7684 324.692 75.2606 324.692 75.2606L353.27 64.4635L346.508 55.2001C346.508 55.2001 347.461 46.3998 347.62 43.9502C347.853 40.2036 342.374 25.7115 319.899 35.6234ZM343.952 41.7166C344.245 43.8575 342.093 47.0791 342.093 47.0791L339.097 41.1814L316.402 47.779C316.402 47.779 312.317 42.0769 320.608 38.3509C325.5 36.1586 330.819 35.9424 334.292 35.8086C335.905 35.7187 337.519 35.9724 338.985 36.5462C340.451 37.1201 341.722 37.9956 342.68 39.092C343.358 39.8635 343.796 40.766 343.952 41.7166Z" fill="#616161"/>
<path d="M347.478 31.7327L335.103 31.2695L324.953 34.9749C324.953 34.9749 325.418 36.313 326.384 36.21C328.32 35.8759 330.225 35.4218 332.082 34.8514L328.842 37.2393L328.707 38.9891C328.707 38.9891 331.899 42.2724 332.461 41.9225C332.942 41.4775 333.319 40.9608 333.574 40.3992L335.8 43.0856H339.272L340.862 41.2843L342.586 42.4371C342.586 42.4371 346.927 45.7411 349.41 44.9794C350.852 44.5368 353.494 49.992 353.494 49.992L362.861 45.0309L356.563 38.4847L347.478 31.7327Z" fill="#D38D6E"/>
<path d="M343.119 35.006C342.42 35.1763 341.694 35.2595 340.967 35.253L338.655 35.3662C338.241 35.3807 337.83 35.4395 337.433 35.5412C337.012 35.724 336.603 35.9268 336.21 36.1485C335.378 36.6117 334.608 37.0954 333.923 37.5483C333.238 38.0012 332.7 38.382 332.859 38.8761C333.202 39.9053 333.764 40.4508 333.666 40.5023C333.568 40.5538 332.92 40.1009 332.444 38.979C332.371 38.808 332.35 38.6245 332.382 38.445C332.414 38.2654 332.498 38.0953 332.627 37.9497C332.903 37.6588 333.219 37.3962 333.569 37.1675C334.302 36.6404 335.074 36.1522 335.88 35.7059C336.305 35.4515 336.76 35.2342 337.237 35.0575C337.702 34.9287 338.19 34.8661 338.68 34.8722H341.04C341.737 34.8219 342.439 34.8671 343.119 35.006Z" fill="#B26746"/>
<path d="M339.269 43.1784C339.183 43.1784 339.501 42.6226 340.027 41.8506C340.161 41.6551 340.296 41.4389 340.43 41.2125C340.487 41.1147 340.529 41.0108 340.553 40.9037C340.553 40.9037 340.553 40.9037 340.553 40.8419C340.527 40.797 340.494 40.7554 340.455 40.7184C340.197 40.5603 339.887 40.4751 339.568 40.4751C339.25 40.4751 338.939 40.5603 338.682 40.7184L338.168 40.9346L337.777 41.0993L337.679 40.7184L337.422 39.6892C337.324 39.3804 337.141 39.1436 336.945 39.1025L336.102 38.9584L336.884 38.6599C337.655 38.3614 338.303 38.1247 338.767 37.9806C338.954 37.9159 339.146 37.8643 339.342 37.8262C339.501 37.8262 339.574 37.8262 339.562 37.8982C339.339 37.9978 339.123 38.1077 338.914 38.2276C338.498 38.454 337.875 38.7422 337.129 39.0922L337.068 38.6393C337.305 38.7033 337.518 38.8188 337.686 38.9742C337.853 39.1296 337.969 39.3194 338.021 39.5245C338.131 39.9053 338.229 40.2758 338.339 40.667L337.85 40.4508L338.4 40.2141C338.803 40.0444 339.247 39.9563 339.697 39.9568C339.928 39.9608 340.156 40.005 340.367 40.0864C340.577 40.1679 340.765 40.2849 340.919 40.4302C340.996 40.5 341.058 40.58 341.103 40.667C341.132 40.7095 341.157 40.7543 341.176 40.8008C341.195 40.872 341.195 40.9457 341.176 41.0169C341.137 41.1765 341.067 41.3295 340.968 41.4698C340.819 41.6932 340.656 41.9096 340.479 42.1182C339.782 42.7975 339.342 43.2093 339.269 43.1784Z" fill="#B26746"/>
<path d="M342.587 32.7723C340.336 33.0405 338.06 33.1335 335.788 33.0502L336.021 32.9782C335.801 33.1428 335.58 33.3075 335.348 33.4619C333.685 34.5838 332.132 35.5205 331.007 36.1998C330.426 36.6103 329.785 36.9562 329.1 37.229C328.953 37.0849 331.619 35.2426 334.92 33.0502L335.568 32.5973L335.666 32.515H335.788C338.059 32.431 340.334 32.5171 342.587 32.7723Z" fill="#B26746"/>
<path d="M281.822 53.7798C277.158 53.8642 272.609 55.0163 268.664 57.1126C264.72 59.2089 261.528 62.1701 259.432 65.6782C258.357 67.2546 257.928 69.0844 258.209 70.8863C258.649 72.6463 260.545 74.252 262.672 74.077C263.407 73.9685 264.11 73.739 264.739 73.4017C265.369 73.0643 265.913 72.6258 266.341 72.1111C269.178 69.188 270.278 65.3797 271.953 61.8184C273.629 58.2571 276.356 54.7473 280.66 53.7078" fill="#F5F5F5"/>
<path d="M282.169 70.2891C281.763 69.1535 281.265 68.0427 280.677 66.9646C279.764 65.0543 279.135 63.056 278.807 61.0154L278.22 61.4786C275.702 64.4057 274.621 68.0363 275.199 71.6169C275.303 72.4757 275.62 73.3067 276.129 74.0562C276.388 74.4302 276.741 74.7519 277.164 74.999C277.586 75.2461 278.067 75.4126 278.574 75.4869C279.279 75.5299 279.982 75.3888 280.589 75.0831C281.195 74.7773 281.674 74.3217 281.961 73.7783C282.512 72.6712 282.586 71.437 282.169 70.2891Z" fill="#F5F5F5"/>
<path d="M269.539 78.7807C268.009 79.5368 266.634 80.4961 265.467 81.6215C264.89 82.1925 264.485 82.8725 264.287 83.6037C264.089 84.3349 264.104 85.0956 264.33 85.8209C264.603 86.5298 265.195 87.1207 265.979 87.4669C266.763 87.8132 267.676 87.8874 268.524 87.6736C270.383 87.0148 270.774 84.946 270.444 83.2786C270.114 81.6112 269.332 79.9232 269.857 78.2866" fill="#F5F5F5"/>
<path d="M467.56 167.741L458.621 148.987L461.458 139.95L457.129 97.8738L445.684 92.0687L445.133 88.3222L441.991 88.7648L436.745 92.748L393.469 76.537L365.185 43.7239L351.734 50.5171L377.707 91.9658L426.754 115.526L426.657 115.804C427.097 116.02 448.301 264.142 457.374 264.585C466.447 265.027 481.989 245.626 500.332 245.173C512.205 244.885 516.338 246.696 517.794 247.993C511.423 237.885 468.538 169.192 467.56 167.741Z" fill="#F5F5F5"/>
<path d="M467.556 167.741C467.556 167.741 467.874 168.214 468.473 169.141L471.09 173.258L481.13 189.201C489.836 203.065 502.407 223.116 517.936 247.869L518.695 249.074L517.545 248.096C516.099 247.032 514.336 246.321 512.446 246.037C510.51 245.681 508.543 245.461 506.564 245.379C502.566 245.245 498.396 245.111 494.336 246.12C490.279 247.211 486.444 248.818 482.964 250.885C479.295 252.944 475.871 255.229 472.374 257.606C470.613 258.8 468.84 260.005 466.994 261.157C465.155 262.369 463.162 263.405 461.051 264.245C459.945 264.669 458.744 264.89 457.529 264.894C457.167 264.886 456.82 264.769 456.551 264.564C456.324 264.378 456.123 264.171 455.952 263.947C455.62 263.521 455.33 263.074 455.083 262.609C454.149 260.751 453.377 258.838 452.772 256.886C450.241 249.084 448.419 240.922 446.585 232.564C443.014 215.828 439.847 198.217 436.717 179.958C433.586 161.699 430.603 142.791 427.607 123.431C427.399 122.175 427.203 120.919 427.008 119.664L426.702 117.78L426.543 116.843L426.457 116.38V116.154V116.04V115.989C426.485 116.039 426.533 116.079 426.592 116.102L426.445 115.773L426.543 115.495L426.702 115.814L377.654 92.254H377.569V92.182L351.486 50.6303L351.352 50.4142L351.608 50.2907L365.059 43.5078L365.304 43.3843L365.463 43.5798L393.698 76.4033L393.588 76.3209L436.888 92.5628L436.545 92.7893V92.676L436.643 92.5937L441.853 88.5693H441.926L445.069 88.137H445.301V88.3428L445.839 92.0791L445.729 91.9453L457.174 97.7503L457.297 97.8944C459.009 114.847 460.439 129.009 461.54 139.981V140.033C460.317 143.748 459.486 146.527 458.691 149.059V148.998C461.552 155.07 463.741 159.702 465.221 162.852C466.7 166.001 467.471 167.679 467.52 167.823L467.422 167.689L467.507 167.823L467.409 167.689L467.495 167.823C467.41 167.689 466.59 166.032 465.049 162.893L458.507 148.987V148.926C459.29 146.383 460.158 143.604 461.308 139.889C460.158 128.917 458.679 114.754 456.918 97.8121L457.028 97.9665L445.57 92.1717H445.472V92.0791L444.922 88.3325L445.191 88.5075L442.048 88.9501H442.17L436.973 92.9848L437.047 92.7893L437.145 93.1701L436.717 93.0157L393.355 76.7532H393.282L364.937 43.8783L365.341 43.9504L351.89 50.7333L352 50.3936L378.046 91.832L377.911 91.7291L426.959 115.279L427.191 115.392L427.105 115.608L427.008 115.886L426.849 115.567C426.923 115.609 426.979 115.67 427.008 115.742V115.804V115.866V115.989V116.226L427.093 116.699L427.252 117.646L427.558 119.53C427.753 120.785 427.949 122.041 428.157 123.297C431.165 142.657 434.149 161.565 437.255 179.824C440.361 198.084 443.528 215.684 447.037 232.41C448.859 240.757 450.706 248.878 453.151 256.69C453.751 258.617 454.511 260.505 455.426 262.341C455.657 262.781 455.931 263.205 456.245 263.607C456.563 263.988 456.93 264.379 457.37 264.338C458.502 264.34 459.621 264.132 460.647 263.731C462.718 262.918 464.675 261.914 466.48 260.735C468.314 259.583 470.075 258.389 471.836 257.195C475.346 254.817 478.831 252.481 482.487 250.463C486.082 248.388 490.038 246.794 494.214 245.739C496.233 245.255 498.315 244.982 500.413 244.926C502.48 244.926 504.522 244.926 506.528 244.998C508.558 245.1 510.575 245.348 512.556 245.739C514.537 246.025 516.386 246.766 517.9 247.88L517.508 248.116C502.064 223.321 489.555 203.251 480.897 189.366L470.98 173.34C469.855 171.508 468.987 170.118 468.412 169.223C467.837 168.327 467.556 167.741 467.556 167.741Z" fill="#E0E0E0"/>
<path d="M443.578 121.279C442.618 121.437 441.622 121.328 440.741 120.971C438.582 120.335 436.471 119.589 434.419 118.737C431.973 117.708 429.858 116.833 428.305 116.174C427.444 115.871 426.624 115.492 425.859 115.042C426.792 115.199 427.697 115.459 428.55 115.814C430.176 116.38 432.365 117.255 434.774 118.233C437.183 119.211 439.359 120.044 440.973 120.6C441.818 120.887 442.689 121.114 443.578 121.279Z" fill="#263238"/>
<path d="M454.756 107.6C454.595 106.498 454.358 105.406 454.046 104.327C453.14 101.769 451.236 99.5429 448.642 98.0074C445.964 96.5463 443.164 95.2494 440.265 94.127C439.035 93.6794 437.873 93.1093 436.805 92.4287C438.054 92.8206 439.279 93.2672 440.473 93.7668C443.465 94.7939 446.332 96.0624 449.033 97.5545C451.749 99.1517 453.69 101.52 454.499 104.224C454.747 105.031 454.871 105.861 454.866 106.694C454.891 106.999 454.854 107.306 454.756 107.6Z" fill="#263238"/>
<path d="M456.014 157.787C455.966 156.221 456.188 154.658 456.675 153.145C456.949 151.599 457.502 150.096 458.313 148.689C458.143 150.237 457.811 151.769 457.323 153.269C457.059 154.807 456.621 156.32 456.014 157.787Z" fill="#263238"/>
<path d="M463.863 178.054C463.427 178.722 462.827 179.305 462.102 179.762C460.429 180.963 458.456 181.832 456.33 182.305C454.202 182.777 451.975 182.844 449.812 182.5C448.914 182.406 448.051 182.15 447.281 181.749C447.281 181.656 448.284 181.934 449.898 182.109C454.127 182.561 458.399 181.608 461.808 179.454C463.105 178.63 463.777 177.982 463.863 178.054Z" fill="#263238"/>
<path d="M500.321 233.778C499.762 233.909 499.188 233.988 498.609 234.015C498.059 234.077 497.386 234.128 496.591 234.159C495.796 234.19 494.904 234.241 493.913 234.221C491.577 234.225 489.244 234.087 486.931 233.809C481.256 233.132 475.753 231.671 470.643 229.486C468.559 228.598 466.553 227.587 464.639 226.46C463.807 225.997 463.123 225.513 462.487 225.112C461.851 224.71 461.35 224.34 460.934 224.021C460.486 223.713 460.077 223.368 459.711 222.992C459.784 222.909 461.631 224.278 464.92 226.079C466.848 227.148 468.853 228.114 470.924 228.972C476.005 231.081 481.441 232.521 487.041 233.243C489.321 233.537 491.62 233.715 493.925 233.778C497.875 233.912 500.321 233.675 500.321 233.778Z" fill="#263238"/>
<path d="M518.026 248.168C518.026 248.168 517.855 248.085 517.574 247.9C517.193 247.605 516.784 247.337 516.351 247.097C514.719 246.229 512.912 245.619 511.02 245.296C508.205 244.81 505.325 244.654 502.46 244.833C498.948 245.003 495.48 245.574 492.151 246.531C485.01 248.59 479.691 252.326 475.937 254.961L471.522 258.193C471.008 258.613 470.452 258.996 469.859 259.335C470.315 258.867 470.814 258.43 471.351 258.028C472.342 257.215 473.797 256.052 475.631 254.662C477.79 253.03 480.06 251.504 482.43 250.093C485.347 248.345 488.547 246.959 491.931 245.975C495.318 245.003 498.849 244.435 502.423 244.287C505.34 244.127 508.27 244.328 511.117 244.884C513.047 245.249 514.871 245.931 516.486 246.891C516.929 247.153 517.339 247.453 517.708 247.787C517.928 248.034 518.051 248.157 518.026 248.168Z" fill="#263238"/>
<path d="M471.618 197.219C471.618 197.219 471.618 197.332 471.459 197.528C471.27 197.808 471.058 198.076 470.823 198.331C469.932 199.274 468.826 200.058 467.57 200.636C465.702 201.496 463.581 201.889 461.456 201.768C458.838 201.55 456.379 200.609 454.462 199.092C452.548 197.618 451.042 195.808 450.047 193.791C449.244 192.162 448.637 190.469 448.238 188.738C447.895 187.266 447.7 186.072 447.577 185.249C447.484 184.821 447.444 184.386 447.455 183.952C447.636 184.357 447.763 184.778 447.834 185.207C448.03 186.02 448.299 187.214 448.702 188.655C449.158 190.344 449.796 191.995 450.61 193.586C451.596 195.52 453.059 197.257 454.902 198.681C456.718 200.113 459.033 201.015 461.505 201.254C463.532 201.396 465.565 201.058 467.375 200.276C469.032 199.523 470.479 198.481 471.618 197.219Z" fill="#263238"/>
<path d="M385.614 214.212L362.43 464.736L377.495 464.51L403.578 214.047L385.614 214.212Z" fill="#455A64"/>
<path d="M408.345 214.006L390.688 214.212L478.584 464.448H495.923L408.345 214.006Z" fill="#455A64"/>
<path d="M387.013 329.48H435.693L439.765 339.227H383.711L387.013 329.48Z" fill="#455A64"/>
<path d="M398.978 208.109L384.622 209.447L375.854 214.068C375.854 214.068 375.683 215.571 378.177 215.334L383.069 213.574L379.156 217.176C379.312 217.389 379.52 217.571 379.766 217.711C380.012 217.85 380.291 217.944 380.584 217.986C380.876 218.028 381.176 218.017 381.464 217.953C381.751 217.89 382.019 217.776 382.249 217.619C383.59 216.967 384.772 216.108 385.734 215.087L394.368 214.572C394.368 214.572 387.838 219.853 389.036 221.232C390.234 222.611 391.017 222.312 391.959 221.808C392.9 221.304 393.414 219.564 395.566 218.988C397.718 218.412 401.264 216.724 405.104 215.19C408.406 213.872 411.768 204.444 411.768 204.444L400.763 202.633L398.978 208.109Z" fill="#D38D6E"/>
<path d="M393.273 211.196C390.595 211.811 387.864 212.252 385.105 212.514H384.983L385.166 212.431C383.338 214.144 381.346 215.727 379.211 217.166C380.871 215.33 382.703 213.609 384.689 212.02L384.775 211.948H385.007C387.734 211.51 390.498 211.258 393.273 211.196Z" fill="#B26746"/>
<g filter="url(#filter0_f_7003_4769)">
<ellipse cx="430.5" cy="477.5" rx="67.5" ry="3.5" fill="#2D2D2D" fill-opacity="0.4"/>
</g>
<g filter="url(#filter1_f_7003_4769)">
<ellipse cx="247" cy="484.5" rx="104" ry="3.5" fill="#885EA2"/>
</g>
<defs>
<filter id="filter0_f_7003_4769" x="353" y="464" width="155" height="27" filterUnits="userSpaceOnUse" color-interpolation-filters="sRGB">
<feFlood flood-opacity="0" result="BackgroundImageFix"/>
<feBlend mode="normal" in="SourceGraphic" in2="BackgroundImageFix" result="shape"/>
<feGaussianBlur stdDeviation="5" result="effect1_foregroundBlur_7003_4769"/>
</filter>
<filter id="filter1_f_7003_4769" x="133" y="471" width="228" height="27" filterUnits="userSpaceOnUse" color-interpolation-filters="sRGB">
<feFlood flood-opacity="0" result="BackgroundImageFix"/>
<feBlend mode="normal" in="SourceGraphic" in2="BackgroundImageFix" result="shape"/>
<feGaussianBlur stdDeviation="5" result="effect1_foregroundBlur_7003_4769"/>
</filter>
</defs>
</svg>
