<svg width="355" height="344" viewBox="0 0 355 344" fill="none" xmlns="http://www.w3.org/2000/svg">
<path d="M213.351 0.0759361C238.625 1.2381 266.617 3.63169 285.649 20.3036C304.773 37.0568 305.202 66.3411 315.52 89.5778C324.873 110.643 338 129.499 344.015 151.748C350.59 176.065 359.46 201.836 352.409 226.019C345.349 250.235 322.732 265.935 305.385 284.247C288.369 302.209 273.262 322.999 250.771 333.308C228.226 343.641 202.547 344.18 177.789 342.732C153.744 341.325 130.808 334.21 108.557 324.988C85.9765 315.63 60.4939 307.89 46.0818 288.148C31.7027 268.45 37.881 240.689 30.137 217.564C22.328 194.245 -2.2444 175.507 0.165561 151.034C2.57303 126.586 30.5576 113.166 42.5297 91.7145C54.678 69.947 51.5087 38.7275 71.301 23.5726C91.0035 8.48638 119.799 17.853 144.282 13.8033C167.696 9.93032 189.643 -1.01418 213.351 0.0759361Z" fill="#F87BB2"/>
<path d="M233.053 295.519C233.099 295.543 233.151 295.55 233.201 295.536C233.251 295.523 233.294 295.49 233.323 295.445C235.694 291.467 237.073 286.906 237.328 282.197C237.583 277.488 236.705 272.788 234.779 268.544C234.754 268.493 234.711 268.454 234.659 268.436C234.608 268.418 234.552 268.423 234.503 268.448C234.479 268.46 234.458 268.478 234.44 268.499C234.422 268.52 234.409 268.545 234.4 268.572C234.392 268.599 234.389 268.627 234.391 268.656C234.393 268.684 234.401 268.712 234.413 268.737C236.309 272.913 237.173 277.538 236.922 282.172C236.671 286.805 235.313 291.293 232.979 295.208C232.964 295.231 232.954 295.258 232.949 295.286C232.944 295.314 232.944 295.343 232.95 295.371C232.955 295.399 232.965 295.425 232.981 295.448C232.996 295.472 233.015 295.492 233.037 295.507L233.053 295.519Z" fill="#263238"/>
<path d="M232.955 286.196C235.4 286.71 235.284 291.001 235.183 291.03C235.03 291.454 234.871 291.878 234.696 292.302C234.733 291.691 234.024 290.391 232.547 289.152C231.071 287.914 230.658 285.613 232.955 286.196Z" fill="#263238"/>
<path d="M239.94 288.027C242.321 288.621 240.416 291.595 238.447 291.567C236.478 291.538 235.155 291.912 234.742 292.319C234.943 291.912 235.134 291.493 235.308 291.075C235.361 291.148 237.669 287.552 239.94 288.027Z" fill="#263238"/>
<path d="M233.527 282.311C236.015 282.385 236.581 286.597 236.491 286.631C236.412 287.077 236.322 287.518 236.221 287.959C236.158 287.354 235.247 286.218 233.575 285.268C231.903 284.318 231.183 282.136 233.527 282.311Z" fill="#263238"/>
<path d="M240.714 282.877C243.154 283.041 241.772 286.269 239.809 286.591C237.845 286.914 236.633 287.507 236.273 287.977C236.4 287.547 236.517 287.112 236.628 286.676C236.692 286.704 238.385 282.792 240.714 282.877Z" fill="#263238"/>
<path d="M233.487 278.354C235.953 277.986 237.191 282.017 237.086 282.068C237.086 282.515 237.059 282.962 237.033 283.414C236.874 282.849 235.794 281.882 234.016 281.249C232.237 280.615 231.126 278.636 233.487 278.354Z" fill="#263238"/>
<path d="M240.648 277.63C243.077 277.353 242.199 280.791 240.336 281.441C238.473 282.091 237.34 282.905 237.07 283.425C237.129 282.984 237.171 282.538 237.208 282.085C237.293 282.136 238.351 277.986 240.648 277.63Z" fill="#263238"/>
<path d="M232.822 274.492C235.198 273.689 237.056 277.46 236.955 277.517C237.019 277.964 237.067 278.405 237.109 278.851C236.86 278.314 235.653 277.568 233.801 277.257C231.949 276.946 230.541 275.182 232.822 274.492Z" fill="#263238"/>
<path d="M239.767 272.485C242.122 271.784 241.794 275.312 240.058 276.313C238.322 277.313 237.332 278.286 237.147 278.846C237.147 278.399 237.11 277.952 237.078 277.506C237.168 277.54 237.565 273.265 239.767 272.485Z" fill="#263238"/>
<path d="M231.543 270.766C233.761 269.551 236.174 272.966 236.105 273.028C236.238 273.457 236.354 273.887 236.465 274.323C236.137 273.836 234.824 273.31 232.951 273.333C231.077 273.356 229.4 271.857 231.543 270.766Z" fill="#263238"/>
<path d="M238.066 267.532C240.278 266.402 240.527 270.009 238.971 271.281C237.415 272.553 236.595 273.729 236.499 274.317C236.415 273.876 236.325 273.435 236.219 273C236.33 273.022 236.028 268.691 238.066 267.532Z" fill="#263238"/>
<path d="M235.385 270.529C235.449 270.529 235.11 266.684 234.115 264.841C233.12 262.998 231.67 263.309 231.257 264.106C230.844 264.903 231.527 266.158 232.316 267.057C233.104 267.956 235.417 270.478 235.385 270.529Z" fill="#263238"/>
<path d="M235.324 270.659C235.351 270.67 235.379 270.672 235.407 270.665C235.434 270.658 235.459 270.642 235.478 270.619C235.49 270.603 235.496 270.583 235.496 270.563C235.496 270.542 235.49 270.522 235.478 270.506C235.531 269.788 235.049 266.356 234.192 264.773C234.032 264.376 233.774 264.033 233.446 263.78C233.118 263.528 232.732 263.374 232.329 263.337C232.083 263.329 231.84 263.39 231.623 263.514C231.407 263.638 231.225 263.821 231.095 264.044C230.519 265.118 231.762 266.701 232.154 267.165C232.969 267.968 235.049 270.331 235.213 270.585C235.224 270.607 235.24 270.626 235.259 270.639C235.279 270.652 235.301 270.659 235.324 270.659ZM233.059 263.818C233.466 264.074 233.792 264.454 233.996 264.909C234.784 266.362 235.15 269.064 235.24 270.099C235.049 269.867 234.747 269.534 234.271 268.968C233.657 268.273 232.842 267.38 232.397 266.933C231.651 266.074 230.99 264.886 231.376 264.163C231.48 263.984 231.626 263.838 231.8 263.738C231.974 263.639 232.169 263.59 232.366 263.597C232.61 263.61 232.848 263.685 233.059 263.818Z" fill="#263238"/>
<path d="M235.862 297.509C235.901 297.561 235.957 297.596 236.018 297.607C236.08 297.617 236.143 297.602 236.196 297.565C240.621 294.412 244.216 290.101 246.639 285.042C249.061 279.984 250.231 274.347 250.036 268.669C250.041 268.631 250.038 268.592 250.028 268.556C250.018 268.519 250.001 268.485 249.978 268.456C249.954 268.427 249.926 268.404 249.893 268.388C249.861 268.372 249.825 268.364 249.79 268.364C249.754 268.364 249.719 268.372 249.686 268.388C249.654 268.404 249.625 268.427 249.601 268.456C249.578 268.485 249.561 268.519 249.551 268.556C249.541 268.592 249.538 268.631 249.543 268.669C249.736 274.257 248.585 279.805 246.2 284.784C243.815 289.762 240.276 294.005 235.92 297.107C235.867 297.146 235.83 297.206 235.817 297.273C235.805 297.341 235.817 297.411 235.852 297.469L235.862 297.509Z" fill="#263238"/>
<path d="M239.989 287.179C242.45 289.017 240.37 293.687 240.248 293.664C239.883 294.054 239.513 294.445 239.132 294.795C239.449 294.139 239.259 292.336 238.195 290.204C237.131 288.073 237.708 285.336 239.989 287.179Z" fill="#263238"/>
<path d="M246.859 292.827C249.215 294.721 245.764 297.006 243.605 295.954C241.461 294.999 239.815 294.625 239.164 294.852C239.566 294.507 239.963 294.145 240.35 293.777C240.392 293.89 244.568 291.12 246.859 292.827Z" fill="#263238"/>
<path d="M242.399 283.176C245.109 284.55 243.822 289.486 243.701 289.48C243.415 289.927 243.113 290.368 242.806 290.803C243.002 290.108 242.521 288.378 241.129 286.473C239.737 284.567 239.858 281.774 242.399 283.176Z" fill="#263238"/>
<path d="M250.055 287.513C252.67 288.96 249.648 291.799 247.366 291.143C245.106 290.577 243.434 290.498 242.836 290.832C243.189 290.417 243.517 289.999 243.82 289.577C243.884 289.661 247.525 286.269 250.055 287.513Z" fill="#263238"/>
<path d="M244.135 278.823C247.02 279.694 246.533 284.776 246.416 284.788C246.205 285.274 245.982 285.76 245.744 286.241C245.829 285.523 245.077 283.911 243.405 282.283C241.732 280.655 241.41 277.896 244.135 278.823Z" fill="#263238"/>
<path d="M252.357 281.746C255.163 282.701 252.633 286.032 250.277 285.788C247.922 285.545 246.313 285.845 245.773 286.28C246.038 285.817 246.303 285.347 246.541 284.873C246.62 284.957 249.674 280.932 252.357 281.746Z" fill="#263238"/>
<path d="M245.172 274.21C248.152 274.56 248.459 279.665 248.348 279.694C248.215 280.214 248.072 280.728 247.914 281.243C247.882 280.519 246.887 279.066 244.987 277.766C243.087 276.465 242.335 273.786 245.172 274.21Z" fill="#263238"/>
<path d="M253.746 275.6C256.657 276.047 254.683 279.796 252.322 279.971C249.962 280.146 248.421 280.734 247.961 281.254C248.151 280.757 248.326 280.248 248.49 279.739C248.58 279.824 250.962 275.306 253.746 275.6Z" fill="#263238"/>
<path d="M245.475 269.443C248.471 269.251 249.577 274.266 249.471 274.311C249.423 274.848 249.36 275.386 249.286 275.923C249.143 275.216 247.936 273.955 245.856 273.011C243.776 272.067 242.606 269.534 245.475 269.443Z" fill="#263238"/>
<path d="M254.137 269.262C257.079 269.177 255.724 273.271 253.422 273.864C251.12 274.458 249.691 275.334 249.32 275.928C249.426 275.402 249.527 274.865 249.611 274.334C249.712 274.396 251.347 269.483 254.137 269.262Z" fill="#263238"/>
<path d="M249.799 271.173C249.852 271.235 251.244 266.792 250.984 264.242C250.725 261.692 248.984 261.279 248.163 261.946C247.343 262.613 247.528 264.349 247.973 265.746C248.518 267.086 249.857 271.134 249.799 271.173Z" fill="#263238"/>
<path d="M249.668 271.281C249.693 271.307 249.725 271.324 249.759 271.33C249.793 271.336 249.828 271.33 249.859 271.315C249.88 271.305 249.898 271.29 249.911 271.27C249.924 271.25 249.932 271.226 249.933 271.202C250.319 270.444 251.346 266.407 251.119 264.214C251.029 262.975 250.52 262.048 249.721 261.664C249.455 261.526 249.159 261.467 248.864 261.492C248.57 261.516 248.286 261.625 248.044 261.805C246.911 262.687 247.567 265.084 247.795 265.797C248.324 267.103 249.541 270.789 249.61 271.156C249.611 271.18 249.617 271.204 249.627 271.225C249.637 271.246 249.651 271.265 249.668 271.281ZM250.282 262.563C250.613 263.059 250.797 263.65 250.812 264.259C251.018 266.272 250.192 269.438 249.822 270.625C249.716 270.274 249.536 269.737 249.261 268.895C248.896 267.815 248.409 266.402 248.118 265.678C247.689 264.344 247.498 262.687 248.255 262.093C248.452 261.953 248.679 261.869 248.915 261.851C249.151 261.833 249.387 261.882 249.6 261.992C249.866 262.121 250.1 262.317 250.282 262.563Z" fill="#263238"/>
<path d="M259.065 296.604C259.09 296.617 259.118 296.62 259.145 296.612C259.172 296.605 259.196 296.588 259.213 296.565C260.512 294.722 261.281 292.514 261.425 290.211C261.569 287.909 261.082 285.612 260.023 283.601C260.007 283.574 259.983 283.554 259.955 283.544C259.927 283.535 259.896 283.537 259.869 283.55C259.857 283.555 259.846 283.563 259.837 283.573C259.827 283.583 259.82 283.595 259.815 283.609C259.81 283.622 259.808 283.636 259.808 283.65C259.808 283.664 259.811 283.678 259.816 283.691C260.86 285.669 261.341 287.929 261.201 290.194C261.061 292.459 260.306 294.632 259.028 296.446C259.019 296.457 259.013 296.471 259.01 296.485C259.007 296.499 259.007 296.514 259.01 296.528C259.013 296.542 259.019 296.555 259.028 296.566C259.036 296.578 259.047 296.587 259.059 296.593L259.065 296.604Z" fill="#263238"/>
<path d="M259.015 292.109C260.365 292.352 260.301 294.427 260.248 294.439C260.163 294.642 260.073 294.846 259.978 295.049C259.978 294.755 259.602 294.128 258.787 293.534C257.972 292.94 257.739 291.827 259.015 292.109Z" fill="#263238"/>
<path d="M262.877 292.991C264.189 293.28 263.136 294.687 262.051 294.687C261.348 294.633 260.642 294.757 259.992 295.049C260.103 294.851 260.209 294.654 260.304 294.45C260.347 294.495 261.617 292.759 262.877 292.991Z" fill="#263238"/>
<path d="M259.335 290.227C260.711 290.261 261.024 292.29 260.976 292.313C260.928 292.522 260.881 292.737 260.828 292.946C260.791 292.658 260.299 292.109 259.372 291.651C258.446 291.193 258.028 290.153 259.335 290.227Z" fill="#263238"/>
<path d="M263.3 290.493C264.649 290.572 263.871 292.132 262.797 292.285C261.722 292.437 261.04 292.726 260.844 292.952C260.918 292.743 260.981 292.534 261.04 292.324C261.082 292.353 262.019 290.464 263.3 290.493Z" fill="#263238"/>
<path d="M259.303 288.332C260.668 288.157 261.34 290.096 261.293 290.125C261.293 290.34 261.282 290.554 261.261 290.769C261.176 290.492 260.578 290.034 259.599 289.729C258.62 289.424 258.001 288.463 259.303 288.332Z" fill="#263238"/>
<path d="M263.261 287.965C264.605 287.835 264.118 289.492 263.086 289.803C262.054 290.113 261.435 290.509 261.281 290.764C261.313 290.549 261.339 290.328 261.361 290.113C261.408 290.147 261.99 288.152 263.261 287.965Z" fill="#263238"/>
<path d="M258.935 286.467C260.247 286.077 261.264 287.897 261.221 287.926C261.253 288.135 261.285 288.35 261.306 288.564C261.168 288.31 260.501 287.948 259.475 287.801C258.448 287.654 257.675 286.8 258.935 286.467Z" fill="#263238"/>
<path d="M262.773 285.494C264.075 285.155 263.895 286.874 262.937 287.343C261.979 287.812 261.429 288.293 261.35 288.564C261.35 288.35 261.35 288.135 261.312 287.92C261.35 287.965 261.556 285.868 262.773 285.494Z" fill="#263238"/>
<path d="M258.234 284.669C259.457 284.104 260.791 285.726 260.754 285.76C260.822 285.969 260.891 286.179 260.955 286.382C260.769 286.15 260.044 285.896 259.012 285.907C257.98 285.919 257.049 285.195 258.234 284.669Z" fill="#263238"/>
<path d="M261.85 283.109C263.072 282.543 263.21 284.301 262.347 284.918C261.484 285.534 261.035 286.099 260.982 286.382C260.939 286.167 260.886 285.958 260.828 285.743C260.881 285.754 260.717 283.668 261.85 283.109Z" fill="#263238"/>
<path d="M260.357 284.573C260.307 283.617 260.069 282.682 259.659 281.831C259.129 280.943 258.304 281.09 258.071 281.475C257.838 281.859 258.219 282.464 258.648 282.899C259.076 283.335 260.378 284.528 260.357 284.573Z" fill="#263238"/>
<path d="M260.325 284.618C260.338 284.627 260.352 284.631 260.367 284.631C260.382 284.631 260.397 284.627 260.41 284.618C260.41 284.618 260.41 284.59 260.41 284.562C260.363 283.596 260.121 282.653 259.701 281.797C259.598 281.597 259.45 281.429 259.269 281.308C259.088 281.187 258.881 281.118 258.668 281.107C258.538 281.1 258.408 281.127 258.29 281.186C258.172 281.245 258.069 281.335 257.991 281.446C257.668 281.966 258.356 282.73 258.578 282.95C259.028 283.34 260.166 284.477 260.267 284.601C260.284 284.614 260.304 284.62 260.325 284.618ZM259.071 281.316C259.292 281.431 259.476 281.615 259.6 281.842C259.977 282.622 260.211 283.472 260.288 284.347C260.182 284.234 260.013 284.07 259.759 283.781C259.505 283.493 258.965 283.012 258.7 282.803C258.287 282.385 257.922 281.814 258.134 281.463C258.196 281.378 258.277 281.309 258.369 281.263C258.461 281.217 258.562 281.194 258.663 281.198C258.806 281.202 258.945 281.243 259.071 281.316Z" fill="#263238"/>
<path d="M260.624 297.577C260.649 297.599 260.681 297.611 260.714 297.611C260.746 297.611 260.778 297.599 260.804 297.577C265.757 294.518 268.69 289.181 268.451 283.646C268.445 283.612 268.428 283.582 268.404 283.561C268.379 283.539 268.348 283.527 268.316 283.527C268.285 283.527 268.254 283.539 268.229 283.561C268.205 283.582 268.188 283.612 268.181 283.646C268.414 289.09 265.535 294.343 260.655 297.356C260.641 297.363 260.628 297.374 260.617 297.388C260.607 297.401 260.6 297.417 260.596 297.434C260.593 297.451 260.593 297.469 260.597 297.485C260.601 297.502 260.608 297.518 260.618 297.531L260.624 297.577Z" fill="#263238"/>
<path d="M262.904 292.584C264.265 293.466 263.116 295.722 263.047 295.705C262.846 295.897 262.64 296.084 262.433 296.271C262.608 295.954 262.502 295.083 261.904 294.054C261.306 293.025 261.645 291.697 262.904 292.584Z" fill="#263238"/>
<path d="M266.695 295.315C267.997 296.231 266.092 297.328 264.896 296.825C263.7 296.322 262.805 296.186 262.445 296.293C262.668 296.124 262.885 295.954 263.096 295.773C263.123 295.818 265.43 294.484 266.695 295.315Z" fill="#263238"/>
<path d="M264.235 290.651C265.733 291.312 265.024 293.698 264.955 293.692C264.796 293.907 264.632 294.122 264.463 294.331C264.574 293.992 264.304 293.161 263.537 292.245C262.769 291.329 262.833 289.978 264.235 290.651Z" fill="#263238"/>
<path d="M268.467 292.743C269.912 293.438 268.245 294.806 266.98 294.49C265.715 294.173 264.81 294.179 264.477 294.343C264.662 294.145 264.847 293.941 265.006 293.738C265.059 293.789 267.07 292.132 268.467 292.743Z" fill="#263238"/>
<path d="M265.197 288.531C266.785 288.949 266.52 291.403 266.457 291.408C266.34 291.64 266.213 291.878 266.086 292.104C266.128 291.759 265.716 290.973 264.789 290.204C263.863 289.435 263.689 288.107 265.197 288.531Z" fill="#263238"/>
<path d="M269.745 289.955C271.296 290.413 269.894 292.019 268.597 291.9C267.3 291.781 266.406 291.928 266.109 292.138C266.252 291.917 266.395 291.691 266.533 291.465C266.57 291.51 268.237 289.571 269.745 289.955Z" fill="#263238"/>
<path d="M265.761 286.331C267.407 286.495 267.576 288.96 267.518 288.972C267.444 289.22 267.365 289.469 267.275 289.718C267.275 289.373 266.708 288.672 265.66 288.022C264.612 287.371 264.194 286.122 265.761 286.331Z" fill="#263238"/>
<path d="M270.501 286.998C272.116 287.213 271.031 289.023 269.718 289.107C268.406 289.192 267.564 289.475 267.305 289.724C267.411 289.486 267.511 289.243 267.601 288.994C267.649 289.039 268.967 286.834 270.501 286.998Z" fill="#263238"/>
<path d="M265.925 284.008C267.581 283.917 268.195 286.331 268.137 286.354C268.105 286.614 268.074 286.874 268.031 287.134C267.952 286.789 267.285 286.184 266.137 285.726C264.988 285.268 264.348 284.075 265.925 284.008Z" fill="#263238"/>
<path d="M270.719 283.945C272.349 283.906 271.598 285.873 270.328 286.162C269.058 286.45 268.264 286.868 268.062 287.157C268.121 286.902 268.174 286.648 268.221 286.388C268.274 286.422 269.179 284.047 270.719 283.945Z" fill="#263238"/>
<path d="M268.326 284.867C268.358 284.895 269.125 282.752 268.982 281.52C268.839 280.287 267.881 280.095 267.426 280.389C266.971 280.683 267.072 281.548 267.32 282.221C267.701 283.083 268.036 283.966 268.326 284.867Z" fill="#263238"/>
<path d="M268.235 284.918C268.251 284.929 268.269 284.935 268.288 284.935C268.307 284.935 268.325 284.929 268.341 284.918C268.352 284.914 268.361 284.907 268.369 284.899C268.376 284.89 268.381 284.879 268.383 284.867C268.831 283.801 269.055 282.643 269.04 281.475C269.035 281.212 268.959 280.956 268.822 280.737C268.685 280.519 268.493 280.347 268.267 280.242C268.118 280.178 267.957 280.15 267.797 280.162C267.636 280.174 267.48 280.224 267.341 280.31C266.716 280.74 267.076 281.893 267.203 282.232C267.494 282.866 268.166 284.641 268.203 284.822C268.197 284.839 268.197 284.858 268.203 284.876C268.209 284.894 268.22 284.908 268.235 284.918ZM268.574 280.711C268.755 280.942 268.859 281.23 268.87 281.531C268.884 282.58 268.704 283.621 268.341 284.596C268.283 284.426 268.182 284.166 268.029 283.764C267.828 283.244 267.558 282.56 267.399 282.215C267.161 281.571 267.055 280.774 267.473 280.485C267.586 280.416 267.711 280.376 267.841 280.367C267.97 280.358 268.1 280.381 268.219 280.434C268.362 280.496 268.49 280.591 268.595 280.711H268.574Z" fill="#263238"/>
<path d="M80.3447 294.546C80.3199 294.558 80.2921 294.562 80.2654 294.555C80.2387 294.549 80.2145 294.534 80.1965 294.512C78.8966 292.668 78.1281 290.459 77.9853 288.155C77.8424 285.852 78.3313 283.554 79.3921 281.542C79.4073 281.517 79.4305 281.498 79.4575 281.488C79.4846 281.479 79.5139 281.48 79.5403 281.492C79.5529 281.496 79.5645 281.504 79.5742 281.514C79.5839 281.524 79.5915 281.536 79.5965 281.55C79.6015 281.563 79.6037 281.577 79.6032 281.592C79.6026 281.606 79.5992 281.62 79.5932 281.633C78.548 283.612 78.0663 285.875 78.2073 288.143C78.3484 290.41 79.1059 292.585 80.3871 294.399C80.3944 294.411 80.3993 294.424 80.4014 294.438C80.4035 294.452 80.4028 294.466 80.3992 294.479C80.3957 294.493 80.3895 294.505 80.381 294.516C80.3725 294.526 80.3619 294.535 80.35 294.541L80.3447 294.546Z" fill="#263238"/>
<path d="M80.3928 290.051C79.0431 290.3 79.1067 292.37 79.1649 292.381C79.2496 292.584 79.3342 292.794 79.4295 292.997C79.4295 292.697 79.8053 292.07 80.6203 291.476C81.4354 290.883 81.6736 289.769 80.3928 290.051Z" fill="#263238"/>
<path d="M76.5358 290.933C75.218 291.222 76.2712 292.63 77.3615 292.63C78.4517 292.63 79.1821 292.794 79.415 292.991C79.3038 292.794 79.2033 292.596 79.1027 292.392C79.0657 292.437 77.7902 290.702 76.5358 290.933Z" fill="#263238"/>
<path d="M80.0784 288.169C78.7076 288.208 78.39 290.238 78.4429 290.255C78.4853 290.47 78.5329 290.679 78.5911 290.894C78.6282 290.6 79.1204 290.051 80.0413 289.599C80.9622 289.147 81.4068 288.095 80.0784 288.169Z" fill="#263238"/>
<path d="M76.112 288.434C74.7677 288.514 75.5404 290.074 76.6413 290.227C77.7422 290.379 78.4037 290.673 78.5943 290.899C78.5255 290.69 78.462 290.481 78.3984 290.266C78.3296 290.295 77.3928 288.406 76.112 288.434Z" fill="#263238"/>
<path d="M80.1017 286.269C78.7415 286.094 78.0641 288.039 78.1117 288.061C78.1117 288.276 78.1223 288.491 78.1435 288.706C78.2335 288.429 78.8262 287.971 79.8106 287.665C80.7951 287.36 81.4037 286.405 80.1017 286.269Z" fill="#263238"/>
<path d="M76.1492 285.918C74.8049 285.788 75.2918 287.445 76.3186 287.762C77.3453 288.078 77.9752 288.463 78.1234 288.717C78.0916 288.502 78.0651 288.287 78.044 288.072C78.0016 288.095 77.4142 286.094 76.1492 285.918Z" fill="#263238"/>
<path d="M80.4648 284.409C79.1523 284.024 78.1414 285.839 78.1837 285.868C78.1467 286.082 78.1202 286.297 78.0938 286.512C78.2314 286.252 78.9035 285.89 79.925 285.743C80.9465 285.596 81.7298 284.742 80.4648 284.409Z" fill="#263238"/>
<path d="M76.6378 283.442C75.3359 283.103 75.5211 284.816 76.4791 285.285C77.437 285.754 77.9822 286.241 78.0668 286.506C78.0668 286.292 78.0668 286.077 78.1039 285.862C78.0615 285.879 77.8445 283.81 76.6378 283.442Z" fill="#263238"/>
<path d="M81.1735 282.611C79.9509 282.046 78.6172 283.674 78.6542 283.708C78.5801 283.911 78.5113 284.121 78.4531 284.33C78.6331 284.092 79.3582 283.844 80.3955 283.855C81.4329 283.866 82.3538 283.137 81.1735 282.611Z" fill="#263238"/>
<path d="M77.5607 281.05C76.3434 280.513 76.2057 282.243 77.0631 282.86C77.9205 283.476 78.3757 284.041 78.4286 284.324C78.4763 284.109 78.5239 283.9 78.5821 283.685C78.5292 283.696 78.6933 281.61 77.5607 281.05Z" fill="#263238"/>
<path d="M79.0471 282.498C79.1029 281.542 79.3426 280.608 79.751 279.756C80.2803 278.868 81.1007 279.015 81.3388 279.4C81.577 279.784 81.1906 280.389 80.7619 280.824C80.3332 281.26 79.026 282.475 79.0471 282.498Z" fill="#263238"/>
<path d="M79.0847 282.56C79.0718 282.568 79.0572 282.572 79.0423 282.572C79.0275 282.572 79.0129 282.568 79 282.56C79 282.56 79 282.56 79 282.509C79.0475 281.543 79.2914 280.6 79.7145 279.745C79.8148 279.544 79.9621 279.374 80.1421 279.252C80.322 279.13 80.5285 279.06 80.7413 279.049C80.8723 279.042 81.0029 279.07 81.1218 279.129C81.2407 279.188 81.3444 279.277 81.424 279.388C81.7416 279.908 81.0535 280.672 80.8365 280.892C80.3867 281.282 79.2488 282.424 79.1429 282.543C79.1356 282.551 79.1263 282.557 79.116 282.56C79.1057 282.563 79.0949 282.563 79.0847 282.56ZM80.3443 279.264C80.1229 279.379 79.9386 279.562 79.8151 279.79C79.4334 280.574 79.2013 281.431 79.1323 282.311C79.2382 282.204 79.4022 282.034 79.6616 281.774C79.9209 281.514 80.4502 281.011 80.7201 280.796C81.1276 280.378 81.4981 279.807 81.2811 279.456C81.2187 279.371 81.1382 279.302 81.0463 279.256C80.9543 279.209 80.8534 279.187 80.7518 279.19C80.6124 279.179 80.4726 279.205 80.3443 279.264Z" fill="#263238"/>
<path d="M78.784 295.507C78.7599 295.532 78.729 295.549 78.6957 295.554C78.6624 295.559 78.6285 295.553 78.5988 295.536C73.6449 292.471 70.7128 287.134 70.951 281.599C70.9562 281.564 70.9739 281.532 71.0004 281.51C71.027 281.487 71.0604 281.477 71.0939 281.48C71.1103 281.48 71.1267 281.482 71.1421 281.489C71.1575 281.495 71.1715 281.504 71.1834 281.516C71.1953 281.529 71.2047 281.543 71.2112 281.559C71.2176 281.575 71.2209 281.593 71.2209 281.61C70.988 287.055 73.8672 292.313 78.7523 295.321C78.7663 295.329 78.7786 295.34 78.7883 295.354C78.798 295.367 78.8048 295.383 78.8083 295.399C78.8118 295.416 78.812 295.433 78.8087 295.45C78.8054 295.467 78.7988 295.482 78.7893 295.496L78.784 295.507Z" fill="#263238"/>
<path d="M76.5034 290.526C75.1432 291.408 76.297 293.664 76.3658 293.653C76.5616 293.839 76.768 294.026 76.9797 294.218C76.8051 293.902 76.9109 293.031 77.509 292.008C78.1071 290.984 77.7683 289.661 76.5034 290.526Z" fill="#263238"/>
<path d="M72.7099 293.246C71.408 294.184 73.3186 295.264 74.5253 294.75C75.732 294.235 76.6423 294.111 76.9811 294.218C76.7588 294.049 76.5365 293.879 76.3248 293.698C76.2824 293.76 73.996 292.426 72.7099 293.246Z" fill="#263238"/>
<path d="M75.1739 288.598C73.6761 289.26 74.3853 291.64 74.4542 291.634C74.6129 291.849 74.777 292.064 74.9517 292.273C74.8405 291.934 75.1104 291.103 75.8779 290.187C76.6453 289.271 76.5765 287.92 75.1739 288.598Z" fill="#263238"/>
<path d="M70.941 290.685C69.4961 291.38 71.1686 292.754 72.4282 292.437C73.6879 292.121 74.6035 292.126 74.9316 292.285C74.7464 292.087 74.5664 291.889 74.4024 291.68C74.36 291.731 72.3383 290.074 70.941 290.685Z" fill="#263238"/>
<path d="M74.2141 286.495C72.6263 286.919 72.8909 289.367 72.9545 289.373C73.0709 289.605 73.1926 289.842 73.3249 290.074C73.2773 289.724 73.6954 288.943 74.6163 288.169C75.5372 287.394 75.7172 286.049 74.2141 286.495Z" fill="#263238"/>
<path d="M69.664 287.897C68.1185 288.361 69.5158 289.967 70.8125 289.848C72.1092 289.729 73.0089 289.876 73.3053 290.085C73.1571 289.859 73.0142 289.633 72.8819 289.407C72.8395 289.452 71.1565 287.513 69.664 287.897Z" fill="#263238"/>
<path d="M73.6428 284.273C71.9968 284.443 71.8222 286.902 71.8857 286.914C71.9598 287.166 72.0392 287.415 72.1239 287.66C72.1239 287.315 72.6902 286.614 73.7434 285.964C74.7966 285.314 75.2095 284.07 73.6428 284.273Z" fill="#263238"/>
<path d="M68.9069 284.94C67.3192 285.155 68.3777 286.964 69.6902 287.049C71.0028 287.134 71.8496 287.417 72.1037 287.671C71.9978 287.428 71.9025 287.185 71.8073 286.936C71.7596 286.981 70.4418 284.799 68.9069 284.94Z" fill="#263238"/>
<path d="M73.4686 281.972C71.812 281.882 71.2034 284.302 71.2616 284.319C71.2881 284.579 71.3251 284.839 71.3622 285.099C71.4415 284.76 72.1084 284.149 73.2569 283.697C74.4054 283.244 75.0564 282.017 73.4686 281.972Z" fill="#263238"/>
<path d="M68.7017 281.887C67.0768 281.848 67.8284 283.821 69.0986 284.109C70.3688 284.398 71.1574 284.81 71.3638 285.099C71.3056 284.844 71.2474 284.59 71.2051 284.33C71.1363 284.369 70.2312 281.995 68.7017 281.887Z" fill="#263238"/>
<path d="M71.0803 282.809C71.0485 282.837 70.2811 280.694 70.424 279.467C70.5669 278.241 71.5301 278.037 71.98 278.337C72.4299 278.636 72.3346 279.496 72.0858 280.168C71.8371 280.841 71.0485 282.792 71.0803 282.809Z" fill="#263238"/>
<path d="M71.1567 282.877C71.1406 282.887 71.1224 282.892 71.1038 282.892C71.0852 282.892 71.067 282.887 71.0509 282.877C71.0509 282.877 71.0138 282.877 71.0085 282.82C70.5613 281.754 70.3373 280.596 70.3523 279.428C70.3582 279.164 70.4347 278.908 70.5726 278.69C70.7104 278.472 70.904 278.3 71.1303 278.195C71.2793 278.131 71.4402 278.103 71.6007 278.115C71.7612 278.127 71.9171 278.177 72.0565 278.263C72.681 278.693 72.3158 279.846 72.1941 280.191C71.8977 280.819 71.2255 282.6 71.1885 282.775C71.1939 282.783 71.1974 282.793 71.1987 282.804C71.2 282.814 71.199 282.824 71.196 282.834C71.1929 282.844 71.1878 282.853 71.181 282.86C71.1742 282.868 71.1659 282.873 71.1567 282.877ZM70.818 278.659C70.6415 278.89 70.5378 279.175 70.5216 279.473C70.508 280.524 70.6879 281.567 71.0509 282.543C71.1091 282.373 71.2044 282.113 71.3579 281.706C71.559 281.186 71.8289 280.502 71.993 280.157C72.2258 279.513 72.3317 278.715 71.9136 278.427C71.8017 278.359 71.6766 278.32 71.5481 278.312C71.4195 278.304 71.291 278.328 71.1726 278.382C71.0353 278.442 70.9137 278.538 70.818 278.659Z" fill="#263238"/>
<path d="M251.919 174.606C250.702 173.238 249.209 170.468 248.14 168.212C247.929 167.562 247.706 166.923 247.447 166.295C247.241 165.781 247.008 165.283 246.77 164.797C246.77 164.797 246.77 164.763 246.796 164.769C247.166 164.882 249.707 165.368 248.543 162.728C247.378 160.087 242.467 157.453 242.467 157.453C242.467 157.453 243.716 156.265 242.551 155.621C240.892 154.868 239.165 154.299 237.396 153.925C236.745 153.874 230.14 149.577 228.235 149.707C226.33 149.837 227.917 150.9 227.917 150.9C226.726 150.377 225.483 149.998 224.213 149.769C223.43 149.636 222.638 149.585 221.847 149.616C221.847 149.616 217.486 149.435 214.575 151.827C211.664 154.219 211.595 156.491 210.235 158.046C208.875 159.601 202.365 158.504 199.575 160.935C196.786 163.366 198.644 165.933 198.152 166.787C197.66 167.641 192.944 170.745 195.4 174.086C197.289 176.636 204.021 176.913 206.742 177.377C207.102 177.552 207.477 177.721 207.869 177.874C207.229 178.83 203.54 178.134 207.546 180.639C211.182 182.9 215.173 181.77 217.496 182.985C219.259 184.308 220.513 185.659 220.942 186.943C222 190.002 222.768 192.953 222.768 192.953C222.768 192.953 227.928 189.334 230.929 188.04C231.774 187.835 232.654 187.865 233.485 188.124C235.798 188.973 241.482 194.7 243.229 193.665C244.975 192.631 244.06 191.059 244.06 191.059C244.06 191.059 247.929 193.094 248.934 191.833C249.223 191.439 249.418 190.976 249.504 190.484C249.59 189.992 249.563 189.485 249.426 189.006C249.426 189.006 253.661 188.153 255.248 183.777C256.836 179.401 254.179 177.15 251.919 174.606Z" fill="#92E3A9"/>
<path d="M291.415 98.3196C286.392 95.6171 279.289 89.3414 273.992 84.1172C272.769 82.5342 271.509 80.9794 270.165 79.4868C269.069 78.2769 267.916 77.1235 266.735 75.9984C266.735 75.9362 266.735 75.8966 266.788 75.8966C268.064 75.8966 276.553 75.122 270.61 68.9368C264.666 62.7515 246.835 59.6532 246.835 59.6532C246.835 59.6532 249.81 55.4016 245.56 54.627C241.31 53.8524 229.857 53.8581 227.729 54.2426C225.601 54.627 200.986 48.4418 195.042 50.3754C189.098 52.309 195.042 53.8581 195.042 53.8581C195.042 53.8581 187.823 53.0835 182.303 53.8581C176.782 54.6327 174.665 55.4016 174.665 55.4016C174.665 55.4016 160.651 58.4942 153.437 67.3876C146.223 76.2811 147.917 82.4663 144.969 87.877C142.021 93.2877 120.348 95.6114 113.557 104.505C106.767 113.398 114.827 118.809 113.981 121.517C113.134 124.225 100.818 136.596 111.43 143.567C119.57 148.882 141.211 144.172 150.208 143.115C151.507 143.296 152.839 143.435 154.204 143.533C152.992 146.648 140.676 147.807 155.538 151.284C169.002 154.439 180.725 148.067 189.125 149.436C195.841 151.561 200.975 154.185 203.415 157.26C209.353 164.712 214.339 172.062 214.339 172.062C214.339 172.062 227.66 158.001 236.097 152.019C238.626 150.86 241.484 150.007 244.29 150.142C252.355 150.532 275.283 161.354 279.951 157.102C284.619 152.851 280.374 149.368 280.374 149.368C280.374 149.368 294.384 151.691 296.506 147.44C298.629 143.188 295.659 139.315 295.659 139.315C295.659 139.315 308.393 133.52 309.669 120.375C310.944 107.23 300.751 103.346 291.415 98.3196Z" fill="#3DC16A"/>
<path opacity="0.3" d="M291.415 98.3196C286.392 95.6171 279.289 89.3414 273.992 84.1172C272.769 82.5342 271.509 80.9794 270.165 79.4868C269.069 78.2769 267.916 77.1235 266.735 75.9984C266.735 75.9362 266.735 75.8966 266.788 75.8966C268.064 75.8966 276.553 75.122 270.61 68.9368C264.666 62.7515 246.835 59.6532 246.835 59.6532C246.835 59.6532 249.81 55.4016 245.56 54.627C241.31 53.8524 229.857 53.8581 227.729 54.2426C225.601 54.627 200.986 48.4418 195.042 50.3754C189.098 52.309 195.042 53.8581 195.042 53.8581C195.042 53.8581 187.823 53.0835 182.303 53.8581C176.782 54.6327 174.665 55.4016 174.665 55.4016C174.665 55.4016 160.651 58.4942 153.437 67.3876C146.223 76.2811 147.917 82.4663 144.969 87.877C142.021 93.2877 120.348 95.6114 113.557 104.505C106.767 113.398 114.827 118.809 113.981 121.517C113.134 124.225 100.818 136.596 111.43 143.567C111.71 143.748 112.012 143.918 112.319 144.076C116.944 144.178 123.539 141.611 132.568 132.48C154.146 110.667 161.852 109.865 161.852 109.865C161.852 109.865 141.814 111.923 146.44 106.987C151.066 102.051 168.785 96.2842 173.792 95.8715C178.799 95.4588 194.211 95.4588 194.211 95.4588C194.211 95.4588 182.271 89.2905 187.664 87.6396C193.057 85.9887 203.076 87.2325 208.083 88.8778C213.09 90.523 220.028 95.4588 220.028 95.4588C220.028 95.4588 243.887 87.1986 243.115 90.082C242.342 92.9654 238.881 96.256 238.881 96.256C238.881 96.256 263.92 98.7267 262.38 104.488C260.839 110.249 258.146 106.959 260.839 110.249C263.533 113.54 267.773 121.772 280.105 127.126C292.436 132.48 308.229 130.829 302.45 127.126C296.67 123.422 279.718 116.423 295.898 116.423C300.762 116.423 305.477 117.837 309.706 119.815C310.643 107.106 300.619 103.272 291.415 98.3196Z" fill="white"/>
<path d="M218.622 195.989C217.929 178.174 217.336 163.31 217.336 163.31L220.861 151.578C220.861 151.578 228.271 138.009 232.568 133.571C236.866 129.133 248.118 115.275 248.118 115.275C248.118 115.275 238.56 123.835 236.167 126.493C233.775 129.15 230.197 130.62 230.197 130.62C230.197 130.62 231.632 125.311 232.108 124.401C232.584 123.49 235.691 106.987 235.691 106.987C235.691 106.987 231.15 122.631 228.043 129.715C224.936 136.799 214.42 152.738 214.42 152.738L212.748 145.653C212.748 145.653 212.271 134.142 212.509 132.961C212.748 131.779 219.919 110.826 219.919 110.826L210.107 127.397L206.042 96.4087L206.518 130.642C205.675 129.899 204.792 129.21 203.872 128.579C202.914 128.013 190.963 118.249 189.772 116.48C188.582 114.71 182.363 106.15 182.363 106.15L187.126 117.656L174.953 112.053C174.953 112.053 202.914 130.942 204.11 136.545C205.306 142.148 205.698 153.297 205.698 153.297C205.698 153.297 205.968 207.636 205.724 218.276C205.481 228.917 202.766 265.412 202.522 274.814C202.279 284.217 203.025 297.548 203.025 297.548H226.9C226.9 297.548 221.237 270.257 220.496 247.145C220.178 237.205 219.549 220.312 218.935 204.283L233.473 173.187L218.622 195.989Z" fill="#263238"/>
<path d="M226.911 297.831H203.036C202.968 297.833 202.903 297.806 202.853 297.756C202.804 297.706 202.774 297.638 202.772 297.565C202.772 297.435 202.025 284.137 202.269 274.809C202.385 270.32 203.052 259.815 203.761 248.694C204.539 236.47 205.349 223.817 205.471 218.248C205.714 207.732 205.471 153.823 205.444 153.28C205.444 153.173 205.053 142.103 203.857 136.59C202.66 131.078 175.097 112.454 174.821 112.279C174.764 112.241 174.722 112.182 174.705 112.112C174.687 112.043 174.695 111.969 174.726 111.906C174.757 111.842 174.809 111.794 174.872 111.771C174.935 111.748 175.004 111.752 175.065 111.781L186.634 117.102L182.125 106.252C182.1 106.189 182.097 106.118 182.117 106.053C182.136 105.988 182.177 105.932 182.231 105.896C182.286 105.86 182.352 105.848 182.415 105.86C182.478 105.873 182.535 105.909 182.575 105.964C182.639 106.048 188.81 114.546 189.985 116.299C191.091 117.944 202.899 127.64 204.005 128.324C204.777 128.841 205.519 129.408 206.228 130.02L205.783 96.3917C205.777 96.3167 205.8 96.2424 205.846 96.1851C205.891 96.1279 205.956 96.0924 206.026 96.0864C206.097 96.0804 206.166 96.1044 206.22 96.1532C206.273 96.2019 206.307 96.2715 206.312 96.3464L210.271 126.572L219.687 110.696C219.722 110.638 219.776 110.596 219.839 110.578C219.901 110.56 219.967 110.566 220.025 110.597C220.083 110.628 220.129 110.68 220.153 110.744C220.178 110.808 220.179 110.879 220.158 110.945C217.681 118.187 212.944 132.124 212.748 133.045C212.552 133.967 212.859 142.419 212.992 145.631L214.516 152.087C216.331 149.317 225.032 135.889 227.784 129.619C230.849 122.631 235.374 107.083 235.416 106.925C235.434 106.85 235.479 106.785 235.541 106.745C235.603 106.706 235.677 106.694 235.747 106.713C235.817 106.731 235.878 106.779 235.915 106.845C235.952 106.912 235.963 106.991 235.946 107.066C235.628 108.762 232.818 123.666 232.331 124.593C231.659 126.412 231.081 128.269 230.6 130.156C232.585 129.22 234.397 127.913 235.951 126.295C238.327 123.66 247.827 115.145 247.923 115.061C247.972 115.012 248.036 114.985 248.103 114.985C248.169 114.985 248.234 115.012 248.283 115.061C248.327 115.113 248.351 115.182 248.351 115.253C248.351 115.324 248.327 115.392 248.283 115.445C248.171 115.581 236.993 129.376 232.733 133.758C228.594 138.015 221.454 151.002 221.089 151.675L217.591 163.333C217.628 164.271 218.184 178.281 218.84 195.124L233.246 173.035C233.286 172.977 233.344 172.937 233.409 172.922C233.475 172.907 233.543 172.919 233.601 172.955C233.659 172.991 233.701 173.049 233.72 173.118C233.739 173.186 233.732 173.26 233.701 173.323L219.216 204.345C219.983 224.377 220.507 238.771 220.772 247.133C221.502 269.958 227.123 297.215 227.165 297.486C227.175 297.527 227.176 297.57 227.168 297.611C227.159 297.652 227.142 297.691 227.117 297.724C227.093 297.757 227.061 297.783 227.025 297.802C226.99 297.82 226.951 297.83 226.911 297.831ZM203.285 297.266H226.572C225.916 294.026 220.92 268.635 220.221 247.156C219.957 238.783 219.427 224.365 218.66 204.294C218.658 204.246 218.667 204.197 218.686 204.153L231.621 176.585L218.845 196.17C218.813 196.218 218.768 196.254 218.716 196.274C218.664 196.293 218.607 196.294 218.554 196.277C218.5 196.262 218.453 196.228 218.419 196.181C218.384 196.134 218.365 196.077 218.364 196.017C217.67 178.202 217.077 163.338 217.077 163.338C217.072 163.307 217.072 163.274 217.077 163.242L220.602 151.494C220.601 151.475 220.601 151.456 220.602 151.437C220.909 150.872 228.081 137.772 232.357 133.345C235.422 130.196 242.08 122.156 245.589 117.865C242.577 120.601 237.877 124.926 236.316 126.662C234.563 128.465 232.502 129.891 230.245 130.863C230.199 130.882 230.149 130.887 230.1 130.877C230.052 130.867 230.007 130.842 229.97 130.806C229.933 130.772 229.906 130.727 229.893 130.677C229.88 130.627 229.881 130.573 229.896 130.524C229.954 130.303 231.341 125.164 231.828 124.259C232.087 123.784 233.305 117.757 234.421 111.985C232.833 117.198 230.224 125.3 228.24 129.834C225.154 136.856 214.696 152.737 214.59 152.896C214.562 152.942 214.522 152.978 214.475 153C214.428 153.021 214.377 153.028 214.326 153.018C214.276 153.008 214.229 152.983 214.192 152.945C214.155 152.907 214.13 152.859 214.119 152.805L212.446 145.721C212.446 145.721 212.446 145.682 212.446 145.665C212.446 145.195 211.97 134.103 212.214 132.898C212.409 131.948 216.882 118.764 218.792 113.195L210.324 127.505C210.296 127.555 210.254 127.594 210.203 127.616C210.153 127.639 210.097 127.643 210.044 127.629C209.991 127.617 209.942 127.587 209.905 127.545C209.868 127.502 209.845 127.449 209.837 127.391L206.365 100.903L206.778 130.597C206.78 130.651 206.767 130.703 206.741 130.749C206.714 130.794 206.676 130.83 206.63 130.852C206.585 130.875 206.535 130.885 206.485 130.879C206.435 130.873 206.388 130.852 206.349 130.818C205.523 130.083 204.657 129.402 203.756 128.777C202.735 128.149 190.789 118.396 189.572 116.598C188.736 115.36 185.401 110.741 183.507 108.118L187.402 117.497C187.423 117.55 187.429 117.608 187.42 117.664C187.41 117.72 187.386 117.772 187.349 117.814C187.31 117.854 187.262 117.88 187.209 117.89C187.156 117.9 187.102 117.894 187.053 117.87L177.812 113.619C184.898 118.543 203.391 131.773 204.386 136.438C205.571 142.007 205.974 153.133 205.974 153.246C205.974 153.812 206.243 207.715 206 218.265C205.868 223.857 205.063 236.504 204.291 248.733C203.581 259.854 202.914 270.353 202.798 274.831C202.576 283.402 203.184 295.343 203.285 297.266Z" fill="#263238"/>
<path d="M74.9921 294.06H80.9886L79.7396 291.391L83.7355 294.597L83.9842 290.323L86.2336 293.263L87.7314 288.988L89.2292 293.263L94.7282 289.526L93.4791 294.326L97.7238 291.928L98.4754 294.326L102.974 292.46L103.472 294.863H197.653V292.726L200.649 294.597L202.147 290.86L203.396 293.263L207.894 285.523L208.392 292.991L211.642 288.723L211.89 292.194L213.891 289.26V293.528L215.886 287.388L219.136 294.06L217.135 283.923L222.883 295.129L224.132 286.054L225.381 294.06L229.377 282.588L228.88 293.528L238.12 287.926L236.125 292.991L238.872 293.263L246.864 294.863L249.611 291.657L250.113 294.597H274.094L243.619 298.329L258.857 300.466L230.129 301.534L231.378 303.4H219.887L203.645 305L213.388 301.534L182.411 304.203L165.675 304.734H152.185L159.181 302.066H145.188L150.438 300.466L123.456 301.003L131.199 302.337L98.2266 300.2L105.721 297.531L66 296.729L74.9921 294.06Z" fill="#92E3A9"/>
<path d="M186.769 206.477C186.769 206.477 178.909 210.124 176.607 214.686C174.305 219.249 175.495 222.534 178.142 224.908C180.788 227.283 181.217 228.006 179.597 230.381C177.978 232.756 177.628 236.221 179.597 238.296C181.566 240.371 185.234 241.762 185.059 243.385C184.885 245.007 181.645 244.482 182.498 248.863C183.35 253.245 186.599 253.878 192.834 251.6C199.069 249.321 203.848 243.475 205.044 236.9C206.24 230.325 202.144 222.392 196.332 216.823C192.935 213.603 189.74 210.146 186.769 206.477Z" fill="#7D7D7D"/>
<path d="M187.091 253.211C186.153 253.248 185.222 253.02 184.392 252.55C183.281 251.877 182.582 250.701 182.238 248.96C181.651 245.952 182.942 245.075 183.889 244.436C184.419 244.075 184.752 243.832 184.8 243.402C184.884 242.582 183.598 241.706 182.238 240.767C181.224 240.119 180.276 239.361 179.406 238.506C177.289 236.216 177.819 232.518 179.406 230.2C180.91 228.001 180.571 227.419 177.999 225.112C174.823 222.285 174.294 218.712 176.411 214.539C178.734 209.948 186.377 206.358 186.7 206.205C186.752 206.181 186.81 206.175 186.866 206.189C186.921 206.204 186.971 206.237 187.007 206.285C189.97 209.957 193.152 213.42 196.533 216.654C202.996 222.873 206.446 230.833 205.324 237.007C204.096 243.758 199.238 249.61 192.94 251.911C191.067 252.674 189.093 253.112 187.091 253.211ZM186.694 206.85C185.519 207.415 178.882 210.808 176.84 214.85C174.865 218.751 175.363 222.07 178.311 224.716C181.031 227.153 181.534 228.052 179.809 230.573C178.353 232.705 177.845 236.08 179.782 238.144C180.623 238.967 181.542 239.694 182.524 240.315C184.112 241.389 185.445 242.316 185.324 243.487C185.249 244.205 184.699 244.578 184.17 244.94C183.27 245.55 182.243 246.246 182.757 248.869C183.064 250.446 183.683 251.498 184.651 252.092C186.239 253.059 188.817 252.838 192.749 251.396C198.867 249.135 203.594 243.481 204.784 236.923C205.875 230.952 202.487 223.178 196.158 217.134C192.804 213.912 189.643 210.468 186.694 206.822V206.85Z" fill="#263238"/>
<path d="M185.669 240.321C185.389 240.319 185.109 240.291 184.833 240.236C184.764 240.222 184.704 240.18 184.664 240.118C184.624 240.057 184.609 239.981 184.621 239.908C184.626 239.871 184.638 239.835 184.657 239.804C184.675 239.772 184.7 239.744 184.729 239.723C184.757 239.702 184.79 239.687 184.824 239.68C184.859 239.673 184.894 239.674 184.928 239.682C185.993 239.884 187.089 239.632 187.982 238.981C188.009 238.955 188.041 238.936 188.075 238.924C188.11 238.912 188.146 238.908 188.182 238.912C188.218 238.916 188.253 238.927 188.285 238.946C188.316 238.965 188.344 238.99 188.366 239.021C188.388 239.051 188.404 239.086 188.413 239.124C188.422 239.161 188.424 239.2 188.418 239.238C188.412 239.276 188.399 239.313 188.38 239.345C188.36 239.378 188.335 239.406 188.305 239.427C187.534 240.01 186.613 240.322 185.669 240.321Z" fill="#263238"/>
<path d="M182.624 239.116C182.566 239.117 182.511 239.097 182.465 239.06C182.185 238.826 181.918 238.575 181.666 238.308C179.337 235.814 181.29 233.135 182.724 231.178C183.433 230.2 184.111 229.279 184.031 228.696C183.915 227.769 183.095 226.955 182.063 225.932C180.812 224.781 179.718 223.449 178.813 221.974C177.818 220.238 178.358 217.948 180.401 215.353C180.446 215.296 180.51 215.259 180.58 215.252C180.65 215.246 180.72 215.269 180.774 215.317C180.828 215.365 180.862 215.434 180.868 215.508C180.875 215.583 180.853 215.657 180.808 215.715C179.506 217.383 178.162 219.769 179.284 221.674C180.163 223.116 181.233 224.415 182.46 225.53C183.571 226.633 184.45 227.503 184.577 228.634C184.677 229.448 183.973 230.415 183.158 231.535C181.703 233.525 180.062 235.781 182.063 237.918C182.296 238.17 182.545 238.404 182.809 238.619C182.864 238.665 182.9 238.732 182.909 238.806C182.918 238.88 182.899 238.955 182.857 239.015C182.828 239.05 182.792 239.078 182.752 239.096C182.711 239.114 182.667 239.121 182.624 239.116Z" fill="#263238"/>
<path d="M181.435 214.799C181.367 214.799 181.3 214.77 181.25 214.72C181.225 214.694 181.206 214.663 181.192 214.628C181.179 214.594 181.172 214.557 181.172 214.519C181.172 214.482 181.179 214.445 181.192 214.411C181.206 214.376 181.225 214.345 181.25 214.319C181.634 213.891 182.038 213.485 182.462 213.103C182.518 213.057 182.588 213.036 182.657 213.043C182.727 213.051 182.792 213.086 182.838 213.143C182.882 213.201 182.903 213.275 182.896 213.349C182.889 213.423 182.855 213.491 182.801 213.538C182.801 213.538 182.272 213.996 181.631 214.714C181.606 214.742 181.575 214.764 181.541 214.778C181.508 214.793 181.472 214.8 181.435 214.799Z" fill="#263238"/>
<path d="M168.732 264.36C168.732 264.36 158.602 260.612 152.626 258.531C146.651 256.451 145.614 256.032 144.058 257.401C142.502 258.769 128.709 273.91 126.132 276.132C123.554 278.354 122.109 279.875 122.109 279.875L124.057 283.482C124.057 283.482 130.027 280.57 137.564 276.821C145.1 273.073 148.863 269.33 148.863 269.33C148.863 269.33 159.512 277.517 163.926 280.152C168.34 282.786 173.538 285.839 173.538 285.839C175.433 284.471 177.255 282.989 178.994 281.401C180.81 279.597 181.074 272.383 181.074 272.383L168.732 264.36Z" fill="#263238"/>
<path d="M173.539 286.145C173.495 286.144 173.452 286.133 173.412 286.111C173.359 286.083 168.167 283.029 163.801 280.423C159.731 277.992 150.273 270.783 148.881 269.715C148.093 270.438 144.303 273.831 137.677 277.104C130.23 280.808 124.228 283.736 124.165 283.764C124.104 283.792 124.037 283.795 123.974 283.773C123.912 283.751 123.859 283.706 123.826 283.646L121.878 280.05C121.85 279.996 121.838 279.934 121.846 279.873C121.854 279.811 121.88 279.755 121.921 279.711C121.921 279.711 123.392 278.145 125.97 275.945C127.478 274.651 132.929 268.821 137.306 264.14C140.482 260.748 143.234 257.797 143.89 257.214C145.52 255.767 146.674 256.168 152.237 258.108L152.713 258.277C158.62 260.335 168.718 264.067 168.824 264.106H168.871L181.214 272.152C181.253 272.179 181.285 272.217 181.306 272.262C181.327 272.306 181.338 272.356 181.335 272.406C181.335 272.706 181.055 279.756 179.176 281.622C177.428 283.222 175.596 284.713 173.688 286.088C173.644 286.121 173.593 286.141 173.539 286.145ZM148.865 269.07C148.921 269.07 148.975 269.09 149.019 269.127C149.125 269.206 159.705 277.33 164.06 279.931C168.019 282.294 172.661 285.02 173.524 285.534C175.363 284.205 177.13 282.765 178.816 281.22C180.404 279.66 180.748 273.638 180.801 272.559L168.628 264.615C168.04 264.4 158.307 260.804 152.554 258.803L152.078 258.633C146.621 256.734 145.637 256.372 144.234 257.638C143.594 258.204 140.858 261.132 137.687 264.525C133.072 269.466 127.838 275.063 126.308 276.398C124.191 278.184 122.868 279.535 122.445 279.971L124.17 283.165C125.319 282.6 130.812 279.92 137.46 276.612C144.869 272.926 148.654 269.206 148.691 269.172C148.712 269.143 148.738 269.12 148.768 269.102C148.798 269.085 148.831 269.074 148.865 269.07Z" fill="#263238"/>
<path d="M172.028 280.423C172.028 280.423 169.038 281.413 155.028 281.413C141.019 281.413 141.119 281.633 136.07 282.843C131.021 284.053 120.822 285.138 118.986 285.138H115.069L114.969 291.963C114.969 291.963 122.796 293.28 130.423 294.162C138.05 295.044 147.322 293.5 151.44 293.393C155.558 293.285 164.735 295.92 176.58 296.695C188.425 297.469 194.305 294.71 195.104 294.382C195.903 294.054 172.028 280.423 172.028 280.423Z" fill="#263238"/>
<path d="M180.567 297.124C179.26 297.124 177.921 297.079 176.54 296.994C170.875 296.558 165.236 295.803 159.646 294.733C156.062 294.111 153.231 293.602 151.426 293.664C150.219 293.692 148.558 293.851 146.636 294.032C142.053 294.461 135.776 295.055 130.372 294.433C122.825 293.562 114.981 292.239 114.902 292.228C114.84 292.216 114.784 292.181 114.743 292.13C114.702 292.078 114.68 292.013 114.68 291.945L114.78 285.121C114.783 285.048 114.812 284.978 114.861 284.926C114.91 284.875 114.976 284.846 115.045 284.844H118.983C120.697 284.844 130.965 283.753 136.03 282.537L136.977 282.311C141.185 281.288 141.942 281.107 155.046 281.107C168.807 281.107 171.935 280.14 171.983 280.129C172.047 280.101 172.119 280.101 172.184 280.129C195.471 293.432 195.439 294.122 195.424 294.354C195.416 294.413 195.394 294.468 195.361 294.516C195.328 294.563 195.284 294.601 195.233 294.625L195.079 294.687C191.285 296.299 186.246 297.124 180.567 297.124ZM151.675 293.121C153.527 293.121 156.285 293.602 159.73 294.207C165.304 295.266 170.925 296.013 176.571 296.446C183.711 296.909 190.126 296.146 194.667 294.292C192.798 292.788 180.408 285.545 171.993 280.723C171.337 280.898 167.664 281.695 155.025 281.695C141.979 281.695 141.233 281.876 137.078 282.888L136.125 283.12C130.917 284.364 120.745 285.438 118.961 285.438H115.31L115.214 291.736C116.553 291.957 123.614 293.11 130.425 293.896C135.781 294.518 142.027 293.924 146.589 293.5C148.521 293.314 150.188 293.155 151.41 293.127L151.675 293.121Z" fill="#263238"/>
<path d="M118.55 284.007L118.365 293.155C118.418 293.365 113.951 292.794 109.981 292.46C105.403 292.075 105.144 291.267 104.863 290.572C104.583 289.876 104.022 283.787 104.022 283.787C104.022 283.787 101.418 277.715 101.603 274.961C101.788 272.208 104.583 266.204 105.144 267.199C105.705 268.194 108.679 275.956 108.679 275.956C108.679 275.956 112.495 280.926 114.734 282.119C116.973 283.312 118.55 284.007 118.55 284.007Z" fill="#7D7D7D"/>
<path d="M118.105 293.461C117.634 293.461 116.618 293.37 114.273 293.133C112.934 292.997 111.415 292.844 109.96 292.72C105.286 292.324 104.937 291.453 104.63 290.69C104.323 289.927 103.841 284.669 103.762 283.86C103.513 283.261 101.158 277.641 101.338 274.91C101.507 272.372 103.815 267.063 104.863 266.797C104.962 266.762 105.071 266.766 105.168 266.809C105.265 266.851 105.344 266.929 105.392 267.029C105.921 268.002 108.679 275.114 108.933 275.781C109.266 276.211 112.812 280.74 114.876 281.842C117.078 283.018 118.661 283.713 118.676 283.725C118.726 283.746 118.768 283.782 118.798 283.83C118.827 283.877 118.842 283.934 118.841 283.99L118.655 293.138C118.651 293.207 118.629 293.274 118.592 293.331C118.502 293.41 118.454 293.461 118.105 293.461ZM104.937 267.363C104.27 267.719 102.042 272.355 101.867 274.95C101.687 277.636 104.238 283.606 104.265 283.668C104.27 283.698 104.27 283.729 104.265 283.759C104.487 286.178 104.889 289.978 105.085 290.436C105.329 291.058 105.614 291.787 109.981 292.132C111.436 292.256 112.96 292.409 114.305 292.55C115.893 292.709 117.539 292.878 118.084 292.878L118.258 284.149C117.793 283.934 116.395 283.289 114.591 282.323C112.331 281.118 108.61 276.29 108.451 276.103C108.436 276.083 108.423 276.06 108.414 276.036C108.398 275.956 105.54 268.499 104.937 267.363Z" fill="#263238"/>
<path d="M107.217 291.77C107.157 291.769 107.1 291.747 107.053 291.708C106.174 290.956 105.926 289.52 105.661 287.999C105.592 287.586 105.518 287.168 105.428 286.744C105.253 285.913 104.645 284.024 103.999 282.023C102.941 278.749 102.258 276.556 102.258 275.877C102.258 275.199 102.898 273.395 104.163 270.376C104.176 270.34 104.195 270.307 104.221 270.279C104.246 270.252 104.276 270.23 104.309 270.215C104.343 270.2 104.379 270.193 104.415 270.193C104.451 270.194 104.486 270.202 104.519 270.218C104.552 270.234 104.582 270.257 104.606 270.286C104.631 270.314 104.649 270.348 104.661 270.384C104.673 270.421 104.677 270.459 104.675 270.498C104.672 270.536 104.662 270.574 104.645 270.608C102.967 274.616 102.787 275.628 102.787 275.877C102.787 276.516 103.697 279.343 104.502 281.836C105.153 283.855 105.767 285.76 105.947 286.625C106.037 287.049 106.111 287.479 106.18 287.897C106.439 289.373 106.661 290.645 107.386 291.289C107.441 291.336 107.476 291.404 107.484 291.478C107.492 291.552 107.472 291.627 107.429 291.685C107.401 291.714 107.368 291.737 107.331 291.751C107.295 291.766 107.256 291.772 107.217 291.77Z" fill="#263238"/>
<path d="M105.032 269.308C104.993 269.309 104.955 269.299 104.921 269.279C104.857 269.248 104.808 269.192 104.783 269.122C104.758 269.052 104.76 268.974 104.789 268.906L105.038 268.341C105.052 268.308 105.073 268.278 105.099 268.253C105.124 268.229 105.154 268.21 105.187 268.198C105.219 268.185 105.254 268.18 105.288 268.183C105.322 268.185 105.356 268.194 105.387 268.211C105.418 268.226 105.447 268.248 105.47 268.275C105.494 268.302 105.512 268.334 105.524 268.369C105.536 268.403 105.541 268.44 105.539 268.477C105.538 268.514 105.529 268.551 105.514 268.584C105.514 268.584 105.419 268.793 105.27 269.149C105.249 269.197 105.215 269.238 105.173 269.266C105.131 269.294 105.082 269.308 105.032 269.308Z" fill="#263238"/>
<path d="M180.168 266.113C180.168 266.113 177.998 265.989 172.981 264.53C167.964 263.071 164.767 261.138 164.539 262.212C164.312 263.286 168.99 270.257 171.499 273.18C173.02 274.941 174.947 276.244 177.088 276.957C174.772 277.782 172.521 278.801 170.356 280.005C167.18 281.831 165.111 282.198 166.122 283.171C167.133 284.143 179.353 293.161 185.969 296.09C189.822 297.823 193.897 298.931 198.057 299.374C198.057 299.374 203.419 299.742 205.245 297.548C207.071 295.355 211.977 288.53 211.977 286.461C211.977 284.392 210.95 283.538 210.389 282.684C209.828 281.831 207.896 269.404 207.896 267.329C207.896 265.254 207.573 262.336 209.399 260.753C211.225 259.17 213.464 252.567 213.924 249.644C214.385 246.721 214.718 242.107 212.337 240.224C209.955 238.342 204.657 242.067 203.101 242.107C201.545 242.147 188.954 249.174 186.334 254.783C184.461 258.669 182.403 262.451 180.168 266.113Z" fill="#CE7A63"/>
<path d="M198.977 299.686C198.448 299.686 198.115 299.686 198.062 299.657C193.873 299.205 189.771 298.09 185.889 296.35C179.225 293.404 166.915 284.285 165.967 283.38C165.853 283.293 165.761 283.176 165.7 283.041C165.639 282.905 165.611 282.755 165.618 282.605C165.698 282.04 166.417 281.695 167.735 281.056C168.423 280.717 169.286 280.299 170.239 279.756C172.182 278.67 174.197 277.737 176.267 276.963C174.38 276.183 172.684 274.956 171.308 273.373C169.191 270.896 164.004 263.513 164.284 262.15C164.303 262.059 164.34 261.973 164.392 261.898C164.444 261.823 164.51 261.761 164.586 261.715C165.115 261.398 166.211 261.816 168.185 262.568C169.508 263.072 171.149 263.699 173.054 264.264C175.338 264.987 177.672 265.511 180.035 265.831C182.229 262.219 184.251 258.492 186.095 254.664C188.773 248.937 201.518 241.881 203.09 241.836C203.899 241.665 204.683 241.382 205.424 240.993C207.673 239.993 210.753 238.63 212.489 240.01C214.379 241.502 214.945 244.765 214.178 249.7C213.728 252.578 211.468 259.312 209.563 260.98C208.065 262.28 208.107 264.632 208.144 266.52C208.144 266.803 208.144 267.086 208.144 267.34C208.144 269.602 210.118 281.808 210.605 282.532C210.706 282.685 210.827 282.843 210.954 283.007C211.794 283.937 212.259 285.181 212.251 286.473C212.251 288.802 206.89 296.016 205.455 297.746C204.021 299.476 200.623 299.686 198.977 299.686ZM165.031 262.173C164.958 262.168 164.886 262.181 164.819 262.212C164.809 262.219 164.801 262.228 164.794 262.239C164.788 262.25 164.784 262.262 164.782 262.274C164.613 263.1 168.862 269.709 171.662 272.988C173.164 274.703 175.06 275.968 177.161 276.658C177.216 276.674 177.264 276.709 177.299 276.757C177.335 276.804 177.355 276.863 177.357 276.923C177.359 276.985 177.343 277.046 177.309 277.096C177.275 277.146 177.227 277.183 177.172 277.2C174.874 278.026 172.64 279.039 170.487 280.231C169.519 280.796 168.651 281.209 167.952 281.548C167.042 281.989 166.179 282.413 166.142 282.679C166.142 282.735 166.2 282.837 166.317 282.95C167.259 283.844 179.474 292.89 186.09 295.813C189.92 297.53 193.967 298.633 198.099 299.086C198.152 299.086 203.349 299.414 205.069 297.351C207.059 294.953 211.732 288.355 211.732 286.45C211.739 285.289 211.317 284.171 210.558 283.34C210.42 283.171 210.293 283.001 210.182 282.837C209.51 281.831 207.625 269.206 207.625 267.318C207.625 267.063 207.625 266.792 207.625 266.509C207.588 264.496 207.541 261.986 209.24 260.522C210.939 259.057 213.183 252.674 213.664 249.582C214.389 244.94 213.876 241.779 212.188 240.439C210.69 239.252 207.768 240.547 205.635 241.491C204.84 241.916 203.992 242.215 203.116 242.379C201.608 242.418 189.112 249.485 186.577 254.896C184.693 258.796 182.624 262.591 180.379 266.266C180.354 266.309 180.319 266.343 180.277 266.366C180.235 266.389 180.188 266.399 180.141 266.396C180.051 266.396 177.892 266.255 172.901 264.802C170.974 264.236 169.323 263.609 167.994 263.105C167.043 262.675 166.049 262.362 165.031 262.173Z" fill="#263238"/>
<path d="M187.547 263.394C187.507 263.394 187.469 263.385 187.433 263.367C187.397 263.349 187.366 263.324 187.34 263.292C187.296 263.234 187.276 263.16 187.283 263.086C187.29 263.012 187.324 262.943 187.377 262.896C189.494 261.025 192.548 258.249 195.226 255.62C199.72 251.198 203.012 247.303 203.049 247.263C203.097 247.213 203.161 247.184 203.229 247.182C203.296 247.181 203.362 247.207 203.412 247.256C203.462 247.304 203.492 247.371 203.498 247.443C203.503 247.515 203.483 247.586 203.44 247.642C203.409 247.682 200.101 251.6 195.586 256.032C192.903 258.673 189.822 261.46 187.716 263.331C187.667 263.371 187.608 263.393 187.547 263.394Z" fill="#263238"/>
<path d="M185.194 265.452C185.154 265.452 185.115 265.443 185.08 265.426C185.044 265.408 185.012 265.382 184.987 265.35C184.944 265.291 184.924 265.216 184.931 265.141C184.938 265.067 184.971 264.998 185.024 264.949C185.024 264.949 185.553 264.519 186.347 263.818C186.374 263.794 186.405 263.776 186.438 263.765C186.471 263.754 186.506 263.75 186.54 263.754C186.575 263.758 186.608 263.769 186.639 263.786C186.669 263.804 186.696 263.828 186.718 263.857C186.762 263.915 186.782 263.989 186.775 264.063C186.768 264.137 186.734 264.206 186.681 264.253C185.86 264.977 185.358 265.384 185.358 265.384C185.313 265.428 185.254 265.452 185.194 265.452Z" fill="#263238"/>
<path d="M188.038 284.183C187.988 284.184 187.938 284.17 187.895 284.143C187.324 283.755 186.775 283.332 186.249 282.877C186.203 282.827 186.175 282.761 186.172 282.691C186.169 282.621 186.19 282.552 186.232 282.498C186.273 282.444 186.332 282.408 186.397 282.397C186.462 282.387 186.528 282.403 186.583 282.441C187.089 282.883 187.619 283.293 188.17 283.668C188.229 283.709 188.271 283.772 188.285 283.846C188.3 283.919 188.288 283.995 188.25 284.058C188.227 284.096 188.195 284.127 188.158 284.148C188.121 284.17 188.08 284.182 188.038 284.183Z" fill="#263238"/>
<path d="M185.279 281.853C185.211 281.853 185.147 281.825 185.099 281.774C183.51 280.15 182.219 278.223 181.293 276.092C181.28 276.058 181.273 276.021 181.273 275.983C181.274 275.946 181.281 275.909 181.294 275.875C181.308 275.84 181.327 275.809 181.352 275.783C181.377 275.757 181.406 275.736 181.439 275.722C181.471 275.708 181.506 275.701 181.541 275.701C181.575 275.701 181.61 275.708 181.642 275.723C181.674 275.737 181.704 275.758 181.728 275.785C181.753 275.811 181.772 275.843 181.785 275.877C182.692 277.936 183.948 279.798 185.49 281.367C185.515 281.393 185.535 281.425 185.548 281.459C185.562 281.494 185.568 281.53 185.568 281.568C185.568 281.605 185.562 281.642 185.548 281.677C185.535 281.711 185.515 281.742 185.49 281.769C185.463 281.798 185.43 281.821 185.393 281.836C185.357 281.85 185.317 281.856 185.279 281.853Z" fill="#263238"/>
<path d="M188.652 241.417C188.652 241.417 188.224 240.598 190.769 238.868C192.989 237.255 195.129 235.518 197.179 233.666L199.227 237.313C199.227 237.313 193.675 241.875 191.965 242.333C190.256 242.791 188.652 241.417 188.652 241.417Z" fill="white"/>
<path d="M191.257 242.735C190.256 242.686 189.291 242.316 188.489 241.672C188.464 241.646 188.441 241.618 188.421 241.587C188.331 241.406 188.008 240.456 190.649 238.653C192.848 237.046 194.968 235.319 197 233.479C197.03 233.453 197.064 233.433 197.102 233.421C197.139 233.409 197.178 233.406 197.217 233.411C197.255 233.42 197.291 233.436 197.323 233.459C197.354 233.482 197.381 233.512 197.402 233.547L199.45 237.2C199.484 237.259 199.496 237.33 199.483 237.398C199.47 237.466 199.434 237.526 199.382 237.567C199.154 237.754 193.771 242.169 192.03 242.655C191.777 242.715 191.517 242.742 191.257 242.735ZM188.892 241.287C189.225 241.53 190.559 242.452 191.919 242.084C193.385 241.694 197.916 238.065 198.895 237.273L197.127 234.124C195.143 235.907 193.075 237.579 190.929 239.133C189.077 240.36 188.902 241.072 188.892 241.259V241.287Z" fill="#263238"/>
<path d="M183.866 213.408C183.866 213.408 182.247 218.152 182.586 220.346C182.924 222.539 184.703 225.361 184.978 226.729C185.253 228.097 184.041 229.923 184.549 230.652C185.057 231.382 186.941 231.218 186.941 231.218C186.941 231.218 188.397 232.677 189.418 233.592C190.44 234.508 193.351 236.238 194.034 235.961C194.593 235.679 195.111 235.31 195.568 234.865L197.019 236.6L201.782 232.315C201.782 232.315 201.782 229.12 198.606 226.661C195.431 224.201 188.445 218.904 186.735 216.535C185.688 215.065 184.853 213.435 184.258 211.701L183.866 213.408Z" fill="white"/>
<path d="M197.016 236.866C196.979 236.865 196.943 236.856 196.909 236.84C196.875 236.823 196.845 236.8 196.82 236.77L195.54 235.243C195.115 235.64 194.637 235.966 194.121 236.21C193.216 236.572 190.12 234.565 189.247 233.79C188.373 233.016 187.172 231.817 186.844 231.495C186.378 231.523 184.859 231.569 184.335 230.822C183.996 230.336 184.208 229.584 184.43 228.787C184.666 228.151 184.764 227.467 184.716 226.785C184.487 225.977 184.18 225.197 183.801 224.456C183.139 223.178 182.642 221.811 182.324 220.391C181.98 218.186 183.499 213.657 183.615 213.324L184.039 211.628C184.052 211.569 184.083 211.516 184.127 211.478C184.171 211.44 184.226 211.419 184.282 211.418C184.339 211.416 184.395 211.434 184.442 211.469C184.488 211.503 184.523 211.553 184.542 211.611C185.132 213.313 185.954 214.913 186.982 216.36C188.474 218.435 194.19 222.867 197.609 225.513L198.8 226.435C202.028 228.951 202.065 232.179 202.065 232.32C202.065 232.362 202.057 232.402 202.04 232.439C202.024 232.477 202 232.509 201.97 232.535L197.207 236.821C197.151 236.86 197.083 236.876 197.016 236.866ZM195.566 234.565C195.6 234.565 195.634 234.573 195.666 234.589C195.697 234.604 195.724 234.627 195.746 234.655L197.027 236.188L201.515 232.162C201.392 231.098 201.056 230.075 200.531 229.161C200.006 228.247 199.304 227.464 198.472 226.865L197.313 225.949C193.872 223.28 188.119 218.825 186.574 216.682C185.679 215.421 184.934 214.046 184.356 212.589L184.139 213.482C184.139 213.533 182.552 218.186 182.874 220.267C183.185 221.634 183.663 222.952 184.298 224.185C184.703 224.964 185.026 225.789 185.261 226.644C185.328 227.412 185.227 228.187 184.965 228.906C184.785 229.533 184.605 230.178 184.785 230.438C185.097 230.879 186.272 230.941 186.944 230.873C187.02 230.871 187.094 230.899 187.151 230.952C187.151 230.952 188.606 232.417 189.612 233.31C190.729 234.299 193.465 235.831 193.962 235.634C194.493 235.365 194.983 235.015 195.418 234.593C195.464 234.569 195.515 234.559 195.566 234.565Z" fill="#263238"/>
<path d="M185.577 224.739H185.545C185.406 224.73 185.275 224.662 185.182 224.551C185.089 224.44 185.04 224.294 185.048 224.145C185.068 223.846 185.145 223.556 185.274 223.29C185.403 223.025 185.582 222.79 185.799 222.601C186.09 222.386 186.423 222.243 186.773 222.183C187.123 222.124 187.481 222.149 187.821 222.257C187.961 222.287 188.084 222.376 188.163 222.504C188.242 222.632 188.27 222.788 188.242 222.938C188.213 223.088 188.13 223.219 188.01 223.304C187.89 223.388 187.744 223.418 187.604 223.387C187.415 223.322 187.215 223.3 187.017 223.323C186.819 223.345 186.628 223.411 186.455 223.517C186.26 223.702 186.136 223.958 186.106 224.235C186.092 224.374 186.03 224.503 185.932 224.596C185.834 224.688 185.708 224.739 185.577 224.739Z" fill="#263238"/>
<path d="M187.286 226.74C187.24 226.74 187.195 226.728 187.155 226.704C187.115 226.68 187.082 226.646 187.058 226.604L186.529 225.688C186.494 225.625 186.483 225.548 186.5 225.477C186.517 225.405 186.56 225.343 186.619 225.304C186.648 225.284 186.682 225.27 186.716 225.264C186.751 225.258 186.786 225.259 186.821 225.268C186.855 225.277 186.887 225.294 186.915 225.316C186.943 225.339 186.966 225.367 186.984 225.4L187.402 226.146C187.909 226.077 188.384 225.842 188.762 225.474C188.782 225.443 188.808 225.417 188.837 225.397C188.867 225.377 188.9 225.364 188.934 225.357C188.969 225.351 189.004 225.352 189.038 225.36C189.072 225.369 189.104 225.384 189.133 225.406C189.188 225.451 189.226 225.517 189.237 225.591C189.247 225.665 189.231 225.74 189.191 225.802C188.715 226.52 187.444 226.717 187.301 226.734L187.286 226.74Z" fill="#263238"/>
<path d="M195.57 234.853L198.476 230.929L197.02 236.583L195.57 234.853Z" fill="#263238"/>
<path d="M197.02 236.866C196.983 236.866 196.947 236.857 196.913 236.84C196.879 236.824 196.849 236.8 196.825 236.77L195.374 235.04C195.334 234.988 195.312 234.923 195.312 234.856C195.312 234.789 195.334 234.724 195.374 234.672L198.28 230.749C198.317 230.698 198.37 230.663 198.429 230.65C198.488 230.636 198.549 230.645 198.603 230.675C198.658 230.704 198.702 230.753 198.727 230.813C198.752 230.872 198.757 230.94 198.74 231.003L197.29 236.657C197.278 236.707 197.253 236.752 197.219 236.788C197.184 236.824 197.141 236.849 197.094 236.86L197.02 236.866ZM195.92 234.819L196.899 235.984L197.878 232.168L195.92 234.819Z" fill="#263238"/>
<path d="M191.211 244.34C191.211 244.34 190.015 246.528 186.94 251.181C183.865 255.835 182.415 260.855 182.669 261.856C182.923 262.857 185.845 263.043 186.173 262.766C186.501 262.489 190.015 254.924 195.826 249.084C201.638 243.244 203.342 240.326 203.236 239.868C203.13 239.41 191.211 244.34 191.211 244.34Z" fill="white"/>
<path d="M185.411 263.168C184.749 263.163 184.091 263.055 183.458 262.845C182.866 262.625 182.511 262.319 182.4 261.929C182.125 260.844 183.585 255.75 186.708 251.017C189.741 246.432 190.942 244.233 190.969 244.193C191.001 244.141 191.047 244.1 191.101 244.075C198.849 240.886 202.972 239.382 203.353 239.602C203.39 239.625 203.421 239.655 203.446 239.691C203.47 239.727 203.488 239.768 203.496 239.812C203.65 240.62 201.12 244.131 195.991 249.287C191.45 253.856 188.354 259.464 187.031 261.828C186.841 262.247 186.601 262.639 186.316 262.992C186.035 263.135 185.722 263.195 185.411 263.168ZM191.387 244.566C191.138 245.019 189.868 247.235 187.153 251.351C184.109 255.959 182.702 260.923 182.919 261.788C182.956 261.935 183.13 262.093 183.411 262.223C184.24 262.56 185.136 262.669 186.015 262.54C186.057 262.489 186.311 262.031 186.581 261.545C187.915 259.136 191.037 253.5 195.631 248.88C200.818 243.668 202.512 241.005 202.898 240.168C201.448 240.518 195.303 242.955 191.387 244.566Z" fill="#263238"/>
<path d="M202.399 230.862C202.399 230.862 198.726 235.515 197.017 236.612C195.307 237.708 189.93 241.038 189.332 241.038C188.734 241.038 188.221 241.677 188.734 242.497C189.424 243.595 190.025 244.755 190.528 245.963C190.676 246.444 190.984 246.849 191.395 247.101C191.805 247.354 192.288 247.436 192.751 247.331C194.032 246.969 200.521 243.865 203.336 241.112C206.152 238.359 207.602 235.549 206.665 233.355C205.729 231.161 202.998 229.375 202.399 230.862Z" fill="white"/>
<path d="M192.297 247.699C191.922 247.698 191.555 247.584 191.238 247.371C190.772 247.066 190.422 246.592 190.254 246.036C189.755 244.867 189.169 243.742 188.502 242.672C188.368 242.489 188.283 242.269 188.258 242.038C188.233 241.807 188.268 241.572 188.359 241.361C188.456 241.182 188.596 241.035 188.764 240.936C188.933 240.836 189.124 240.787 189.317 240.795C189.778 240.75 193.594 238.46 196.87 236.363C198.457 235.351 201.845 231.099 202.162 230.709C202.25 230.508 202.392 230.34 202.568 230.224C202.745 230.109 202.95 230.051 203.157 230.059C204.38 230.059 206.148 231.597 206.862 233.298C207.799 235.481 206.592 238.347 203.47 241.383C200.543 244.21 194.017 247.297 192.773 247.653C192.616 247.687 192.457 247.702 192.297 247.699ZM203.184 230.596C203.072 230.587 202.961 230.616 202.866 230.679C202.771 230.742 202.697 230.836 202.655 230.946C202.644 230.973 202.629 230.998 202.612 231.02C202.464 231.212 198.907 235.718 197.166 236.826C196.446 237.29 190.106 241.349 189.344 241.349C189.245 241.344 189.148 241.369 189.062 241.42C188.976 241.471 188.905 241.546 188.857 241.638C188.809 241.758 188.794 241.891 188.814 242.02C188.834 242.149 188.887 242.269 188.968 242.367C189.449 243.136 190.699 245.398 190.799 245.935C190.938 246.338 191.201 246.679 191.545 246.901C191.714 247.017 191.903 247.093 192.101 247.126C192.299 247.158 192.501 247.145 192.694 247.088C193.869 246.754 200.358 243.696 203.173 240.948C206.111 238.093 207.27 235.458 206.444 233.519C205.73 231.891 204.089 230.596 203.184 230.596Z" fill="#263238"/>
<path d="M183.869 213.408C183.869 213.408 186.431 223.082 191.808 225.999C197.185 228.917 200.276 230.562 200.689 233.117C201.102 235.673 197.958 236.035 198.81 239.687C199.662 243.34 204.193 248.168 213.756 245.618C223.32 243.068 222.045 235.486 220.589 230.194C219.134 224.902 216.408 222.991 212.222 220.255C209.046 218.18 207.564 214.115 206.093 210.672C204.621 207.229 201.827 203.322 198.233 202.191C193.867 200.84 186.187 204.362 184.547 209.202C183.446 212.498 183.869 213.408 183.869 213.408Z" fill="#7D7D7D"/>
<path d="M208.736 246.607C206.72 246.652 204.723 246.179 202.914 245.228C201.874 244.688 200.951 243.923 200.204 242.981C199.456 242.038 198.902 240.94 198.574 239.755C198.045 237.601 198.887 236.504 199.606 235.543C200.136 234.814 200.617 234.18 200.448 233.168C200.051 230.777 196.976 229.109 191.884 226.35L191.705 226.254C186.348 223.348 183.797 214.109 183.633 213.504C183.554 213.295 183.273 212.21 184.316 209.117C186.068 203.944 193.943 200.574 198.326 201.931C202.962 203.367 205.64 208.897 206.349 210.553C206.481 210.864 206.614 211.181 206.751 211.497C208.069 214.624 209.562 218.169 212.377 220.012C216.696 222.839 219.411 224.835 220.846 230.115C221.819 233.66 222.571 237.731 220.787 241.055C219.554 243.362 217.21 245.013 213.822 245.889C212.161 246.35 210.453 246.591 208.736 246.607ZM196.156 202.197C191.922 202.197 186.184 205.216 184.803 209.309C183.744 212.357 184.104 213.267 184.11 213.267C184.112 213.282 184.112 213.297 184.11 213.312C184.136 213.408 186.708 222.895 191.922 225.751L192.096 225.847C197.516 228.781 200.496 230.404 200.945 233.067C201.157 234.333 200.564 235.125 199.993 235.893C199.315 236.798 198.622 237.731 199.061 239.619C199.372 240.723 199.895 241.745 200.595 242.621C201.296 243.497 202.16 244.208 203.131 244.708C205.873 246.223 209.519 246.438 213.685 245.324C216.929 244.459 219.157 242.921 220.322 240.761C222.005 237.618 221.269 233.688 220.322 230.262C218.924 225.174 216.405 223.314 212.07 220.476C209.117 218.548 207.588 214.912 206.249 211.712C206.111 211.396 205.979 211.079 205.852 210.774C205.164 209.168 202.576 203.825 198.156 202.457C197.504 202.271 196.831 202.184 196.156 202.197Z" fill="#263238"/>
<path d="M216.853 236.063C216.791 236.064 216.731 236.041 216.683 235.999C216.636 235.956 216.604 235.897 216.594 235.831C216.505 235.247 216.347 234.677 216.123 234.135C216.102 234.069 216.105 233.998 216.131 233.934C216.157 233.871 216.203 233.819 216.262 233.79C216.321 233.761 216.388 233.756 216.45 233.776C216.512 233.795 216.565 233.839 216.599 233.898C216.849 234.473 217.027 235.082 217.128 235.707C217.141 235.78 217.125 235.856 217.086 235.918C217.046 235.979 216.985 236.021 216.917 236.035L216.853 236.063Z" fill="#263238"/>
<path d="M215.419 232.92C215.352 232.919 215.288 232.891 215.239 232.84C213.927 231.506 211.577 230.907 208.015 230.014C206.152 229.544 203.834 228.951 201.135 228.12C190.491 224.835 188.48 219.283 188.401 219.045C188.388 219.011 188.382 218.974 188.383 218.937C188.384 218.9 188.392 218.863 188.406 218.83C188.42 218.796 188.441 218.766 188.466 218.74C188.492 218.715 188.522 218.696 188.554 218.683C188.62 218.658 188.693 218.661 188.756 218.693C188.82 218.725 188.869 218.782 188.893 218.853C188.893 218.904 190.925 224.377 201.283 227.577C203.961 228.408 206.274 228.99 208.137 229.465C211.778 230.392 214.181 231.003 215.599 232.445C215.624 232.47 215.644 232.501 215.657 232.535C215.67 232.569 215.677 232.606 215.677 232.643C215.677 232.679 215.67 232.716 215.657 232.75C215.644 232.784 215.624 232.815 215.599 232.84C215.576 232.866 215.548 232.886 215.517 232.9C215.486 232.914 215.453 232.92 215.419 232.92Z" fill="#263238"/>
<path d="M220.069 236.063H220.038C219.968 236.055 219.905 236.017 219.861 235.959C219.818 235.901 219.797 235.826 219.805 235.752C220.154 232.015 217.084 229.533 210.14 227.978C204.578 226.718 197.311 223.557 194.31 215.619C193.989 214.753 193.614 213.911 193.188 213.098C193.155 213.032 193.147 212.955 193.166 212.884C193.185 212.812 193.229 212.751 193.289 212.713C193.351 212.678 193.424 212.669 193.491 212.689C193.559 212.709 193.618 212.756 193.654 212.821C194.089 213.656 194.472 214.521 194.803 215.41C197.713 223.11 204.811 226.197 210.252 227.424C217.508 229.064 220.71 231.727 220.308 235.809C220.303 235.875 220.276 235.936 220.232 235.983C220.189 236.03 220.131 236.058 220.069 236.063Z" fill="#263238"/>
<path d="M192.708 212.04C192.666 212.041 192.624 212.03 192.586 212.01C192.548 211.989 192.516 211.959 192.491 211.921C190.597 209.049 188.982 209.349 188.967 209.355C188.896 209.37 188.823 209.356 188.763 209.314C188.703 209.272 188.661 209.206 188.646 209.131C188.632 209.056 188.645 208.978 188.685 208.914C188.724 208.85 188.785 208.805 188.855 208.789C188.935 208.789 190.808 208.377 192.925 211.582C192.965 211.644 192.981 211.72 192.969 211.794C192.957 211.868 192.919 211.934 192.862 211.978C192.818 212.015 192.764 212.037 192.708 212.04Z" fill="#263238"/>
<path d="M164.703 238.828C166.075 239.079 167.39 239.607 168.577 240.383C169.549 241.063 170.438 241.871 171.224 242.786L169.202 245.669L164.703 238.828Z" fill="white"/>
<path d="M169.195 245.952C169.153 245.949 169.112 245.937 169.076 245.915C169.039 245.894 169.007 245.864 168.983 245.827L164.5 238.986C164.471 238.941 164.455 238.888 164.453 238.833C164.452 238.778 164.465 238.724 164.492 238.677C164.519 238.63 164.558 238.593 164.605 238.569C164.651 238.546 164.703 238.538 164.754 238.545C166.167 238.803 167.52 239.348 168.74 240.151C169.73 240.845 170.635 241.669 171.434 242.605C171.47 242.655 171.491 242.716 171.491 242.78C171.491 242.843 171.47 242.905 171.434 242.955L169.412 245.839C169.386 245.874 169.353 245.902 169.316 245.922C169.278 245.942 169.237 245.952 169.195 245.952ZM165.299 239.246L169.2 245.183L170.873 242.802C170.137 241.979 169.317 241.247 168.427 240.62C167.464 239.979 166.406 239.515 165.299 239.246Z" fill="#263238"/>
<path d="M168.636 246.025L164.703 238.822L169.197 245.669L168.636 246.025Z" fill="#92E3A9"/>
<path d="M168.637 246.308H168.568C168.499 246.287 168.44 246.238 168.404 246.172L164.471 238.975C164.433 238.911 164.421 238.834 164.436 238.76C164.451 238.687 164.494 238.622 164.553 238.582C164.613 238.542 164.685 238.528 164.754 238.544C164.823 238.561 164.883 238.606 164.921 238.67L169.415 245.511C169.436 245.542 169.45 245.578 169.458 245.616C169.465 245.654 169.465 245.693 169.457 245.731C169.439 245.806 169.396 245.87 169.335 245.912L168.769 246.274C168.729 246.299 168.683 246.311 168.637 246.308ZM168.107 244.504L168.721 245.635L168.811 245.579L168.107 244.504Z" fill="#263238"/>
<path d="M164.703 238.828C164.703 238.828 166.725 239.908 167.566 241.163C168.408 242.418 169.197 245.245 169.197 245.245L164.703 238.828Z" fill="white"/>
<path d="M169.197 245.528C169.156 245.528 169.115 245.518 169.078 245.498C169.041 245.479 169.009 245.45 168.985 245.415L164.502 238.992C164.465 238.942 164.445 238.88 164.445 238.817C164.445 238.753 164.465 238.691 164.502 238.641C164.542 238.594 164.595 238.562 164.653 238.55C164.711 238.538 164.772 238.546 164.825 238.573C164.91 238.619 166.942 239.704 167.789 240.999C168.636 242.294 169.424 245.047 169.456 245.166C169.474 245.23 169.47 245.298 169.444 245.359C169.419 245.421 169.375 245.47 169.319 245.499C169.28 245.517 169.239 245.527 169.197 245.528ZM165.698 239.778L168.398 243.634C168.128 242.826 167.773 242.054 167.339 241.333C166.879 240.718 166.325 240.192 165.698 239.778Z" fill="#263238"/>
<path d="M168.633 246.025L179.419 258.989L188.517 253.765L178.519 240.745L168.633 246.025Z" fill="#00D1FF"/>
<path d="M179.418 259.272C179.38 259.272 179.343 259.263 179.308 259.246C179.274 259.23 179.243 259.206 179.217 259.176L168.431 246.212C168.405 246.18 168.386 246.142 168.376 246.1C168.366 246.059 168.364 246.016 168.373 245.974C168.379 245.932 168.395 245.892 168.419 245.857C168.442 245.823 168.474 245.795 168.51 245.776L178.397 240.473C178.451 240.447 178.511 240.439 178.57 240.453C178.628 240.466 178.68 240.499 178.72 240.547L188.723 253.55C188.747 253.582 188.764 253.62 188.774 253.66C188.783 253.7 188.783 253.742 188.775 253.782C188.768 253.823 188.752 253.862 188.729 253.896C188.706 253.93 188.677 253.959 188.643 253.98L179.54 259.199C179.507 259.235 179.465 259.261 179.418 259.272ZM169.055 246.127L179.476 258.645L188.109 253.692L178.444 241.112L169.055 246.127Z" fill="#263238"/>
<path d="M169.195 245.669C169.542 244.596 170.098 243.613 170.825 242.786C171.947 241.587 178.352 239.393 178.352 239.393L188.238 252.838L188.296 253.375L178.521 240.773L169.195 245.669Z" fill="white"/>
<path d="M188.313 253.629C188.273 253.63 188.234 253.621 188.199 253.603C188.163 253.586 188.132 253.56 188.106 253.528L178.469 241.089L169.328 245.912C169.282 245.938 169.229 245.948 169.177 245.94C169.125 245.933 169.076 245.91 169.037 245.872C168.998 245.836 168.969 245.789 168.955 245.735C168.941 245.682 168.942 245.626 168.958 245.573C169.319 244.46 169.896 243.441 170.651 242.582C171.81 241.344 178.024 239.19 178.289 239.088C178.34 239.072 178.394 239.073 178.445 239.09C178.496 239.107 178.541 239.14 178.574 239.184L188.461 252.629C188.493 252.669 188.513 252.718 188.519 252.77L188.572 253.336C188.581 253.396 188.569 253.457 188.541 253.51C188.512 253.562 188.467 253.602 188.413 253.624C188.381 253.634 188.346 253.636 188.313 253.629ZM178.257 239.693C176.373 240.36 171.869 242.073 171.011 242.983C170.464 243.599 170.02 244.31 169.699 245.087L178.4 240.473C178.453 240.446 178.513 240.438 178.57 240.452C178.628 240.465 178.68 240.498 178.717 240.547L182.078 244.883L178.257 239.693Z" fill="#263238"/>
<path d="M182.174 260.307C182.174 260.307 180.544 258.927 180.263 258.209C179.983 257.491 178.855 254.608 178.411 254.071C177.621 253.128 176.924 252.101 176.331 251.006C175.77 249.875 175.15 249.745 174.812 250.588C174.473 251.43 174.923 252.629 175.489 253.59C176.055 254.551 176.548 255.507 176.548 255.507C176.548 255.507 175.087 254.127 174.245 253.29C173.404 252.454 171.716 250.226 171.324 250.045C170.932 249.864 170.424 250.526 170.932 251.786C171.44 253.047 173.346 256.468 174.187 257.91C175.057 259.253 176.189 260.38 177.506 261.211C178.405 261.748 180.681 263.473 180.681 263.473L182.174 260.307Z" fill="white"/>
<path d="M180.708 263.772C180.653 263.773 180.6 263.755 180.555 263.722C180.555 263.722 178.252 261.98 177.379 261.46C176.025 260.609 174.861 259.451 173.971 258.068C173.076 256.541 171.197 253.166 170.695 251.911C170.303 250.933 170.462 250.26 170.747 249.955C170.834 249.857 170.946 249.79 171.069 249.762C171.191 249.734 171.319 249.746 171.435 249.796C171.684 249.915 172.124 250.418 173.066 251.538C173.563 252.131 174.082 252.742 174.431 253.092C174.78 253.443 175.103 253.754 175.49 254.104L175.283 253.748C174.839 252.991 174.161 251.56 174.59 250.486C174.823 249.921 175.119 249.779 175.373 249.768C175.627 249.757 176.119 249.943 176.585 250.899C177.167 251.973 177.851 252.979 178.628 253.901C178.951 254.291 179.57 255.671 180.528 258.119C180.735 258.656 181.92 259.741 182.359 260.109C182.406 260.15 182.439 260.207 182.452 260.271C182.466 260.334 182.459 260.4 182.434 260.459L180.973 263.637C180.955 263.673 180.93 263.705 180.9 263.73C180.87 263.756 180.835 263.774 180.798 263.784C180.768 263.791 180.736 263.787 180.708 263.772ZM171.181 250.299C171.166 250.301 171.151 250.306 171.138 250.314C171.124 250.321 171.112 250.332 171.102 250.345C170.986 250.469 170.848 250.91 171.16 251.673C171.652 252.9 173.51 256.242 174.399 257.757C175.244 259.06 176.341 260.153 177.617 260.963C178.353 261.404 179.962 262.596 180.592 263.066L181.82 260.386C181.375 259.996 180.232 258.967 179.999 258.317C178.787 255.218 178.348 254.444 178.189 254.257C177.384 253.297 176.675 252.252 176.072 251.136C175.77 250.526 175.479 250.333 175.347 250.322C175.214 250.311 175.124 250.463 175.029 250.701C174.786 251.311 175.029 252.307 175.685 253.437C176.246 254.393 176.744 255.36 176.744 255.371C176.775 255.429 176.786 255.496 176.774 255.562C176.763 255.627 176.729 255.686 176.68 255.727C176.632 255.77 176.571 255.793 176.508 255.793C176.446 255.793 176.385 255.77 176.336 255.727C176.336 255.727 174.865 254.331 174.029 253.5C173.658 253.132 173.134 252.51 172.632 251.911C172.188 251.338 171.703 250.803 171.181 250.311V250.299Z" fill="#263238"/>
<path d="M207.954 237.041C207.954 237.041 205.731 237.771 204.625 242.056C203.519 246.342 202.233 251.911 202.233 251.911C202.233 251.911 200.523 252.821 200.184 253.918C199.846 255.015 200.523 256.293 200.714 256.931C200.904 257.57 199.433 257.842 198.496 258.848C197.897 259.474 197.456 260.252 197.215 261.11C197.13 261.381 196.686 261.29 195.934 261.29C193.78 261.579 191.601 261.609 189.44 261.381C184.915 261.019 182.952 259.374 182.184 259.741C181.417 260.109 179.363 264.117 179.109 266.124C178.855 268.132 179.109 268.499 179.533 268.77C180.024 268.98 180.544 269.104 181.073 269.138C185.803 270.793 190.614 272.171 195.484 273.265C203.344 275.001 204.963 274.085 206.673 272.7C207.584 272.016 208.39 271.186 209.065 270.24C209.065 270.24 211.796 264.219 212.31 262.941C212.823 261.664 214.617 257.101 216.067 254.184C217.518 251.266 220.593 247.523 216.665 240.863C212.738 234.203 207.954 237.041 207.954 237.041Z" fill="#CE7A63"/>
<path d="M202.201 274.492C199.921 274.411 197.654 274.091 195.432 273.537C190.556 272.446 185.738 271.076 180.999 269.432C180.442 269.401 179.893 269.265 179.38 269.03C178.798 268.663 178.565 268.126 178.824 266.107C179.083 264.089 181.126 259.939 182.052 259.498C182.471 259.3 183.01 259.498 183.91 259.837C185.69 260.534 187.551 260.964 189.441 261.115C191.355 261.339 193.286 261.339 195.199 261.115C195.591 261.062 195.985 261.043 196.38 261.059C196.574 261.078 196.77 261.068 196.962 261.03V261.002C197.216 260.119 197.67 259.317 198.285 258.667C198.707 258.25 199.183 257.9 199.698 257.627C200.047 257.423 200.476 257.169 200.439 257.027C200.402 256.886 200.344 256.722 200.275 256.536C200.005 255.801 199.634 254.794 199.931 253.85C200.254 252.815 201.603 251.973 202.006 251.741C202.201 250.899 203.36 245.895 204.366 242.005C205.456 237.81 207.579 236.917 207.854 236.804C208.24 236.589 213.019 234.186 216.888 240.761C220.434 246.766 218.376 250.531 216.888 253.279C216.682 253.658 216.486 254.014 216.311 254.364C214.994 257.016 213.406 260.991 212.728 262.693L212.564 263.1C212.035 264.372 209.426 270.167 209.315 270.41C208.627 271.403 207.792 272.27 206.843 272.977C205.716 273.831 204.62 274.492 202.201 274.492ZM182.428 259.99C182.374 259.986 182.32 259.996 182.269 260.018C181.629 260.318 179.623 264.213 179.348 266.181C179.073 268.148 179.348 268.375 179.65 268.55C180.105 268.737 180.586 268.845 181.073 268.872H181.137C185.865 270.512 190.672 271.878 195.538 272.965C203.657 274.758 205.065 273.65 206.515 272.468C207.4 271.802 208.186 270.995 208.844 270.076C208.844 270.048 211.564 264.078 212.067 262.823L212.231 262.41C212.914 260.714 214.507 256.716 215.835 254.042C216.01 253.686 216.211 253.324 216.417 252.94C217.931 250.169 219.815 246.721 216.444 241.005C212.702 234.661 208.272 237.16 208.081 237.273H208.034C208.034 237.273 205.917 238.031 204.858 242.096C203.763 246.33 202.482 251.882 202.466 251.939C202.457 251.979 202.44 252.016 202.416 252.048C202.392 252.08 202.362 252.107 202.328 252.126C201.884 252.363 200.661 253.166 200.413 253.969C200.164 254.772 200.508 255.614 200.746 256.264C200.82 256.479 200.889 256.66 200.926 256.83C201.085 257.395 200.524 257.734 199.936 258.079C199.464 258.326 199.027 258.644 198.639 259.023C198.084 259.608 197.673 260.33 197.443 261.126V261.194C197.316 261.607 196.914 261.59 196.385 261.579C196.017 261.561 195.649 261.578 195.284 261.63C193.338 261.87 191.373 261.88 189.425 261.658C187.49 261.504 185.583 261.062 183.762 260.346C183.334 260.166 182.885 260.046 182.428 259.99Z" fill="#263238"/>
<path d="M200.657 267.419C200.608 267.418 200.56 267.402 200.519 267.374C197.719 265.559 197.688 262.116 197.688 261.975C197.688 261.9 197.715 261.828 197.765 261.775C197.815 261.722 197.882 261.692 197.952 261.692C198.022 261.692 198.09 261.722 198.139 261.775C198.189 261.828 198.217 261.9 198.217 261.975C198.217 262.003 198.254 265.242 200.794 266.893C200.824 266.913 200.85 266.938 200.871 266.968C200.892 266.998 200.907 267.032 200.915 267.068C200.924 267.105 200.925 267.142 200.92 267.179C200.915 267.216 200.902 267.252 200.884 267.284C200.86 267.324 200.826 267.358 200.786 267.382C200.747 267.406 200.702 267.418 200.657 267.419Z" fill="#263238"/>
<path d="M205.109 260.086C205.061 260.086 205.014 260.071 204.973 260.045C204.932 260.018 204.899 259.979 204.877 259.934C204.157 258.475 202.664 256.163 201.727 256.163C201.619 256.15 201.51 256.168 201.41 256.213C201.651 256.557 201.942 256.857 202.273 257.101C202.3 257.123 202.324 257.151 202.342 257.183C202.359 257.215 202.371 257.251 202.376 257.287C202.381 257.324 202.379 257.361 202.37 257.397C202.362 257.433 202.346 257.467 202.326 257.497C202.305 257.527 202.279 257.552 202.249 257.57C202.219 257.589 202.186 257.602 202.151 257.607C202.117 257.612 202.082 257.61 202.048 257.601C202.014 257.592 201.983 257.576 201.955 257.553C201.505 257.197 200.77 256.524 200.928 256.004C201.055 255.597 201.558 255.597 201.727 255.597C203.289 255.597 205.136 259.255 205.342 259.674C205.359 259.706 205.369 259.742 205.372 259.779C205.376 259.816 205.372 259.853 205.362 259.888C205.351 259.923 205.334 259.956 205.312 259.984C205.29 260.013 205.262 260.036 205.231 260.052C205.194 260.075 205.152 260.087 205.109 260.086Z" fill="#263238"/>
<path d="M181.24 268.137C181.174 268.137 181.11 268.111 181.06 268.062C181.011 268.014 180.981 267.948 180.976 267.877C180.679 263.874 183.379 260.844 183.495 260.714C183.519 260.687 183.548 260.666 183.581 260.651C183.613 260.636 183.647 260.628 183.682 260.628C183.717 260.627 183.751 260.634 183.784 260.648C183.816 260.662 183.846 260.682 183.871 260.708C183.896 260.734 183.916 260.765 183.93 260.799C183.944 260.833 183.951 260.87 183.951 260.908C183.952 260.945 183.945 260.982 183.933 261.016C183.92 261.051 183.901 261.083 183.876 261.109C183.876 261.138 181.23 264.089 181.505 267.832C181.508 267.869 181.504 267.906 181.493 267.942C181.483 267.977 181.465 268.01 181.443 268.039C181.42 268.067 181.393 268.09 181.361 268.107C181.33 268.124 181.296 268.134 181.262 268.137H181.24Z" fill="#263238"/>
<path d="M123.018 276.426L128.506 283.289C128.506 283.289 125.151 287.366 123.663 289.158C122.176 290.95 119.376 295.524 118.17 295.62C116.963 295.716 113.142 293.133 111.93 292.437C110.718 291.742 106.065 288.259 104.689 284.878C103.313 281.497 102.043 277.618 103.927 277.816C105.811 278.014 108.119 280.604 110.908 281.497C113.697 282.39 113.422 282.492 115.751 281.395C118.08 280.298 123.018 276.426 123.018 276.426Z" fill="#7D7D7D"/>
<path d="M118.112 295.909C117.107 295.909 114.937 294.625 112.82 293.302C112.402 293.048 112.052 292.827 111.809 292.686C110.597 291.991 105.849 288.434 104.431 284.991C102.065 279.27 102.743 278.274 102.965 277.947C103.078 277.786 103.23 277.663 103.405 277.59C103.58 277.517 103.77 277.498 103.955 277.534C104.96 277.641 106.035 278.365 107.273 279.196C108.418 280.046 109.664 280.728 110.978 281.226L111.682 281.458C113.614 282.085 113.614 282.091 115.54 281.186L115.635 281.135C117.911 280.072 122.802 276.233 122.849 276.194C122.904 276.152 122.971 276.134 123.037 276.142C123.104 276.151 123.165 276.185 123.209 276.239L128.703 283.103C128.745 283.154 128.769 283.221 128.769 283.289C128.769 283.358 128.745 283.424 128.703 283.476C128.703 283.476 125.353 287.552 123.86 289.345C123.421 289.87 122.86 290.656 122.272 291.482C120.452 294.026 119.097 295.83 118.192 295.903L118.112 295.909ZM103.822 278.094C103.747 278.085 103.67 278.098 103.6 278.129C103.529 278.161 103.468 278.211 103.42 278.274C103.203 278.597 102.891 279.869 104.939 284.765C106.305 288.072 110.909 291.51 112.089 292.188C112.333 292.33 112.688 292.55 113.111 292.81C114.545 293.704 117.186 295.343 118.123 295.343H118.181C118.912 295.287 120.626 292.895 121.886 291.148C122.489 290.306 123.056 289.514 123.506 288.971C124.808 287.411 127.528 284.104 128.195 283.318L123.013 276.838C122.055 277.585 117.985 280.706 115.895 281.689L115.8 281.735C113.735 282.707 113.683 282.713 111.565 282.029L110.862 281.802C109.498 281.291 108.204 280.588 107.014 279.711C105.834 278.913 104.812 278.224 103.928 278.133L103.822 278.094Z" fill="#263238"/>
<path d="M114.449 283.759C113.978 283.746 113.519 283.598 113.121 283.329C113.09 283.311 113.063 283.287 113.041 283.258C113.019 283.229 113.003 283.196 112.994 283.16C112.985 283.124 112.982 283.086 112.987 283.049C112.991 283.012 113.003 282.977 113.02 282.945C113.055 282.879 113.112 282.832 113.179 282.811C113.247 282.791 113.319 282.801 113.38 282.837C113.597 282.994 113.842 283.102 114.1 283.154C114.357 283.207 114.622 283.203 114.878 283.143C114.947 283.129 115.017 283.144 115.076 283.186C115.134 283.227 115.175 283.29 115.19 283.363C115.197 283.399 115.197 283.437 115.191 283.473C115.184 283.51 115.171 283.545 115.152 283.575C115.132 283.606 115.108 283.633 115.079 283.654C115.05 283.675 115.018 283.689 114.984 283.697C114.808 283.738 114.629 283.759 114.449 283.759Z" fill="#263238"/>
<path d="M116.003 283.284C115.954 283.284 115.906 283.27 115.865 283.241C115.824 283.213 115.791 283.173 115.77 283.126C115.739 283.059 115.734 282.981 115.755 282.91C115.777 282.839 115.824 282.781 115.887 282.747C116.372 282.486 116.84 282.191 117.289 281.865C119.708 280.169 122.868 277.749 122.899 277.721C122.958 277.68 123.028 277.664 123.097 277.676C123.166 277.689 123.228 277.729 123.27 277.788C123.29 277.819 123.305 277.853 123.313 277.89C123.32 277.926 123.321 277.964 123.315 278C123.309 278.037 123.297 278.072 123.278 278.104C123.259 278.135 123.235 278.163 123.206 278.184C123.175 278.184 120.031 280.61 117.58 282.334C117.114 282.677 116.626 282.985 116.12 283.256C116.083 283.274 116.043 283.283 116.003 283.284Z" fill="#263238"/>
<path d="M126.015 284.782C125.982 284.783 125.948 284.777 125.917 284.763C125.886 284.749 125.858 284.729 125.835 284.703L124.888 283.742C124.837 283.69 124.807 283.619 124.805 283.543C124.803 283.468 124.829 283.395 124.877 283.34C124.926 283.286 124.993 283.254 125.063 283.252C125.133 283.249 125.202 283.277 125.253 283.329L126.2 284.296C126.239 284.335 126.265 284.386 126.276 284.441C126.287 284.496 126.282 284.554 126.262 284.606C126.242 284.658 126.208 284.703 126.164 284.734C126.12 284.766 126.068 284.782 126.015 284.782Z" fill="#263238"/>
<path d="M124.072 282.792C124.004 282.791 123.94 282.763 123.892 282.713L121.034 279.795C120.983 279.743 120.954 279.671 120.953 279.596C120.952 279.52 120.979 279.448 121.028 279.394C121.077 279.34 121.145 279.309 121.215 279.308C121.286 279.307 121.354 279.336 121.404 279.388L124.278 282.311C124.316 282.35 124.342 282.401 124.353 282.456C124.364 282.511 124.359 282.569 124.339 282.621C124.32 282.674 124.285 282.718 124.241 282.75C124.197 282.781 124.146 282.798 124.093 282.797L124.072 282.792Z" fill="#263238"/>
<path d="M119.068 294.936C119.038 294.942 119.008 294.942 118.978 294.936C118.978 294.936 118.549 294.772 117.776 294.439C117.711 294.411 117.659 294.357 117.631 294.288C117.603 294.219 117.602 294.141 117.628 294.071C117.654 294.001 117.705 293.946 117.769 293.916C117.834 293.886 117.907 293.885 117.972 293.913C118.729 294.241 119.147 294.399 119.152 294.399C119.223 294.411 119.285 294.452 119.327 294.514C119.369 294.575 119.386 294.652 119.375 294.727C119.363 294.802 119.325 294.869 119.267 294.914C119.21 294.958 119.138 294.976 119.068 294.964V294.936Z" fill="#263238"/>
<path d="M117.135 294.111C117.1 294.119 117.064 294.119 117.029 294.111C115.738 293.517 114.383 292.839 113.023 292.087C109.609 290.21 107.529 288.287 106.073 285.647C104.74 283.244 103.835 279.428 103.798 279.247C103.789 279.211 103.787 279.174 103.792 279.137C103.796 279.1 103.808 279.064 103.826 279.032C103.843 279 103.867 278.972 103.895 278.95C103.923 278.928 103.954 278.911 103.988 278.902C104.056 278.885 104.128 278.896 104.188 278.934C104.248 278.972 104.292 279.034 104.311 279.106C104.311 279.145 105.237 283.024 106.529 285.364C107.931 287.897 109.948 289.763 113.266 291.584C114.621 292.33 115.96 293.003 117.241 293.591C117.304 293.621 117.354 293.676 117.38 293.744C117.406 293.813 117.405 293.89 117.378 293.958C117.355 294.005 117.32 294.044 117.277 294.071C117.234 294.098 117.185 294.112 117.135 294.111Z" fill="#263238"/>
</svg>
