<svg width="200" height="214" viewBox="0 0 200 214" fill="none" xmlns="http://www.w3.org/2000/svg">
<path d="M182.216 179.644C178.592 177.542 176.651 172.652 176.508 168.647C176.366 164.642 178.031 160.47 181.313 158.183C184.771 155.766 189.694 155.804 193.247 158.083C196.8 160.361 198.878 164.651 198.717 168.866C198.595 170.977 198.007 173.036 196.995 174.893C195.982 176.75 194.571 178.36 192.861 179.606" fill="#78C492"/>
<path d="M188.004 180.029C187.951 179.728 187.929 179.422 187.938 179.116C187.938 178.46 187.895 177.623 187.866 176.619C187.814 174.512 187.728 171.601 187.591 168.39C187.453 165.18 187.272 162.269 187.143 160.161C187.082 159.163 187.034 158.325 186.991 157.669C186.961 157.364 186.961 157.056 186.991 156.751C187.064 157.049 187.111 157.353 187.134 157.659C187.205 158.245 187.296 159.086 187.391 160.147C187.586 162.245 187.795 165.156 187.938 168.371C188.08 171.587 188.123 174.507 188.114 176.614C188.114 177.67 188.114 178.517 188.08 179.116C188.083 179.422 188.058 179.728 188.004 180.029Z" fill="white"/>
<path d="M177.586 167.743C177.586 167.838 177.001 167.867 176.297 167.805C175.593 167.743 175.022 167.624 175.031 167.534C175.041 167.444 175.616 167.41 176.32 167.467C177.024 167.524 177.595 167.648 177.586 167.743Z" fill="#263238"/>
<path d="M177.783 164.152C177.745 164.238 177.245 164.1 176.67 163.843C176.094 163.586 175.652 163.31 175.69 163.225C175.728 163.139 176.227 163.277 176.808 163.534C177.388 163.791 177.821 164.076 177.783 164.152Z" fill="#263238"/>
<path d="M179.628 161.488C179.581 161.564 179.02 161.298 178.439 160.818C177.859 160.337 177.488 159.833 177.555 159.771C177.621 159.709 178.087 160.09 178.653 160.556C179.219 161.022 179.681 161.407 179.628 161.488Z" fill="#263238"/>
<path d="M181.486 158.972C181.4 159.01 181.129 158.592 180.886 158.021C180.644 157.45 180.511 156.984 180.596 156.946C180.682 156.908 180.953 157.327 181.196 157.897C181.438 158.468 181.571 158.934 181.486 158.972Z" fill="#263238"/>
<path d="M184.409 157.189C184.323 157.227 184.033 156.779 183.843 156.161C183.653 155.543 183.634 155.005 183.724 154.991C183.815 154.977 183.981 155.467 184.166 156.056C184.352 156.646 184.495 157.146 184.409 157.189Z" fill="#263238"/>
<path d="M189.267 155.177C189.353 155.205 189.301 155.59 189.144 156.028C188.987 156.466 188.792 156.799 188.706 156.765C188.621 156.732 188.668 156.356 188.825 155.914C188.982 155.472 189.177 155.143 189.267 155.177Z" fill="#263238"/>
<path d="M192.88 156.722C192.947 156.794 192.713 157.112 192.366 157.436C192.019 157.759 191.681 157.964 191.619 157.912C191.558 157.859 191.786 157.526 192.133 157.203C192.48 156.879 192.818 156.656 192.88 156.722Z" fill="#263238"/>
<path d="M196.051 158.777C196.103 158.853 195.822 159.134 195.423 159.405C195.023 159.676 194.652 159.838 194.6 159.757C194.548 159.676 194.828 159.396 195.233 159.125C195.637 158.853 195.998 158.697 196.051 158.777Z" fill="#263238"/>
<path d="M198.311 161.836C198.344 161.921 197.902 162.193 197.317 162.445C196.732 162.697 196.223 162.825 196.189 162.74C196.156 162.654 196.594 162.378 197.183 162.131C197.773 161.883 198.273 161.75 198.311 161.836Z" fill="#263238"/>
<path d="M199.197 165.17C199.197 165.265 198.76 165.394 198.189 165.465C197.618 165.536 197.147 165.517 197.133 165.427C197.119 165.336 197.575 165.198 198.146 165.127C198.717 165.056 199.188 165.075 199.197 165.17Z" fill="#263238"/>
<path d="M199.66 169.275C199.627 169.36 199.142 169.237 198.585 168.994C198.029 168.752 197.606 168.485 197.634 168.4C197.663 168.314 198.153 168.438 198.714 168.68C199.275 168.923 199.699 169.189 199.66 169.275Z" fill="#263238"/>
<path d="M199.261 172.8C199.232 172.885 198.619 172.742 197.981 172.324C197.344 171.905 196.968 171.406 197.03 171.344C197.092 171.282 197.563 171.648 198.167 172.038C198.771 172.429 199.294 172.709 199.261 172.8Z" fill="#263238"/>
<path d="M197.417 176.01C197.36 176.081 196.875 175.796 196.409 175.292C195.943 174.788 195.695 174.288 195.771 174.236C195.848 174.183 196.214 174.583 196.661 175.063C197.108 175.544 197.479 175.934 197.417 176.01Z" fill="#263238"/>
<path d="M180.003 176.386C180.051 176.467 179.528 176.819 178.867 177.171C178.205 177.523 177.616 177.737 177.573 177.646C177.53 177.556 178.048 177.213 178.71 176.861C179.371 176.51 179.961 176.3 180.003 176.386Z" fill="#263238"/>
<path d="M178.404 173.485C178.442 173.57 178.033 173.836 177.491 174.084C176.949 174.331 176.478 174.46 176.44 174.374C176.402 174.288 176.806 174.022 177.353 173.775C177.9 173.527 178.366 173.399 178.404 173.485Z" fill="#263238"/>
<path d="M177.238 170.916C177.238 171.006 176.762 171.154 176.116 171.244C175.469 171.334 174.955 171.334 174.945 171.244C174.936 171.154 175.421 171.001 176.068 170.911C176.715 170.821 177.224 170.821 177.238 170.916Z" fill="#263238"/>
<path d="M181.079 169.499C181.107 169.584 180.603 169.813 179.961 169.889C179.319 169.965 178.777 169.846 178.781 169.756C178.786 169.665 179.3 169.622 179.923 169.551C180.546 169.48 181.05 169.404 181.079 169.499Z" fill="#263238"/>
<path d="M184.263 166.326C184.291 166.411 183.896 166.611 183.373 166.664C182.85 166.716 182.422 166.597 182.422 166.507C182.422 166.416 182.836 166.373 183.326 166.326C183.816 166.278 184.234 166.235 184.263 166.326Z" fill="#263238"/>
<path d="M184.871 163.786C184.838 163.871 184.419 163.81 183.92 163.638C183.42 163.467 183.059 163.258 183.088 163.163C183.116 163.068 183.539 163.139 184.039 163.305C184.538 163.472 184.9 163.695 184.871 163.786Z" fill="#263238"/>
<path d="M186.044 161.222C185.978 161.284 185.688 161.094 185.478 160.746C185.269 160.399 185.25 160.042 185.34 160.019C185.431 159.995 185.588 160.261 185.773 160.58C185.959 160.899 186.101 161.151 186.044 161.222Z" fill="#263238"/>
<path d="M184.624 171.734C184.624 171.824 184.282 171.995 183.806 172.11C183.582 172.168 183.353 172.201 183.121 172.209L183.055 172.014C183.178 171.991 183.254 172.014 183.273 172.014C183.293 172.014 183.24 172.11 183.14 172.186L183.074 171.986C183.283 171.887 183.504 171.812 183.73 171.762C184.192 171.686 184.605 171.643 184.624 171.734Z" fill="#263238"/>
<path d="M185.287 176.239C185.325 176.324 184.854 176.591 184.245 176.833C183.636 177.076 183.113 177.195 183.08 177.109C183.047 177.023 183.513 176.757 184.121 176.514C184.73 176.272 185.254 176.153 185.287 176.239Z" fill="#263238"/>
<path d="M181.688 174.236C181.721 174.326 181.407 174.512 180.993 174.655C180.579 174.797 180.218 174.835 180.189 174.75C180.161 174.664 180.47 174.474 180.884 174.331C181.298 174.188 181.659 174.15 181.688 174.236Z" fill="#263238"/>
<path d="M181.96 165.07C181.96 165.161 181.398 165.104 180.77 164.885C180.143 164.666 179.691 164.362 179.729 164.281C179.767 164.2 180.276 164.347 180.885 164.561C181.493 164.775 181.983 164.975 181.96 165.07Z" fill="#263238"/>
<path d="M190.674 164.076C190.726 164.157 190.422 164.447 189.993 164.732C189.565 165.018 189.175 165.18 189.123 165.099C189.071 165.018 189.38 164.728 189.808 164.447C190.236 164.166 190.621 163.995 190.674 164.076Z" fill="#263238"/>
<path d="M191.152 168.595C191.152 168.69 190.848 168.832 190.434 168.918C190.02 169.004 189.668 168.999 189.649 168.918C189.63 168.837 189.949 168.68 190.367 168.595C190.786 168.509 191.133 168.504 191.152 168.595Z" fill="#263238"/>
<path d="M191.705 173.684C191.663 173.765 191.201 173.636 190.673 173.394C190.145 173.151 189.746 172.88 189.784 172.795C189.822 172.709 190.283 172.837 190.816 173.085C191.349 173.332 191.743 173.589 191.705 173.684Z" fill="#263238"/>
<path d="M190.531 178.636C190.455 178.693 190.155 178.45 189.86 178.089C189.565 177.727 189.385 177.385 189.451 177.323C189.518 177.261 189.822 177.508 190.122 177.87C190.422 178.231 190.602 178.574 190.531 178.636Z" fill="#263238"/>
<path d="M190.298 160.746C190.36 160.818 190.16 161.07 189.822 161.222C189.485 161.374 189.166 161.403 189.142 161.317C189.118 161.232 189.366 161.075 189.67 160.922C189.975 160.77 190.241 160.665 190.298 160.746Z" fill="#263238"/>
<path d="M194.567 165.303C194.601 165.389 194.206 165.608 193.664 165.684C193.121 165.76 192.684 165.655 192.712 165.565C192.741 165.474 193.136 165.417 193.64 165.346C194.144 165.275 194.539 165.213 194.567 165.303Z" fill="#263238"/>
<path d="M193.71 161.222C193.753 161.308 193.363 161.584 192.802 161.764C192.24 161.945 191.765 161.94 191.75 161.85C191.736 161.76 192.169 161.607 192.702 161.441C193.234 161.274 193.672 161.122 193.71 161.222Z" fill="#263238"/>
<path d="M195.495 171.648C195.495 171.739 194.824 171.8 194.016 171.648C193.207 171.496 192.589 171.215 192.627 171.13C192.665 171.044 193.293 171.177 194.054 171.315C194.815 171.453 195.5 171.553 195.495 171.648Z" fill="#263238"/>
<path d="M193.914 177.599C193.857 177.67 193.363 177.38 192.868 176.881C192.373 176.381 192.088 175.891 192.159 175.834C192.231 175.777 192.635 176.162 193.111 176.643C193.586 177.123 193.972 177.523 193.914 177.599Z" fill="#263238"/>
<path d="M186.939 156.366C185.854 157.026 184.854 157.817 183.961 158.72C181.885 160.994 180.585 163.869 180.251 166.93C180.094 168.608 180.17 170.3 180.475 171.958C180.719 173.318 181.036 174.665 181.426 175.991C181.754 177.123 182.054 178.032 182.254 178.664C182.378 178.985 182.474 179.316 182.539 179.654C182.377 179.349 182.24 179.03 182.13 178.702C181.892 178.084 181.555 177.185 181.179 176.053C180.756 174.726 180.417 173.374 180.161 172.005C179.836 170.318 179.754 168.593 179.918 166.882C180.258 163.756 181.619 160.829 183.79 158.554C184.451 157.879 185.198 157.295 186.012 156.818C186.297 156.642 186.54 156.546 186.692 156.466C186.768 156.42 186.852 156.386 186.939 156.366Z" fill="white"/>
<path d="M191.566 179.863C192.136 178.673 192.646 177.456 193.093 176.215C194.116 173.198 194.428 169.987 194.006 166.83C193.777 165.101 193.296 163.416 192.579 161.826C191.968 160.543 191.132 159.38 190.111 158.392C189.392 157.757 188.576 157.242 187.694 156.865C187.066 156.604 186.686 156.542 186.695 156.513C186.705 156.485 186.791 156.513 186.971 156.513C187.233 156.563 187.491 156.633 187.742 156.722C188.664 157.06 189.519 157.557 190.268 158.192C191.343 159.179 192.223 160.361 192.86 161.674C193.617 163.284 194.124 165 194.363 166.763C194.798 169.971 194.447 173.235 193.34 176.277C193.145 176.866 192.898 177.366 192.717 177.822C192.536 178.279 192.318 178.641 192.151 178.94C191.981 179.263 191.786 179.572 191.566 179.863Z" fill="white"/>
<path d="M178.406 179.059H197.133L197.252 182.807H178.406V179.059Z" fill="#263238"/>
<path d="M180 180.933L181.075 192.377H194.764L195.863 181.057L180 180.933Z" fill="#263238"/>
<path d="M197.255 182.855C197.255 182.945 193.036 183.021 187.832 183.021C182.628 183.021 178.414 182.945 178.414 182.855C178.414 182.764 182.628 182.684 187.832 182.684C193.036 182.684 197.255 182.76 197.255 182.855Z" fill="#455A64"/>
<path d="M195.349 186.336C195.254 186.595 195.119 186.838 194.949 187.055C194.528 187.675 194.042 188.25 193.498 188.767L193.413 188.853L193.327 188.762C192.203 187.582 190.974 186.506 189.655 185.547H189.864C189.341 186.022 188.794 186.498 188.238 186.974L186.311 188.648L186.207 188.738L186.097 188.648L182.972 186.022H183.153C182.506 186.807 181.964 187.449 181.536 187.996C181.349 188.25 181.135 188.483 180.898 188.691C181.047 188.413 181.222 188.15 181.422 187.906L182.953 185.861L183.029 185.756L183.134 185.842L186.307 188.415H186.102L188.005 186.731C188.561 186.256 189.108 185.78 189.636 185.304L189.736 185.214L189.841 185.295C191.17 186.275 192.395 187.391 193.494 188.624H193.322C194.06 187.919 194.738 187.154 195.349 186.336Z" fill="#455A64"/>
<path d="M193.927 192.425C193.927 192.497 150.595 192.549 97.1559 192.549C43.7164 192.549 0.375 192.497 0.375 192.425C0.375 192.354 43.6974 192.302 97.1559 192.302C150.614 192.302 193.927 192.359 193.927 192.425Z" fill="#263238"/>
<path d="M84.1737 176.095C84.1737 176.095 73.3336 177.998 71.6165 177.589C69.8994 177.18 64.0346 176.852 63.1784 177.651C62.3223 178.45 55.7392 210.347 58.0271 209.914C60.315 209.481 72.4156 192.03 72.4156 192.03C72.9911 191.92 87.5794 189.309 87.5794 189.309L84.1737 176.095Z" fill="#455A64"/>
<path d="M161.61 155.99C161.61 155.99 148.767 152.389 138.36 156.418C127.952 160.447 124.266 158.159 124.266 158.159L98.3906 171.834L100.959 180.5L136.557 166.321L161.61 155.99Z" fill="#263238"/>
<path d="M95.9766 180.41L146.667 155.605C146.667 155.605 158.33 154.753 161.602 155.966C164.875 157.179 169.213 165.627 169.213 169.717C169.213 173.808 170.302 173.836 167.848 178.317C165.393 182.798 147.956 191.792 147.956 191.792L123.155 194.813L103.887 190.113L95.9766 180.41Z" fill="#263238"/>
<path d="M147.424 155.557C147.387 155.578 147.347 155.594 147.306 155.604L146.954 155.723L145.593 156.147L144.609 156.446C144.257 156.57 143.876 156.722 143.462 156.874C142.644 157.193 141.698 157.512 140.694 157.983L139.11 158.687C138.563 158.939 138.007 159.234 137.426 159.524C136.251 160.085 135.048 160.784 133.773 161.488C131.248 162.958 128.541 164.68 125.72 166.554C122.9 168.428 120.25 170.24 117.796 171.838C116.564 172.628 115.394 173.384 114.276 174.05C113.715 174.388 113.187 174.726 112.659 175.002L111.147 175.858C109.069 177.042 106.92 178.096 104.711 179.011L104.82 178.945C104.911 178.902 105.02 178.85 105.153 178.778L106.433 178.155L107.384 177.713C107.722 177.542 108.079 177.347 108.469 177.142C109.239 176.723 110.138 176.276 111.085 175.715L112.588 174.845C113.111 174.54 113.639 174.202 114.191 173.865C115.304 173.189 116.464 172.438 117.696 171.634C120.141 170.026 122.8 168.209 125.606 166.33C128.413 164.452 131.143 162.739 133.692 161.274C134.981 160.575 136.185 159.881 137.369 159.324C137.954 159.039 138.511 158.749 139.063 158.496L140.661 157.807C141.669 157.331 142.625 157.036 143.453 156.732C143.867 156.584 144.247 156.437 144.609 156.323L145.598 156.042L146.973 155.657L147.334 155.566L147.424 155.557Z" fill="#455A64"/>
<path d="M103.623 180.652C103.623 180.652 114.591 182.079 116.304 181.665C118.016 181.252 123.885 180.933 124.746 181.727C125.607 182.522 132.186 214.424 129.898 213.996C127.61 213.567 115.495 196.111 115.495 196.111C114.919 196.002 100.336 193.386 100.336 193.386L103.623 180.652Z" fill="#455A64"/>
<path d="M99.9262 168.537C99.9262 168.537 46.011 156.965 39.4708 158.259C32.9306 159.552 24.9016 165.027 23.8123 172.395C22.7231 179.763 23.037 184.895 31.2135 189.257C39.39 193.619 103.808 194.013 103.808 194.013L105.663 180.219L95.4598 176.662L101.111 178.954L99.9262 168.537Z" fill="#263238"/>
<path d="M103.496 192.425C103.496 192.425 103.496 192.353 103.525 192.211C103.553 192.068 103.582 191.844 103.625 191.573C103.72 191.002 103.853 190.184 104.029 189.138C104.395 187.012 104.923 183.958 105.57 180.186L105.651 180.291C101.984 179.882 97.8645 178.388 93.4362 176.538C89.0079 174.688 84.2324 172.452 79.1286 170.354C76.6069 169.292 74.0299 168.367 71.4088 167.581C68.9849 166.799 66.4496 166.419 63.903 166.454C61.6007 166.558 59.3159 166.906 57.0869 167.491C54.9845 168.005 53.0486 168.585 51.2649 169.065C48.4685 169.911 45.5879 170.449 42.6746 170.668H41.3C40.9005 170.668 40.5627 170.626 40.2916 170.611L39.678 170.564L39.4688 170.54H39.678L40.2964 170.564C40.5675 170.564 40.9005 170.611 41.3 170.592L42.6699 170.559C45.5745 170.302 48.4441 169.741 51.2316 168.885C53.0106 168.409 54.9465 167.805 57.0536 167.277C59.2958 166.68 61.595 166.323 63.9125 166.212C66.3716 166.083 68.9354 166.592 71.4896 167.325C74.1207 168.11 76.7073 169.037 79.238 170.102C84.3513 172.209 89.1125 174.459 93.5409 176.31C97.9692 178.16 102.055 179.672 105.684 180.091H105.779V180.181C105.099 183.949 104.543 186.998 104.157 189.124C103.962 190.165 103.81 190.983 103.706 191.549C103.653 191.816 103.61 192.025 103.582 192.182C103.558 192.265 103.53 192.346 103.496 192.425Z" fill="#455A64"/>
<path d="M49.0102 169.16C48.9817 169.199 48.4823 168.813 47.5833 168.319C46.4381 167.678 45.2106 167.198 43.935 166.892C42.6588 166.585 41.3461 166.457 40.0347 166.511C39.0263 166.554 38.408 166.663 38.3984 166.62C38.5358 166.564 38.6795 166.524 38.8265 166.502C39.2221 166.421 39.6225 166.365 40.0252 166.335C42.706 166.117 45.3866 166.759 47.6784 168.166C48.0233 168.376 48.3538 168.608 48.6678 168.861C48.7938 168.946 48.9088 169.047 49.0102 169.16Z" fill="#455A64"/>
<path d="M125.079 184.795C125.079 184.795 124.96 184.852 124.731 184.905C124.411 184.976 124.085 185.021 123.756 185.038C122.665 185.103 121.571 184.963 120.531 184.624C119.489 184.287 118.52 183.754 117.678 183.054C117.424 182.845 117.187 182.616 116.969 182.369C116.881 182.284 116.808 182.187 116.75 182.079C116.783 182.046 117.135 182.422 117.787 182.916C119.498 184.21 121.592 184.895 123.737 184.862C124.565 184.847 125.069 184.752 125.079 184.795Z" fill="#263238"/>
<path d="M128.872 201.31C128.872 201.353 128.396 201.31 127.687 201.381C125.792 201.548 124.007 202.341 122.612 203.636C122.08 204.111 121.799 204.487 121.766 204.463C121.951 204.108 122.196 203.786 122.489 203.512C123.169 202.816 123.977 202.256 124.867 201.862C125.756 201.47 126.712 201.249 127.683 201.21C128.082 201.176 128.484 201.21 128.872 201.31Z" fill="#263238"/>
<path d="M112.887 79.0768C113.444 79.8236 114.543 79.9187 115.446 79.6857C116.35 79.4526 117.168 78.9674 118.077 78.7629C119.136 78.5572 120.233 78.7346 121.173 79.2635C122.114 79.7924 122.835 80.6383 123.209 81.6501C123.504 82.5205 123.518 83.4576 123.732 84.3518C124.113 85.9548 125.116 87.3246 125.882 88.7801C126.648 90.2356 127.2 91.9765 126.605 93.5366C125.939 95.2585 123.965 96.2003 122.12 96.1622C120.274 96.1242 118.543 95.3013 116.95 94.3738C115.356 93.4463 113.81 92.3903 112.055 91.81C110.3 91.2297 108.25 91.1917 106.733 92.2334C106.281 89.3104 106.097 86.3521 106.186 83.3957" fill="#263238"/>
<path d="M123.576 77.5071C123.576 77.5071 123.495 77.5404 123.367 77.626C123.185 77.7565 123.055 77.9468 123 78.1635C122.952 78.3304 122.951 78.5073 122.996 78.675C123.041 78.8427 123.132 78.9948 123.257 79.1148C123.416 79.2818 123.614 79.4067 123.833 79.4781C124.052 79.5495 124.286 79.5652 124.513 79.5238C124.789 79.4724 125.05 79.3604 125.278 79.1959C125.506 79.0314 125.695 78.8185 125.83 78.5725C125.979 78.2867 126.061 77.9711 126.071 77.6491C126.081 77.3272 126.018 77.0071 125.887 76.7127C125.611 76.0475 125.105 75.5039 124.461 75.1811C123.753 74.8446 122.981 74.6676 122.197 74.6626C121.414 74.6577 120.639 74.825 119.928 75.1526C119.282 75.4866 118.731 75.9773 118.325 76.5795C117.916 77.1503 117.592 77.7496 117.231 78.2776C116.911 78.7844 116.511 79.2358 116.046 79.6142C115.658 79.9316 115.188 80.1327 114.691 80.1945C114.316 80.2473 113.934 80.2014 113.582 80.0613C113.361 79.9762 113.162 79.8411 113.002 79.6665C112.942 79.6097 112.894 79.5419 112.859 79.4667C113.071 79.6912 113.331 79.8637 113.62 79.9709C114.014 80.1006 114.436 80.1249 114.842 80.0414C115.248 79.958 115.626 79.7697 115.937 79.4953C116.379 79.1204 116.758 78.6772 117.059 78.1825C117.407 77.6593 117.721 77.0599 118.139 76.4654C118.56 75.8243 119.138 75.3018 119.818 74.948C120.563 74.5977 121.377 74.4185 122.2 74.4234C123.023 74.4284 123.834 74.6174 124.575 74.9766C125.276 75.3242 125.826 75.9163 126.121 76.6414C126.26 76.9673 126.324 77.3207 126.308 77.675C126.292 78.0292 126.195 78.3751 126.025 78.6867C125.871 78.9541 125.658 79.1841 125.404 79.36C125.15 79.536 124.861 79.6537 124.556 79.7046C124.304 79.7454 124.045 79.7233 123.804 79.6403C123.562 79.5573 123.345 79.416 123.172 79.2289C123.038 79.0872 122.945 78.9125 122.901 78.7227C122.858 78.5329 122.866 78.3349 122.924 78.1492C122.994 77.9161 123.151 77.7186 123.362 77.5974C123.426 77.5525 123.499 77.5216 123.576 77.5071Z" fill="#263238"/>
<path d="M121.18 88.5612C121.414 87.9047 121.497 87.204 121.422 86.5111C121.318 85.7664 121.081 85.0463 120.723 84.385C120.326 83.5574 119.732 82.8403 118.992 82.2968C118.191 81.8551 117.267 81.688 116.362 81.8212C115.597 81.9094 114.827 81.9285 114.059 81.8783C113.534 81.8413 113.025 81.6782 112.575 81.4026C112.457 81.3239 112.347 81.233 112.247 81.1315C112.181 81.0554 112.152 81.0173 112.157 81.0126C112.162 81.0078 112.314 81.141 112.632 81.317C113.072 81.5549 113.56 81.6899 114.059 81.7118C114.819 81.7368 115.579 81.7002 116.333 81.6024C116.788 81.5527 117.248 81.5527 117.703 81.6024C118.209 81.6476 118.698 81.8105 119.13 82.078C119.906 82.6455 120.526 83.3997 120.933 84.2708C121.294 84.9588 121.52 85.7096 121.598 86.4826C121.651 87.007 121.595 87.5366 121.432 88.038C121.386 88.1719 121.331 88.3023 121.265 88.428C121.213 88.5231 121.189 88.5659 121.18 88.5612Z" fill="#455A64"/>
<path d="M69.8203 162.44C80.5938 170.692 96.1572 179.035 105.661 176.89C109.304 176.067 115.697 168.966 118.855 166.973C122.014 164.98 124.696 162.083 125.966 158.568L121.443 150.758L73.5114 161.303L69.8203 162.44Z" fill="#F6B101"/>
<path d="M133.086 95.8481C133.086 95.8481 135.165 98.1123 135.488 99.4203C135.812 100.728 141.196 117.043 141.196 117.043C141.196 117.043 151.936 146.486 146.704 152.941C144.136 156.113 131.331 158.972 125.062 156.988L122.836 138.961C123.419 138.048 124.287 137.354 125.306 136.987C126.325 136.619 127.436 136.599 128.468 136.93L123.559 125.99L123.721 109.019L131.578 96.1288" fill="url(#paint0_linear_7003_5447)"/>
<path d="M59.6108 106.213L49.1084 141.763C49.1084 141.763 46.2544 149.535 46.2544 151.428C46.2544 153.321 45.8787 156.546 49.2891 158.444C52.6995 160.342 57.0565 163.828 61.4182 161.774C65.78 159.719 69.9467 158.606 69.7564 155.005C69.5661 151.404 68.4293 144.013 68.4293 144.013L72.9766 122.033L59.6108 106.213Z" fill="url(#paint1_linear_7003_5447)"/>
<path d="M133.397 96.1434C133.397 96.1434 123.556 86.3735 106.223 85.2319L85.8844 86.3592C85.2423 86.6113 68.1996 91.7674 63.9616 96.6999C60.8556 100.31 59.6094 106.213 59.6094 106.213L72.1048 131.851L73.7458 152.941L69.8216 162.454L125.949 158.582L123.57 116.145L133.397 96.1434Z" fill="url(#paint2_linear_7003_5447)"/>
<path d="M55.9006 140.479C55.9006 140.522 55.2632 140.598 54.2786 140.954C53.0028 141.402 51.8312 142.105 50.8349 143.019C49.8509 143.946 49.0688 145.067 48.5375 146.31C48.1284 147.262 48.0047 147.908 47.9619 147.899C47.9562 147.738 47.9754 147.578 48.019 147.423C48.1038 147.014 48.2232 146.613 48.3757 146.225C48.8702 144.929 49.6545 143.764 50.6686 142.819C51.6826 141.873 52.8996 141.172 54.2263 140.769C54.6243 140.646 55.0315 140.556 55.4439 140.498C55.5942 140.467 55.7483 140.461 55.9006 140.479Z" fill="#263238"/>
<path d="M55.8233 140.769C55.1515 140.539 54.4629 140.36 53.7637 140.236C53.0531 140.197 52.3404 140.216 51.6328 140.293C52.3148 140.013 53.0565 139.91 53.7891 139.993C54.5217 140.076 55.2214 140.343 55.8233 140.769Z" fill="#263238"/>
<path d="M65.6988 151.965C65.6463 152.102 65.5724 152.228 65.48 152.341C65.2579 152.676 65.0115 152.994 64.7428 153.293C63.8619 154.272 62.8173 155.092 61.6558 155.714C60.4923 156.334 59.2309 156.749 57.9267 156.941C57.5329 156.999 57.1355 157.029 56.7375 157.031C56.5927 157.046 56.4463 157.036 56.3047 157.003C56.3047 156.96 56.923 156.946 57.8981 156.765C60.4566 156.298 62.805 155.042 64.6143 153.174C65.304 152.446 65.6608 151.937 65.6988 151.965Z" fill="#263238"/>
<g opacity="0.3">
<path d="M56.7188 157.336C58.2465 157.739 59.8593 157.684 61.3557 157.176C62.8521 156.669 64.1659 155.732 65.133 154.482C65.7752 153.626 66.403 152.527 67.4732 152.427C67.9869 152.375 68.7385 152.427 68.7908 151.913C68.8193 151.619 68.5387 151.385 68.2628 151.276C67.8293 151.15 67.3709 151.134 66.9297 151.23C66.4885 151.327 66.0784 151.532 65.7371 151.828C65.0641 152.426 64.4566 153.094 63.9249 153.821C62.2934 155.771 59.116 156.48 56.7188 157.341" fill="black"/>
</g>
<path d="M70.849 129.172C70.7776 129.172 70.1973 125.063 69.5505 119.978C68.9036 114.893 68.4279 110.755 68.4993 110.746C68.5706 110.736 69.1462 114.855 69.793 119.945C70.4399 125.034 70.9156 129.163 70.849 129.172Z" fill="#263238"/>
<path d="M139.282 143.466C138.68 142.679 137.998 141.956 137.246 141.311C136.413 140.635 135.514 140.044 134.563 139.546C133.493 138.976 132.271 138.429 130.977 137.872C129.813 137.268 128.547 136.886 127.243 136.745C126.954 136.729 126.663 136.745 126.377 136.792C126.106 136.835 125.84 136.93 125.574 136.997C125.09 137.106 124.622 137.273 124.18 137.496C123.562 137.863 123.072 138.411 122.777 139.066C122.548 139.542 122.463 139.799 122.439 139.789C122.415 139.78 122.439 139.718 122.487 139.585C122.541 139.393 122.61 139.205 122.691 139.023C122.964 138.326 123.457 137.737 124.094 137.344C124.544 137.102 125.024 136.919 125.521 136.802C125.79 136.713 126.063 136.639 126.339 136.578C126.641 136.524 126.947 136.503 127.253 136.517C128.581 136.649 129.872 137.031 131.058 137.644C132.347 138.205 133.574 138.757 134.649 139.347C135.61 139.858 136.512 140.472 137.341 141.178C137.897 141.657 138.398 142.196 138.835 142.786C138.992 142.995 139.092 143.171 139.163 143.285C139.211 143.34 139.251 143.401 139.282 143.466Z" fill="#263238"/>
<path d="M141.133 139.97C140.699 139.756 140.283 139.51 139.887 139.233C138.921 138.601 137.883 138.087 136.795 137.701C135.707 137.33 134.541 137.251 133.413 137.473C132.953 137.6 132.501 137.758 132.062 137.948C132.153 137.854 132.259 137.777 132.376 137.72C132.689 137.541 133.023 137.403 133.371 137.311C134.529 137.031 135.743 137.087 136.871 137.473C137.979 137.865 139.026 138.411 139.982 139.095C140.393 139.349 140.778 139.642 141.133 139.97Z" fill="#263238"/>
<path d="M68.753 104.196C68.6364 103.785 68.5474 103.367 68.4867 102.945C68.0828 100.931 67.3925 98.9843 66.4366 97.1657C66.2162 96.7988 66.0208 96.4174 65.8516 96.0242C66.1436 96.3414 66.3916 96.6966 66.5888 97.0801C67.1156 97.9745 67.5552 98.9175 67.9016 99.896C68.2474 100.875 68.5007 101.885 68.6579 102.912C68.7429 103.334 68.7748 103.765 68.753 104.196Z" fill="#263238"/>
<path d="M128.949 97.3655C128.977 97.3893 128.568 97.96 127.95 98.9113C127.152 100.151 126.429 101.438 125.785 102.764C125.15 104.097 124.599 105.468 124.135 106.869C123.778 107.944 123.593 108.619 123.555 108.61C123.557 108.449 123.583 108.288 123.631 108.134C123.697 107.825 123.807 107.378 123.969 106.831C124.386 105.404 124.918 104.014 125.562 102.674C126.207 101.333 126.957 100.047 127.807 98.8257C128.135 98.3501 128.411 97.9933 128.616 97.746C128.708 97.604 128.82 97.4759 128.949 97.3655Z" fill="#263238"/>
<path d="M120.644 161.664C120.644 161.664 120.611 161.693 120.544 161.726L120.23 161.883C119.954 162.021 119.545 162.221 119.012 162.463C117.956 162.939 116.411 163.653 114.47 164.437C110.603 165.993 105.09 167.948 98.7163 168.656C95.7244 168.983 92.7049 168.966 89.717 168.604C87.2804 168.307 84.8862 167.729 82.5822 166.882C81.0272 166.316 79.53 165.603 78.1111 164.751C77.5974 164.466 77.2359 164.19 76.979 164.024L76.6889 163.824C76.655 163.803 76.6231 163.779 76.5938 163.752C76.5938 163.752 76.6318 163.752 76.7031 163.805L77.0028 163.981C77.2739 164.133 77.6402 164.399 78.1586 164.67C79.5909 165.484 81.0918 166.17 82.644 166.72C84.9422 167.531 87.3244 168.08 89.7455 168.357C92.7155 168.704 95.7153 168.716 98.6878 168.39C105.028 167.686 110.527 165.764 114.408 164.257C116.349 163.491 117.904 162.83 118.974 162.354L120.206 161.817L120.53 161.679L120.644 161.664Z" fill="#263238"/>
<path d="M100.974 98.7591C100.837 98.8632 100.686 98.948 100.526 99.0112C100.349 99.1078 100.165 99.1905 99.9747 99.2585C99.7298 99.3637 99.4788 99.4542 99.2232 99.5296C98.5578 99.7366 97.8747 99.8815 97.1826 99.9625C96.3318 100.048 95.4745 100.048 94.6236 99.9625C93.7745 99.8622 92.9378 99.6757 92.1265 99.406C91.4662 99.1784 90.8292 98.8885 90.2239 98.5403C89.99 98.4093 89.7629 98.2664 89.5437 98.1122C89.378 98.0014 89.2191 97.8807 89.068 97.7507C88.93 97.6496 88.8025 97.5349 88.6875 97.4082C88.7208 97.3654 89.2821 97.8363 90.319 98.3881C90.9294 98.7078 91.5659 98.9751 92.2216 99.1872C93.8085 99.7014 95.4835 99.8875 97.1446 99.7342C97.8261 99.6678 98.5008 99.5437 99.1614 99.3632C100.303 99.0492 100.95 98.7115 100.974 98.7591Z" fill="white"/>
<path d="M123.312 112.886C123.338 112.966 123.354 113.049 123.359 113.133C123.388 113.324 123.416 113.557 123.454 113.837C123.53 114.451 123.63 115.34 123.74 116.439C123.958 118.632 124.215 121.671 124.415 125.039C124.615 128.407 124.715 131.451 124.753 133.662C124.753 134.766 124.781 135.655 124.753 136.274C124.753 136.559 124.753 136.797 124.753 136.987C124.764 137.069 124.764 137.153 124.753 137.235C124.731 137.154 124.722 137.071 124.724 136.987C124.724 136.797 124.701 136.564 124.686 136.279C124.662 135.622 124.624 134.742 124.582 133.667C124.501 131.46 124.372 128.435 124.173 125.053C123.973 121.671 123.744 118.651 123.568 116.453C123.483 115.378 123.416 114.498 123.364 113.847L123.316 113.138C123.303 113.055 123.301 112.97 123.312 112.886Z" fill="#263238"/>
<g opacity="0.3">
<path d="M73.4043 148.589C77.4759 148.512 81.7853 148.498 85.2956 150.586C87.5407 151.928 89.2387 154.025 91.403 155.49C94.1106 157.31 97.3952 158.066 100.626 157.612C103.285 157.226 105.82 156.023 108.507 155.975C110.886 155.937 113.183 156.813 115.509 157.331C119.115 158.136 122.859 158.1 126.449 157.226C125.569 155.709 123.804 154.986 122.168 154.372C106.326 148.566 89.8627 144.621 73.1094 142.619" fill="black"/>
</g>
<g opacity="0.3">
<path d="M54.3428 140.189C53.6483 140.279 52.7969 140.293 52.4401 139.713C52.3097 139.425 52.2925 139.098 52.3921 138.797C52.4917 138.497 52.7007 138.245 52.9776 138.091C53.5445 137.806 54.1751 137.672 54.8089 137.701C54.0145 137.021 54.5187 135.665 55.3321 135.009C56.1455 134.352 57.2347 133.991 57.8388 133.144C58.3144 132.474 58.4762 131.57 59.085 131.009C59.9317 130.224 61.3015 130.424 62.3242 129.886C63.6417 129.196 64.0223 127.532 64.3552 126.081C65.3414 122.137 66.9245 118.368 69.0499 114.903C70.3104 123.788 71.861 133.311 72.0037 142.282C72.0037 142.938 70.8669 143.309 70.5482 143.88C70.1296 144.631 69.264 144.998 68.4458 145.259C66.4814 145.878 64.341 146.144 62.3622 145.564C60.3835 144.983 58.6189 143.428 58.1813 141.416L58.1289 140.978" fill="black"/>
</g>
<g opacity="0.3">
<path d="M134.507 139.418C136.233 140.197 137.756 141.363 138.96 142.824C140.164 144.285 141.017 146.004 141.452 147.846C141.566 148.322 141.708 148.917 142.184 149.093C142.311 149.121 142.443 149.124 142.571 149.101C142.7 149.078 142.822 149.03 142.931 148.959C143.041 148.888 143.135 148.796 143.208 148.688C143.282 148.581 143.333 148.459 143.359 148.332C143.445 147.806 143.359 147.267 143.112 146.795C142.144 144.523 140.596 142.545 138.622 141.061C136.648 139.576 134.319 138.637 131.867 138.338" fill="black"/>
</g>
<path d="M87.0205 141.639H87.1347L87.4772 141.611L88.8185 141.516L93.908 141.178L112.073 140.036L111.973 140.151C111.574 132.792 111.093 124.102 110.584 114.822C110.584 114.679 110.584 114.541 110.584 114.403L110.708 114.522C100.609 114.757 90.5361 115.643 80.5517 117.177L80.6325 117.062C81.7027 122.989 82.5779 127.845 83.1915 131.227C83.4912 132.906 83.7195 134.224 83.8812 135.128C83.9573 135.57 84.0144 135.908 84.0525 136.15C84.0905 136.393 84.1048 136.498 84.1048 136.498C84.1048 136.498 84.0715 136.383 84.0239 136.155L83.8241 135.137C83.6529 134.233 83.4008 132.925 83.0821 131.246C82.4495 127.869 81.5458 123.018 80.4375 117.096V116.996H80.5374C90.5279 115.426 100.612 114.522 110.722 114.289H110.841V114.408C110.841 114.546 110.841 114.689 110.841 114.827C111.341 124.107 111.792 132.797 112.197 140.155V140.265H112.092L93.9222 141.316L88.828 141.596L87.4867 141.658H87.1442L87.0205 141.639Z" fill="white"/>
<path d="M90.1614 139.109C90.0392 138.854 89.9405 138.588 89.8665 138.314C89.6952 137.801 89.4622 137.044 89.1863 136.112C88.6345 134.248 87.9448 131.646 87.3122 128.74C86.6796 125.833 86.2372 123.17 85.9661 121.267C85.8282 120.316 85.7283 119.521 85.676 118.979C85.6351 118.699 85.6128 118.416 85.6094 118.133C85.6868 118.405 85.7409 118.683 85.7711 118.965C85.8615 119.54 85.9899 120.311 86.1373 121.239C86.456 123.141 86.9269 125.8 87.5643 128.697C88.2017 131.594 88.8581 134.2 89.3623 136.074C89.6096 136.983 89.8141 137.734 89.9711 138.295C90.0524 138.562 90.116 138.834 90.1614 139.109Z" fill="white"/>
<path d="M93.8644 139.784C93.8449 139.711 93.8321 139.636 93.8264 139.561L93.755 138.923C93.7027 138.329 93.6266 137.535 93.5362 136.574C93.3555 134.59 93.0891 131.851 92.7514 128.83C92.4137 125.81 92.0569 123.079 91.8001 121.101C91.6717 120.149 91.567 119.355 91.4909 118.765C91.4624 118.508 91.4338 118.29 91.4148 118.128C91.4034 118.052 91.4034 117.975 91.4148 117.9C91.4447 117.969 91.4639 118.043 91.4719 118.118C91.5052 118.29 91.548 118.499 91.5956 118.746C91.6954 119.298 91.8286 120.092 91.9808 121.077C92.29 123.046 92.6753 125.776 93.013 128.802C93.3507 131.827 93.5933 134.571 93.7312 136.559C93.8026 137.554 93.8501 138.362 93.8739 138.938C93.8739 139.19 93.8739 139.413 93.8739 139.58C93.8821 139.648 93.8788 139.717 93.8644 139.784Z" fill="white"/>
<path d="M100.263 141.996C100.232 141.915 100.212 141.83 100.206 141.744C100.178 141.544 100.139 141.301 100.092 141.002C99.992 140.326 99.8493 139.408 99.6828 138.291C99.3309 135.998 98.7839 132.844 98.0323 129.386C97.2808 125.928 96.4722 122.832 95.8443 120.601C95.5352 119.512 95.2783 118.618 95.0928 117.961C95.0072 117.671 94.9406 117.433 94.8883 117.238C94.8591 117.157 94.8414 117.072 94.8359 116.986C94.8779 117.061 94.9114 117.141 94.9358 117.224L95.1832 117.933C95.3925 118.546 95.6588 119.44 96.0156 120.549C96.6862 122.775 97.5234 125.871 98.2749 129.334C99.0264 132.797 99.5449 135.965 99.8588 138.262C100.011 139.413 100.125 140.345 100.187 140.992L100.254 141.734C100.268 141.821 100.272 141.909 100.263 141.996Z" fill="white"/>
<path d="M105.523 140.688C105.488 140.615 105.463 140.539 105.446 140.46C105.399 140.279 105.347 140.055 105.275 139.789C105.128 139.171 104.933 138.362 104.69 137.33C104.215 135.251 103.553 132.369 102.849 129.187C101.622 123.65 100.638 119.017 100.447 117.904H100.495C100.376 118.038 100.314 118.104 100.305 118.095C100.348 118.015 100.399 117.94 100.457 117.871L100.485 117.833V117.885C100.785 118.975 101.851 123.593 103.078 129.125C103.782 132.307 104.405 135.194 104.847 137.282L105.356 139.761C105.404 140.032 105.446 140.236 105.48 140.436C105.508 140.517 105.522 140.602 105.523 140.688Z" fill="white"/>
<path d="M108.561 139.342C108.494 139.342 107.957 134.309 107.358 128.083C106.758 121.857 106.335 116.81 106.406 116.805C106.478 116.801 107.01 121.838 107.605 128.059C108.199 134.281 108.628 139.342 108.561 139.342Z" fill="white"/>
<path d="M94.2121 136.231C93.9586 135.67 93.8834 135.044 93.9966 134.439C94.1097 133.833 94.4059 133.277 94.845 132.845C95.2841 132.413 95.8452 132.126 96.4524 132.023C97.0596 131.92 97.6839 132.006 98.2409 132.269C99.4205 132.83 100.105 134.081 100.524 135.313C101.177 137.228 101.383 139.266 101.128 141.273C101.079 142.216 100.706 143.113 100.072 143.813" fill="#EB996E"/>
<path d="M56.0395 139.57L51.5161 146.477C51.5161 146.477 50.7455 154.839 56.8053 155.3C62.8651 155.761 64.7487 151.619 64.7487 151.619V143.942L56.0395 139.57Z" fill="#FFBE9D"/>
<path d="M84.7564 131.227C84.2046 130.138 82.8538 129.634 81.6456 129.738C80.4348 129.919 79.2795 130.368 78.2637 131.051C77.2125 131.67 75.9187 133.239 74.7344 133.534L81.9548 135.755C82.849 135.342 83.9906 134.871 84.5138 134.038C84.7876 133.628 84.9533 133.155 84.9957 132.664C85.0381 132.172 84.9558 131.678 84.7564 131.227Z" fill="#FFBE9D"/>
<path d="M66.3045 139.137C66.3045 139.137 65.6433 144.517 67.6982 145.231C69.753 145.944 72.526 144.674 72.526 144.674L88.2463 147.452C88.2463 147.452 91.124 150.61 95.0006 150.781C98.8771 150.953 101.236 146.31 101.236 146.31L101.664 138.01L90.9671 136.816C90.9671 136.816 78.6001 134.229 77.5965 133.915C76.5928 133.601 70.7613 131.779 69.6483 131.722C68.5353 131.665 67.194 134.576 67.194 134.576L66.3045 139.137Z" fill="#263238"/>
<path d="M92.3905 137.349C91.6996 137.26 90.9984 137.299 90.3214 137.463C89.9734 137.527 89.6534 137.696 89.4047 137.948C89.156 138.199 88.9907 138.521 88.931 138.87C88.8713 139.219 88.9202 139.577 89.0711 139.897C89.2219 140.217 89.4674 140.483 89.7744 140.659C90.4963 141.104 91.3092 141.381 92.1527 141.468L95.8675 142.139C96.3348 142.248 96.816 142.284 97.2945 142.248C97.535 142.227 97.7675 142.151 97.9744 142.027C98.1812 141.902 98.357 141.732 98.4884 141.53C98.6163 141.323 98.6604 141.076 98.6118 140.838C98.5632 140.6 98.4254 140.39 98.2268 140.25" fill="#455A64"/>
<path d="M106.728 139.651L126.919 140.093C126.919 140.093 135.143 144.469 134.325 150.187C133.507 155.904 126.068 156.989 126.068 156.989L106 151.756L106.728 139.651Z" fill="#FFBE9D"/>
<path d="M73.8021 132.569C73.0125 132.378 72.2562 132.193 71.4239 132.064C70.5915 131.936 69.5641 132.226 69.331 133.016C69.283 133.301 69.3009 133.594 69.3833 133.872C69.4657 134.15 69.6105 134.405 69.8066 134.619C71.2717 136.574 73.8354 137.401 76.2755 137.53C76.9081 137.606 77.5495 137.514 78.1353 137.263C78.4247 137.132 78.6634 136.91 78.8154 136.631C78.9673 136.352 79.0241 136.032 78.9772 135.717C78.7796 135.223 78.4049 134.819 77.926 134.585C76.666 133.702 75.2742 133.023 73.8021 132.573" fill="#455A64"/>
<path d="M107.546 144.769C108.283 143.447 106.461 141.492 106.461 141.492C106.895 140.696 107.176 139.827 107.289 138.928C107.436 137.53 104.977 136.321 104.977 136.321L100.273 135.289C100.273 135.289 94.0895 135.803 93.0764 136.835C92.0633 137.867 93.0764 139.213 93.0764 139.213L93.2952 139.613C93.709 140.326 98.2753 139.832 98.2753 139.832C98.2753 139.832 100.539 140.25 100.753 140.45C100.967 140.65 101.885 142.22 100.568 142.624C100.254 142.719 92.1394 143.575 90.7457 143.666C89.3521 143.756 88.6814 144.308 88.6719 146.044C88.6719 147.152 90.5745 147.718 90.8979 147.808C90.6221 147.737 89.2046 147.433 88.7432 148.617C88.2295 149.93 90.798 150.819 90.798 150.819C90.8951 150.832 90.9877 150.867 91.0676 150.924C91.1474 150.981 91.2121 151.056 91.2558 151.143C91.2996 151.231 91.3211 151.328 91.3184 151.426C91.3157 151.523 91.2889 151.619 91.2404 151.704C90.4841 153.726 93.7376 154.311 93.7376 154.311L100.872 154.063C100.872 154.063 104.031 154.801 105.629 153.726C107.227 152.651 106.29 150.315 107.465 148.617C108.64 146.919 106.813 146.091 107.546 144.769Z" fill="#FFBE9D"/>
<path d="M102.855 145.963C102.705 146.033 102.544 146.082 102.38 146.106C102.08 146.182 101.638 146.282 101.095 146.396C100.011 146.619 98.4984 146.905 96.8146 147.162C95.1308 147.418 93.6134 147.604 92.5337 147.713C91.9819 147.77 91.5348 147.808 91.2257 147.827C91.0677 147.846 90.908 147.846 90.75 147.827C90.9028 147.771 91.063 147.737 91.2257 147.728L92.5289 147.537C93.6277 147.38 95.145 147.166 96.8098 146.909C98.4746 146.653 99.9919 146.401 101.091 146.215L102.38 146.001C102.536 145.972 102.696 145.959 102.855 145.963Z" fill="#EB996E"/>
<path d="M104.017 149.763C103.866 149.84 103.707 149.899 103.542 149.939C103.237 150.039 102.795 150.168 102.248 150.306C100.81 150.668 99.3473 150.925 97.872 151.076C96.3998 151.232 94.9181 151.279 93.4389 151.219C92.8682 151.195 92.4115 151.162 92.0928 151.124C91.9312 151.12 91.771 151.093 91.6172 151.043C91.6172 151.005 92.3212 151.043 93.4485 151.043C96.395 151.062 99.3346 150.757 102.215 150.134C103.332 149.901 104.003 149.725 104.017 149.763Z" fill="#EB996E"/>
<path d="M106.602 137.439C106.602 137.439 106.707 137.487 106.854 137.644C107.061 137.876 107.208 138.155 107.282 138.457C107.403 138.925 107.403 139.416 107.282 139.884C107.112 140.468 106.874 141.03 106.573 141.558L106.54 141.42C107.025 141.798 107.389 142.308 107.587 142.89C107.785 143.472 107.808 144.098 107.653 144.693C107.552 145.093 107.371 145.468 107.12 145.796L107.068 145.606C107.302 145.705 107.51 145.858 107.675 146.051C107.84 146.244 107.958 146.473 108.019 146.719C108.139 147.154 108.139 147.612 108.019 148.046C107.778 148.726 107.484 149.386 107.139 150.02C106.928 150.44 106.796 150.894 106.749 151.362C106.721 151.694 106.749 151.875 106.749 151.875C106.749 151.875 106.726 151.837 106.702 151.747C106.678 151.62 106.665 151.491 106.664 151.362C106.679 150.876 106.793 150.399 106.997 149.958C107.312 149.322 107.585 148.666 107.815 147.994C107.924 147.599 107.924 147.181 107.815 146.786C107.765 146.577 107.668 146.383 107.531 146.218C107.394 146.053 107.221 145.922 107.025 145.834L106.873 145.777L106.968 145.649C107.19 145.343 107.351 144.998 107.444 144.631C107.593 144.056 107.563 143.448 107.358 142.89C107.173 142.384 106.854 141.937 106.435 141.596L106.359 141.535L106.402 141.454C106.705 140.944 106.949 140.401 107.13 139.836C107.262 139.4 107.286 138.938 107.201 138.49C107.099 138.093 106.892 137.73 106.602 137.439Z" fill="#EB996E"/>
<path d="M96.2339 143.052C96.1511 143.084 96.0649 143.106 95.9771 143.119L95.2398 143.271C94.9211 143.337 94.5263 143.409 94.0649 143.461C93.6036 143.513 93.0803 143.604 92.4953 143.642C91.9102 143.68 91.2729 143.742 90.5927 143.746C89.9125 143.751 89.1657 143.746 88.3904 143.746C86.7075 143.662 85.0324 143.462 83.377 143.147C81.7291 142.815 80.1063 142.369 78.5206 141.811C77.7976 141.535 77.0937 141.283 76.4753 140.992C75.857 140.702 75.2672 140.441 74.7439 140.174C74.2207 139.908 73.7641 139.646 73.3598 139.418C72.9555 139.19 72.613 138.98 72.3371 138.8L71.7093 138.381C71.6345 138.336 71.5644 138.283 71.5 138.224C71.5845 138.252 71.6645 138.292 71.7378 138.343L72.3895 138.714C72.6701 138.885 73.0126 139.085 73.4264 139.299C73.8402 139.513 74.2921 139.775 74.8248 140.017C75.3575 140.26 75.9236 140.55 76.5562 140.802C77.1888 141.054 77.8737 141.325 78.5967 141.592C81.7516 142.698 85.0508 143.339 88.3904 143.494C89.161 143.518 89.8935 143.551 90.5784 143.528C91.2633 143.504 91.9007 143.49 92.481 143.452C93.0613 143.413 93.5845 143.356 94.0459 143.309C94.5073 143.261 94.9021 143.209 95.2255 143.161L95.9675 143.057C96.0556 143.042 96.1454 143.04 96.2339 143.052Z" fill="#455A64"/>
<path d="M54.504 145.811C54.504 145.811 53.3672 142.881 53.8429 142.129C54.3185 141.378 56.2211 139.751 56.2211 139.751C56.2211 139.751 55.56 137.373 56.9774 136.826L58.4044 136.26C58.4044 136.26 58.1428 133.615 59.6411 132.764C60.723 132.24 61.9243 132.012 63.1229 132.103C63.1229 132.103 66.0243 126.975 67.6558 127.384C69.2873 127.793 75.6563 130.78 75.7419 132.778C75.8275 134.776 75.0474 134.933 73.8678 134.776C73.0687 134.671 68.8449 133.249 68.8449 133.249L66.2289 135.599L67.8413 137.121C67.8413 137.121 72.4694 139.499 71.052 141.373C69.6345 143.247 67.8413 142.129 66.3287 141.468C64.8162 140.807 62.3618 138.443 62.3618 138.443L65.387 142.881C65.387 142.881 71.8558 145.559 71.8891 147.604C71.9013 148.144 71.7186 148.671 71.3745 149.087C71.0304 149.504 70.5478 149.783 70.0151 149.873C70.0151 149.873 71.0139 151.647 69.3349 152.032C67.6558 152.418 63.9695 152.032 63.9695 152.032L59.6601 150.154L54.504 145.811Z" fill="#FFBE9D"/>
<path d="M66.7821 152.185C66.5702 152.207 66.3566 152.207 66.1447 152.185C65.7357 152.185 65.1459 152.137 64.4181 152.061C62.52 151.856 60.6445 151.479 58.8149 150.934C58.2697 150.795 57.775 150.505 57.388 150.096C57.0665 149.696 56.7831 149.266 56.5413 148.812L55.257 146.596L54.4056 145.088C54.2923 144.908 54.1982 144.717 54.125 144.517C54.2615 144.681 54.384 144.856 54.4913 145.04L55.4045 146.505L56.7411 148.698C56.9791 149.134 57.2561 149.548 57.5687 149.935C57.9345 150.308 58.3975 150.572 58.9053 150.696C60.7223 151.234 62.578 151.632 64.4562 151.885C65.1792 151.985 65.7642 152.047 66.1733 152.089C66.3787 152.102 66.5825 152.134 66.7821 152.185Z" fill="#EB996E"/>
<path d="M69.9244 150.187C69.7408 150.188 69.5576 150.17 69.3774 150.134C68.8846 150.064 68.3969 149.963 67.9172 149.83C67.2021 149.634 66.5012 149.389 65.8196 149.097C64.1497 148.371 62.6165 147.364 61.2866 146.12C60.7459 145.614 60.2435 145.069 59.7835 144.488C59.4686 144.102 59.1794 143.695 58.9179 143.271C58.8139 143.122 58.7262 142.963 58.6562 142.795C58.6943 142.767 59.1081 143.428 59.9167 144.384C60.3925 144.94 60.9025 145.466 61.4436 145.958C62.7729 147.162 64.2813 148.152 65.9147 148.893C66.5808 149.193 67.2656 149.451 67.9648 149.663C69.1634 150.025 69.934 150.139 69.9244 150.187Z" fill="#EB996E"/>
<path d="M109.565 77.1741C110.227 76.3703 111.62 76.5034 112.296 77.2883C112.609 77.703 112.801 78.1967 112.849 78.7141C112.898 79.2316 112.802 79.7524 112.571 80.2183C112.092 81.1451 111.379 81.9306 110.502 82.4967C109.868 82.9492 109.197 83.347 108.495 83.6858C108.125 83.8994 107.705 84.0095 107.277 84.0045C106.374 83.9284 105.803 82.8867 105.922 81.9877C106.117 81.0961 106.596 80.2917 107.287 79.6951C107.976 79.1035 108.566 78.4068 109.037 77.6307" fill="#FF725E"/>
<path d="M78.7344 73.8018L73.0884 71.4568C72.1367 71.0607 71.3224 70.3938 70.7465 69.5389C70.1706 68.684 69.8586 67.6787 69.8492 66.648L69.7969 61.1399L74.3156 56.626L85.2556 60.5691L84.1283 67.9941C84.1283 67.9941 80.9176 73.4308 78.7344 73.8018Z" fill="#FF725E"/>
<path d="M98.6485 40.6014C98.0254 38.461 95.2333 36.0875 92.8789 35.5024C91.7053 35.2191 90.4814 35.2179 89.3073 35.499C88.1333 35.7802 87.0426 36.3355 86.1246 37.1196C84.3219 38.7368 83.6132 41.1104 82.0673 42.9369C79.0945 46.4472 73.4723 47.4603 70.6516 51.061C68.0736 54.3335 68.5683 58.9996 70.7991 62.4766C71.7742 63.9892 73.0775 65.459 73.1774 67.2332C73.2344 68.2939 72.8301 69.3308 72.8254 70.3915C72.8254 72.8221 75.2322 75.0529 77.9101 75.0672" fill="#263238"/>
<path d="M97.3984 39.7355C98.15 37.7663 101.817 37.6664 103.696 38.6225C105.575 39.5786 106.755 41.4764 107.839 43.2791C109.475 45.9903 111.108 48.7031 112.738 51.4175C113.994 53.5009 115.254 55.608 116.039 57.9102C116.824 60.2123 117.095 62.7618 116.344 65.0783C115.526 67.5945 113.566 69.6445 112.871 72.213C112.396 73.9254 112.538 75.7519 112.058 77.4452C111.578 79.1385 109.409 82.3397 106.246 82.3302" fill="#263238"/>
<path d="M107.757 56.3596L107.258 88.2283C107.209 91.0445 106.046 93.7268 104.025 95.688C102.003 97.6492 99.2864 98.7295 96.4699 98.6926C93.7385 98.6591 91.1244 97.5769 89.1687 95.6698C87.2129 93.7627 86.0651 91.1768 85.9628 88.4471L85.8153 84.2138C85.8153 84.2138 77.5009 83.3243 77.011 75.0765C76.7732 71.1 76.9492 62.8855 77.1965 55.4416C77.3298 51.4322 79.0165 47.6316 81.9002 44.8429C84.784 42.0541 88.6388 40.4956 92.6504 40.4966C94.6921 40.5193 96.7086 40.9507 98.5808 41.7655C100.453 42.5802 102.143 43.7618 103.551 45.2404C104.959 46.7189 106.057 48.4646 106.779 50.3744C107.502 52.2841 107.834 54.3192 107.757 56.3596Z" fill="#FFBE9D"/>
<path d="M85.7969 84.2232C89.6099 84.1139 93.304 82.872 96.4087 80.6558C96.4087 80.6558 94.1493 86.7156 85.8777 86.3636L85.7969 84.2232Z" fill="#EB996E"/>
<path d="M80.4219 61.1351C80.4342 61.4422 80.5659 61.7322 80.7889 61.9437C81.0119 62.1551 81.3085 62.2712 81.6158 62.2672C81.7659 62.2723 81.9156 62.2472 82.0559 62.1934C82.1962 62.1395 82.3243 62.0581 82.4325 61.9538C82.5408 61.8496 82.627 61.7247 82.686 61.5865C82.7451 61.4483 82.7758 61.2997 82.7764 61.1494C82.7664 60.842 82.6363 60.5507 82.414 60.3381C82.1916 60.1256 81.8948 60.0087 81.5872 60.0126C81.4364 60.0075 81.2861 60.0327 81.1452 60.0868C81.0044 60.1409 80.8758 60.2227 80.7671 60.3274C80.6584 60.432 80.5719 60.5575 80.5126 60.6962C80.4533 60.835 80.4224 60.9842 80.4219 61.1351Z" fill="#263238"/>
<path d="M79.178 59.4752C79.3302 59.6226 80.1911 58.9186 81.4611 58.8616C82.7311 58.8045 83.6871 59.3943 83.8393 59.2326C83.9059 59.1612 83.7442 58.8901 83.3256 58.6142C82.7553 58.264 82.091 58.098 81.423 58.1386C80.7634 58.1665 80.13 58.4049 79.6156 58.8188C79.2208 59.1279 79.1019 59.4323 79.178 59.4752Z" fill="#263238"/>
<path d="M92.8047 61.135C92.8171 61.442 92.9487 61.7321 93.1717 61.9435C93.3947 62.1549 93.6913 62.271 93.9986 62.267C94.149 62.2721 94.2989 62.247 94.4395 62.1933C94.58 62.1395 94.7084 62.0581 94.817 61.9539C94.9256 61.8498 95.0123 61.7249 95.0719 61.5867C95.1314 61.4485 95.1627 61.2998 95.1639 61.1493C95.1516 60.8418 95.0201 60.5512 94.7972 60.3391C94.5744 60.1269 94.2777 60.0097 93.97 60.0125C93.8194 60.008 93.6694 60.0337 93.5288 60.088C93.3882 60.1423 93.2599 60.2241 93.1513 60.3287C93.0428 60.4333 92.9562 60.5584 92.8967 60.6969C92.8372 60.8353 92.8059 60.9843 92.8047 61.135Z" fill="#263238"/>
<path d="M91.6463 59.1231C91.7985 59.2705 92.6642 58.5665 93.9295 58.5095C95.1947 58.4524 96.1555 59.0422 96.3077 58.8805C96.3696 58.8091 96.2078 58.538 95.7893 58.2621C95.2199 57.9096 94.5549 57.7433 93.8867 57.7865C93.2267 57.8131 92.5929 58.0516 92.0792 58.4667C91.6939 58.7711 91.5702 59.0565 91.6463 59.1231Z" fill="#263238"/>
<path d="M87.4881 68.7409C87.4881 68.6695 86.6985 68.5696 85.4142 68.4697C85.086 68.4697 84.7769 68.3984 84.7103 68.1843C84.6723 67.8573 84.7319 67.5263 84.8815 67.233C85.1526 66.4339 85.4285 65.5968 85.7234 64.7216C86.8888 61.1494 87.7116 58.2147 87.5689 58.1719C87.4262 58.1291 86.3655 60.983 85.1907 64.5551C84.9148 65.4351 84.6437 66.277 84.3916 67.0808C84.2079 67.4818 84.1693 67.934 84.2822 68.3603C84.3354 68.4719 84.4131 68.57 84.5094 68.6474C84.6058 68.7248 84.7183 68.7795 84.8387 68.8074C85.02 68.8461 85.2051 68.8636 85.3905 68.8598C86.6842 68.8455 87.4881 68.817 87.4881 68.7409Z" fill="#263238"/>
<path d="M91.9206 53.7244C92.0681 54.0621 93.3238 53.8243 94.8221 53.9194C96.3204 54.0145 97.5428 54.3475 97.7236 54.0288C97.7997 53.8766 97.5761 53.5532 97.0719 53.2583C96.4017 52.8856 95.6553 52.6709 94.8895 52.6305C94.1237 52.5901 93.3588 52.7251 92.6531 53.0252C92.1299 53.2963 91.8683 53.5817 91.9206 53.7244Z" fill="#263238"/>
<path d="M78.9364 54.0669C79.1742 54.3427 80.0352 54.005 81.0863 53.9384C82.1375 53.8718 83.0318 54.0431 83.222 53.7291C83.3076 53.5817 83.1507 53.3011 82.7464 53.0442C82.2106 52.7356 81.5928 52.5994 80.9769 52.6542C80.3605 52.6937 79.7718 52.9248 79.2931 53.3153C78.9412 53.6293 78.8318 53.9337 78.9364 54.0669Z" fill="#263238"/>
<path d="M106.47 62.8998C105.219 65.711 102.408 66.0154 102.374 62.3529C102.374 60.6167 102.783 58.8235 102.227 57.1825C101.399 54.7424 98.7641 53.5105 96.8663 51.7696C95.5903 50.5749 94.6166 49.0941 94.0253 47.4492C93.434 45.8043 93.2421 44.0425 93.4654 42.3089C93.6176 41.1911 94.0266 39.9972 95.0017 39.455C95.8626 38.9793 96.9376 39.084 97.9032 39.3265C103.792 40.8106 108.263 46.1426 109.642 52.0597C111.022 57.9769 110.746 65.906 107.873 71.2571" fill="#263238"/>
<path d="M94.8327 39.5215C94.0808 41.6581 92.8385 43.5886 91.2053 45.1581C89.5722 46.7276 87.5939 47.8924 85.4291 48.5589C84.1258 48.9489 82.7654 49.1534 81.4812 49.6148C80.1969 50.0762 78.9602 50.8563 78.3324 52.0644C78.0708 52.5686 77.6046 53.929 77.2574 54.3761C76.9102 54.8232 76.5725 54.3285 76.0873 54.0384C75.4927 53.6864 75.5736 52.8017 75.8114 52.1358C76.5772 50.0191 78.1041 48.2878 79.6452 46.6515C81.6286 44.5396 83.7215 42.4658 86.271 41.0864C88.8205 39.707 91.898 39.0696 94.6425 39.9876" fill="#263238"/>
<path d="M86.359 72.8551C86.2544 72.5316 87.2628 71.9038 88.6041 71.5042C89.9454 71.1047 91.1203 71.0286 91.2249 71.3377C91.3296 71.6469 90.3164 72.289 88.9751 72.6886C87.6338 73.0881 86.4589 73.1833 86.359 72.8551Z" fill="#263238"/>
<path d="M91.2578 62.2862C91.2959 62.2624 91.4956 62.5763 91.9475 62.9378C92.5299 63.4144 93.2466 63.6972 93.9976 63.7464C94.748 63.7784 95.4902 63.5792 96.1237 63.1756C96.5994 62.8665 96.8467 62.5763 96.88 62.6049C96.9133 62.6334 96.7135 62.9521 96.2236 63.3183C95.5795 63.7999 94.7864 64.039 93.9835 63.9938C93.1806 63.9486 92.4193 63.6218 91.8334 63.071C91.5767 62.8637 91.3784 62.5933 91.2578 62.2862Z" fill="#EB996E"/>
<path d="M78.7366 62.4527C78.7651 62.4242 78.9697 62.6383 79.374 62.8761C79.8938 63.1859 80.4912 63.3411 81.0961 63.3234C81.701 63.3057 82.2883 63.1159 82.7892 62.7762C83.1744 62.5193 83.3694 62.3005 83.4027 62.3005C83.436 62.3005 83.2743 62.5859 82.889 62.8999C82.379 63.3046 81.7515 63.5332 81.1006 63.5512C80.4497 63.5692 79.8105 63.3757 79.2788 62.9997C78.8793 62.7334 78.7128 62.467 78.7366 62.4527Z" fill="#EB996E"/>
<path d="M92.2891 64.0985C92.5272 64.137 92.7613 64.1975 92.9883 64.2793C94.1091 64.546 95.2894 64.3759 96.2893 63.8036C96.4879 63.6652 96.6961 63.5412 96.9124 63.4326C96.9362 63.4326 96.7602 63.6847 96.3844 63.9511C95.8848 64.2879 95.3147 64.5059 94.7177 64.5884C94.1208 64.6708 93.513 64.6155 92.9407 64.4267C92.6993 64.374 92.4751 64.2611 92.2891 64.0985Z" fill="#EB996E"/>
<path d="M79.1797 64.0036C79.7004 64.1143 80.2313 64.1701 80.7636 64.17C81.2883 64.0864 81.8031 63.9493 82.3 63.761C81.8808 64.1425 81.3465 64.3735 80.7814 64.4174C80.2164 64.4613 79.6528 64.3157 79.1797 64.0036Z" fill="#EB996E"/>
<path d="M98.5039 30.5032C98.5324 30.5365 98.1091 30.8647 97.6334 31.5544C97.0094 32.4526 96.6637 33.5146 96.6393 34.608C96.6696 35.703 96.9001 36.7831 97.3195 37.7949C97.5093 38.2157 97.6683 38.6496 97.7952 39.0934C97.5423 38.7072 97.3333 38.294 97.1721 37.8615C96.6923 36.8407 96.4315 35.7309 96.4062 34.6033C96.427 33.4619 96.812 32.3569 97.505 31.4497C97.712 31.179 97.9481 30.9318 98.209 30.7125C98.2942 30.6259 98.394 30.555 98.5039 30.5032Z" fill="#263238"/>
<path d="M83.5728 30.8219C83.6625 30.7973 83.7557 30.7876 83.8486 30.7933C84.1189 30.7917 84.3886 30.8205 84.6525 30.879C85.0748 30.9691 85.4744 31.1438 85.8273 31.3927C86.3015 31.7295 86.6497 32.2149 86.8167 32.7721C86.9268 33.1116 86.9465 33.4739 86.8739 33.8234C86.8013 34.1729 86.639 34.4974 86.4029 34.765C86.1384 35.0691 85.7861 35.2835 85.3945 35.3786C85.1843 35.4289 84.9659 35.4341 84.7536 35.3939C84.5413 35.3538 84.3398 35.2691 84.1626 35.1456C83.9738 35.0206 83.8121 34.8589 83.6871 34.6701C83.562 34.4814 83.4763 34.2694 83.4348 34.0468C83.4031 33.8087 83.4299 33.5665 83.5127 33.3411C83.5956 33.1157 83.7321 32.9139 83.9105 32.753C84.6192 32.0871 85.6085 31.9159 86.5456 31.8017C88.3595 31.6588 90.1761 32.0419 91.7777 32.9052C93.0702 33.6115 94.2138 34.5613 95.1454 35.7021C95.7743 36.4634 96.3182 37.2912 96.7673 38.1707C96.9243 38.4846 97.0385 38.7272 97.1051 38.8985C97.1477 38.9813 97.1796 39.0692 97.2002 39.1601C97.1474 39.0833 97.1012 39.0021 97.0622 38.9175C96.9766 38.7558 96.8482 38.5179 96.6817 38.2183C96.2043 37.3729 95.6451 36.5763 95.0122 35.84C94.085 34.7339 92.9549 33.8152 91.6826 33.1336C90.118 32.3035 88.3495 31.9356 86.5836 32.0729C85.6704 32.168 84.7143 32.3535 84.096 32.9385C83.9446 33.0721 83.8285 33.2409 83.7579 33.4301C83.6874 33.6193 83.6646 33.8229 83.6917 34.023C83.7271 34.215 83.8005 34.398 83.9075 34.5614C84.0145 34.7247 84.1529 34.8651 84.3148 34.9743C84.4665 35.0808 84.639 35.154 84.8209 35.1892C85.0029 35.2245 85.1902 35.221 85.3707 35.1789C85.7197 35.096 86.035 34.9084 86.2745 34.6414C86.4918 34.4005 86.6426 34.107 86.7118 33.79C86.7811 33.4731 86.7664 33.1435 86.6693 32.8339C86.5214 32.3084 86.2056 31.8457 85.7703 31.5163C85.4353 31.2687 85.0558 31.0879 84.6525 30.9836C84.2976 30.9002 83.9365 30.8461 83.5728 30.8219Z" fill="#263238"/>
<path d="M69.8879 48.8635C69.9393 48.7067 70.0255 48.5636 70.14 48.4449C70.3068 48.2721 70.5072 48.1352 70.7289 48.0428C70.9506 47.9504 71.1888 47.9043 71.429 47.9074C71.7803 47.903 72.1243 48.0077 72.4136 48.2071C72.7548 48.455 72.9974 48.8155 73.0985 49.225C73.2246 49.6981 73.1912 50.1997 73.0034 50.6519C72.788 51.1519 72.3874 51.549 71.8856 51.7602C71.3393 52.0014 70.7278 52.0516 70.1495 51.9029C69.5283 51.7305 68.9825 51.3555 68.5989 50.8374C68.1784 50.2876 67.9301 49.6255 67.8854 48.9348C67.8368 48.2141 67.9591 47.4922 68.2421 46.8277C68.5482 46.1194 68.9923 45.4791 69.5484 44.9442C70.1045 44.4093 70.7616 43.9905 71.4813 43.7122C72.2379 43.417 73.0485 43.2856 73.8596 43.3269C74.6813 43.417 75.4963 43.56 76.2997 43.755C77.0776 43.9579 77.8925 43.9742 78.6779 43.8025C79.4233 43.572 80.0751 43.1085 80.5377 42.4802C81.489 41.2768 82.0884 39.8261 83.1253 38.7749C84.0741 37.7658 85.2336 36.9781 86.5214 36.468C87.6416 36.0215 88.8405 35.8063 90.046 35.8354C91.7908 35.886 93.4857 36.4285 94.9357 37.4003C95.4665 37.7424 95.9468 38.157 96.3627 38.6322C96.3627 38.6322 96.3246 38.6084 96.2628 38.5561L95.9917 38.3135C95.6393 38.0084 95.2658 37.7286 94.8739 37.4764C93.4246 36.5535 91.7495 36.0468 90.0317 36.0114C88.8523 35.9969 87.6818 36.2168 86.588 36.6582C85.3236 37.1604 84.1864 37.937 83.2585 38.9319C82.7665 39.4713 82.3328 40.0612 81.9647 40.6918C81.5856 41.3676 81.1597 42.0161 80.6899 42.6324C80.2018 43.3094 79.5076 43.81 78.7112 44.0594C77.8885 44.2403 77.0348 44.2256 76.2188 44.0166C75.4262 43.8239 74.6224 43.6809 73.812 43.5885C73.0301 43.5471 72.2483 43.6736 71.5194 43.9595C70.8285 44.2241 70.197 44.623 69.6614 45.1333C69.1258 45.6436 68.6968 46.2551 68.3991 46.9323C68.1279 47.5634 68.0074 48.249 68.0471 48.9348C68.0893 49.581 68.3191 50.2009 68.7083 50.7185C69.0614 51.2001 69.5626 51.5526 70.1352 51.7221C70.6707 51.8661 71.2391 51.8242 71.7477 51.6032C72.2128 51.4136 72.5874 51.0527 72.7941 50.5948C72.9687 50.1797 73.0054 49.7196 72.8988 49.282C72.8089 48.903 72.5904 48.5668 72.2804 48.3307C72.0116 48.1411 71.6913 48.0382 71.3624 48.0358C71.1326 48.0271 70.9034 48.0647 70.6885 48.1464C70.4736 48.2281 70.2773 48.3523 70.1114 48.5115C70.027 48.6222 69.9523 48.74 69.8879 48.8635Z" fill="#263238"/>
<path d="M105.861 42.5278C105.808 42.3543 105.775 42.1757 105.761 41.995C105.713 41.5955 105.652 41.1103 105.585 40.5348C105.518 39.9592 105.433 39.1697 105.347 38.3706C105.316 37.96 105.189 37.5624 104.976 37.21C104.843 37.0415 104.678 36.9009 104.49 36.7964C104.302 36.692 104.096 36.6256 103.882 36.6011C103.017 36.4857 102.136 36.5703 101.309 36.8485C100.624 37.0717 99.9807 37.4077 99.4062 37.8426C98.8939 38.2707 98.4255 38.7487 98.0078 39.2696C98.0763 39.0985 98.1692 38.9383 98.2837 38.7939C98.5701 38.3891 98.911 38.0258 99.2968 37.7142C99.8633 37.2485 100.507 36.8862 101.199 36.644C102.062 36.3391 102.985 36.2446 103.892 36.3681C104.137 36.3966 104.375 36.4744 104.59 36.597C104.805 36.7197 104.993 36.8845 105.143 37.0816C105.374 37.4675 105.511 37.9026 105.542 38.3515C105.609 39.1554 105.671 39.8879 105.723 40.53C105.775 41.1722 105.799 41.5955 105.823 41.995C105.857 42.1704 105.87 42.3493 105.861 42.5278Z" fill="#263238"/>
<path d="M120.669 54.0861C120.669 54.0861 120.641 54.205 120.532 54.3953C120.371 54.661 120.174 54.9028 119.946 55.1135C119.573 55.4721 119.13 55.7498 118.645 55.9292C118.159 56.1086 117.642 56.1857 117.125 56.1558C116.609 56.1258 116.104 55.9895 115.642 55.7553C115.181 55.5211 114.772 55.1941 114.443 54.7948C114.249 54.5603 114.088 54.2992 113.968 54.0195C113.877 53.8197 113.849 53.7008 113.863 53.696C114.088 54.0383 114.332 54.3671 114.595 54.6806C115.256 55.4114 116.178 55.8525 117.162 55.9086C118.146 55.9646 119.112 55.6312 119.851 54.9803C120.144 54.7011 120.417 54.4023 120.669 54.0861Z" fill="#263238"/>
<path d="M90.1734 82.6772C89.8075 82.8416 89.4198 82.9521 89.0223 83.0055C88.0816 83.1792 87.1237 83.2415 86.1684 83.191C85.2012 83.1492 84.2429 82.9894 83.3145 82.7153C82.9262 82.6249 82.5541 82.4757 82.2109 82.2729C83.5077 82.6157 84.8318 82.8449 86.1684 82.9579C87.509 82.9805 88.849 82.8866 90.1734 82.6772Z" fill="white"/>
<path d="M87.5336 69.226C87.0668 69.3381 86.5851 69.375 86.1066 69.3354C85.6267 69.3668 85.1448 69.3202 84.6797 69.1974C85.6399 69.0423 86.6195 69.052 87.5764 69.226H87.5336Z" fill="white"/>
<path d="M89.7071 72.7743C89.3274 73.0071 88.9082 73.1683 88.4704 73.2499C88.0564 73.4107 87.616 73.493 87.1719 73.4925C87.964 73.0945 88.8241 72.8492 89.7071 72.7695V72.7743Z" fill="white"/>
<path d="M95.1368 62.5383C94.9472 62.6834 94.7267 62.7829 94.4924 62.8291C94.2582 62.8753 94.0164 62.8669 93.7859 62.8047C93.5477 62.7842 93.3172 62.7098 93.1119 62.587C92.9067 62.4642 92.7322 62.2963 92.6016 62.0959C92.9937 62.2952 93.4048 62.4545 93.8287 62.5716C94.2647 62.6057 94.7031 62.5946 95.1368 62.5383Z" fill="white"/>
<path d="M82.3701 62.2861C82.4034 62.3384 82.0181 62.5953 81.4663 62.5953C80.9146 62.5953 80.515 62.3432 80.5578 62.2909C80.6006 62.2385 80.9764 62.3527 81.4616 62.3479C81.9467 62.3432 82.3368 62.2052 82.3701 62.2861Z" fill="white"/>
<path d="M82.8276 54.4049C82.8276 54.481 81.9619 54.3193 80.925 54.4906C79.8881 54.6618 79.127 55.0613 79.0938 54.9947C79.6221 54.6037 80.2369 54.346 80.8861 54.2433C81.5353 54.1406 82.1997 54.1961 82.8229 54.4049H82.8276Z" fill="white"/>
<path d="M97.6903 54.8996C97.6617 54.9709 96.6629 54.5523 95.3548 54.4239C94.0468 54.2955 92.9766 54.4715 92.9766 54.3954C93.7585 54.1646 94.5784 54.0908 95.389 54.1782C96.1996 54.2655 96.9849 54.5123 97.6998 54.9043L97.6903 54.8996Z" fill="white"/>
<path d="M94.0875 41.4099C94.0527 41.4912 94.008 41.5679 93.9543 41.6382C93.8544 41.7857 93.7212 42.0045 93.5167 42.2661C92.949 43.017 92.312 43.7129 91.6141 44.3447C90.5887 45.2896 89.4495 46.1029 88.2227 46.7658C87.4988 47.1573 86.7468 47.4944 85.9729 47.7741C85.1492 48.0686 84.307 48.3085 83.4519 48.4924C82.5951 48.6512 81.7509 48.8722 80.9262 49.1535C80.1679 49.4194 79.4787 49.8517 78.9094 50.4188C77.9893 51.4354 77.3902 52.7014 77.1876 54.0575C77.0419 54.9731 76.9671 55.8987 76.964 56.8258C76.964 57.135 76.964 57.3871 76.964 57.5868C76.9784 57.675 76.9784 57.765 76.964 57.8532C76.9453 57.7656 76.9358 57.6764 76.9355 57.5868C76.9355 57.4156 76.9117 57.1588 76.9022 56.8306C76.8659 55.8926 76.9152 54.9532 77.0496 54.0242C77.2346 52.6229 77.838 51.31 78.781 50.257C79.3703 49.6623 80.0855 49.2072 80.8739 48.9252C81.7093 48.6382 82.5646 48.4125 83.4329 48.2498C86.442 47.6544 89.2352 46.2594 91.519 44.2115C92.2082 43.5951 92.8447 42.9221 93.4216 42.1995C93.8592 41.6953 94.0684 41.3956 94.0875 41.4099Z" fill="white"/>
<path d="M73.7964 71.6708C74.0454 71.0875 74.2057 70.4703 74.2721 69.8396C74.3532 68.1069 74.0137 66.3803 73.2827 64.8072C72.8737 63.7893 72.3647 62.6953 71.9462 61.4776C71.7326 60.839 71.5734 60.1834 71.4705 59.5179C71.3703 58.8072 71.3559 58.0869 71.4277 57.3727C71.593 55.8382 72.1338 54.3679 73.0021 53.0919C73.462 52.4172 74.0126 51.809 74.6383 51.2844C75.2927 50.7629 75.9969 50.3072 76.7407 49.924C78.2343 49.1344 79.7706 48.5494 81.1453 47.7836C82.4962 47.113 83.6196 46.0592 84.3749 44.7537C85.0409 43.4789 85.3262 42.0995 85.8019 40.9009C86.0359 40.3156 86.3566 39.7689 86.7532 39.2789C87.1403 38.8368 87.6025 38.4664 88.1183 38.1849C89.0041 37.6916 90.0213 37.4855 91.0293 37.5951C91.7832 37.683 92.5071 37.9416 93.146 38.3514C93.5496 38.6114 93.9106 38.9323 94.2162 39.3027C94.3264 39.4273 94.4236 39.5627 94.5063 39.707C94.1055 39.2104 93.623 38.7857 93.0794 38.4513C92.4481 38.0645 91.7375 37.8254 91.0008 37.7521C90.2317 37.684 89.4575 37.7999 88.742 38.0902C88.0266 38.3805 87.3905 38.8369 86.8864 39.4216C86.4911 39.8968 86.1703 40.4292 85.9351 41.0008C85.4309 42.1757 85.1788 43.5598 84.5081 44.8774C83.7283 46.2262 82.5709 47.3174 81.1786 48.0167C79.7849 48.792 78.2485 49.3818 76.7693 50.1618C76.0418 50.5391 75.3522 50.985 74.7097 51.4937C74.1008 52.0032 73.5647 52.5937 73.1163 53.2488C72.2641 54.4937 71.733 55.93 71.5704 57.4298C71.4963 58.1245 71.5059 58.8255 71.5989 59.5179C71.7036 60.1644 71.8628 60.8008 72.0746 61.4205C72.4789 62.643 72.9783 63.7417 73.3779 64.7501C74.215 66.7906 74.4719 68.6219 74.3006 69.8538C74.246 70.3259 74.1276 70.7883 73.9486 71.2285C73.9022 71.3437 73.8498 71.4564 73.7917 71.5662C73.7952 71.601 73.7968 71.6359 73.7964 71.6708Z" fill="#455A64"/>
<path d="M105.488 55.2562C105.264 55.1936 105.048 55.1092 104.841 55.0042C104.266 54.7422 103.712 54.4353 103.185 54.0861C101.432 52.9289 99.978 51.3724 98.9427 49.5442C97.9075 47.7161 97.3207 45.6684 97.2303 43.5695C97.2032 42.9346 97.2238 42.2986 97.2921 41.6669C97.31 41.435 97.3515 41.2055 97.4158 40.9819C97.4258 41.2137 97.4179 41.4459 97.392 41.6764C97.3521 42.3004 97.3521 42.9264 97.392 43.5505C97.526 45.6124 98.1244 47.6173 99.1425 49.4154C100.161 51.2135 101.572 52.7582 103.271 53.9339C103.783 54.2852 104.317 54.603 104.869 54.8852C105.085 54.9913 105.292 55.1154 105.488 55.2562Z" fill="#455A64"/>
<path d="M105.912 46.5138C105.912 46.5138 105.793 46.5471 105.579 46.5613C105.276 46.5786 104.972 46.5674 104.671 46.528C103.67 46.4038 102.707 46.066 101.848 45.5375C100.989 45.009 100.253 44.3022 99.6907 43.4648C99.5213 43.212 99.3748 42.9446 99.2531 42.6657C99.2001 42.568 99.1647 42.4618 99.1484 42.3518C99.1865 42.3518 99.3863 42.7609 99.8334 43.3649C101.015 44.9459 102.755 46.016 104.699 46.3568C105.437 46.4852 105.907 46.471 105.912 46.5138Z" fill="#455A64"/>
<path d="M106 63.0376C106.138 62.971 111.589 61.0922 111.679 66.743C111.77 72.3937 106.076 71.314 106.062 71.1523C106.048 70.9905 106 63.0376 106 63.0376Z" fill="#FFBE9D"/>
<path d="M107.755 68.9832C107.779 68.9832 107.855 69.0498 108.021 69.1259C108.258 69.2204 108.522 69.2204 108.758 69.1259C109.353 68.8976 109.838 67.9415 109.852 66.9236C109.861 66.4315 109.759 65.9437 109.553 65.4967C109.498 65.3208 109.401 65.1612 109.27 65.0318C109.139 64.9024 108.978 64.8072 108.801 64.7547C108.688 64.7214 108.566 64.7317 108.459 64.7836C108.353 64.8355 108.269 64.9253 108.226 65.0353C108.154 65.1923 108.188 65.3064 108.159 65.3159C108.131 65.3254 108.035 65.2208 108.078 64.9877C108.108 64.8471 108.185 64.7211 108.297 64.631C108.45 64.5105 108.645 64.4558 108.839 64.4788C109.072 64.5222 109.289 64.6239 109.471 64.7745C109.654 64.9252 109.795 65.1196 109.881 65.3397C110.128 65.8255 110.252 66.3644 110.242 66.9094C110.242 68.0462 109.657 69.1211 108.849 69.3685C108.698 69.415 108.538 69.4272 108.382 69.4042C108.225 69.3811 108.076 69.3234 107.945 69.2353C107.769 69.1211 107.736 68.9927 107.755 68.9832Z" fill="#EB996E"/>
<path d="M113.479 71.2585C116.871 67.8666 116.871 62.3673 113.479 58.9754C110.087 55.5836 104.588 55.5836 101.196 58.9754C97.8043 62.3673 97.8043 67.8666 101.196 71.2585C104.588 74.6503 110.087 74.6503 113.479 71.2585Z" fill="#455A64"/>
<path d="M110.438 73.8018L101.586 70.1202L101.5 61.1399L106 56.626L116.94 60.5691L115.831 67.9941C115.831 67.9941 112.621 73.4308 110.438 73.8018Z" fill="#FF725E"/>
<path d="M113.638 62.3196C113.638 62.3196 114.114 51.0847 112.15 46.6754C110.185 42.2661 105.938 40.4919 105.938 40.4919C107.607 42.9516 108.544 45.8349 108.639 48.8063L108.996 60.1887L106.47 64.5314L110.242 66.9429L113.638 62.3196Z" fill="#FF725E"/>
<path d="M108.664 49.5195L113.135 50.5041L113.373 52.3639L108.731 51.7598L108.664 49.5195Z" fill="#E0E0E0"/>
<path d="M113.373 55.5746L116.945 60.5737L110.804 61.1398L106 56.6258L109.339 54.5425L113.373 55.5746Z" fill="#FF725E"/>
<path d="M113.559 55.3796C113.559 55.3796 113.559 55.4415 113.588 55.5604C113.616 55.6793 113.612 55.86 113.621 56.0931C113.645 56.5688 113.65 57.2299 113.621 58.0718C113.573 60.3057 113.349 62.5323 112.951 64.7309L112.927 64.8594L112.798 64.8213L110.801 64.2458L107.947 63.4229L107.852 63.3944V63.2945C108.066 60.8734 108.251 58.771 108.389 57.2204C108.46 56.4974 108.522 55.9028 108.57 55.4557C108.581 55.241 108.611 55.0277 108.66 54.8184C108.678 55.032 108.678 55.2468 108.66 55.4605C108.632 55.9361 108.594 56.5069 108.551 57.2347C108.437 58.7805 108.28 60.8924 108.099 63.3183L108.013 63.1898L110.843 64.008L112.841 64.5882L112.689 64.6834C113.088 62.4925 113.339 60.2773 113.44 58.0528C113.479 57.2204 113.498 56.545 113.502 56.0836C113.505 55.8479 113.525 55.6127 113.559 55.3796Z" fill="#263238"/>
<path d="M108.018 55.9363C107.921 56.08 107.811 56.2152 107.69 56.3406L106.739 57.4298C105.878 58.3811 104.694 59.6892 103.305 61.235L103.333 61.1589C103.333 62.6477 103.333 64.2982 103.333 66.0391V68.8598L103.262 68.7503L109.16 71.6043L110.872 72.4509C111.083 72.5439 111.285 72.6554 111.476 72.7839C111.257 72.7166 111.044 72.6306 110.839 72.527L109.093 71.7422L103.157 68.9454L103.086 68.9121V68.836C103.086 67.937 103.086 66.9904 103.086 66.0153C103.086 64.2745 103.086 62.624 103.086 61.1352V61.0924L103.114 61.0591L106.615 57.3347L107.628 56.2883C107.746 56.1575 107.876 56.0396 108.018 55.9363Z" fill="#263238"/>
<path d="M109 68.8456L96.305 76.4037L95.6154 77.707L91.9195 79.0531L90.25 78.0352L90.5306 76.261L93.7223 74.425L95.1682 74.601L107.093 66.6624L109 68.8456Z" fill="#FF725E"/>
<path d="M103.336 72.2988C103.997 71.7259 104.711 71.2164 105.467 70.7767C106.18 70.268 106.939 69.8285 107.736 69.4639C107.073 70.0349 106.36 70.5444 105.605 70.986C104.89 71.4922 104.131 71.9317 103.336 72.2988Z" fill="#263238"/>
<path d="M106.227 67.095C106.227 67.0665 106.403 66.9476 106.755 66.919C106.987 66.9028 107.22 66.9335 107.439 67.0096C107.659 67.0856 107.862 67.2052 108.034 67.3614C108.204 67.5197 108.34 67.7102 108.436 67.9216C108.531 68.1331 108.584 68.3614 108.591 68.5933C108.591 68.9453 108.486 69.1451 108.462 69.1356C108.438 69.126 108.462 68.9215 108.415 68.6076C108.356 68.2015 108.163 67.8266 107.868 67.5421C107.559 67.2721 107.169 67.1145 106.759 67.095C106.441 67.076 106.241 67.1331 106.227 67.095Z" fill="#263238"/>
<path d="M102.922 69.5304C103.456 69.058 104.027 68.6286 104.629 68.2461C105.185 67.7972 105.777 67.3947 106.399 67.0427C105.403 68.0789 104.224 68.9223 102.922 69.5304Z" fill="#263238"/>
<path d="M111.701 66.3341C111.816 66.2128 111.969 66.1341 112.135 66.1107C112.301 66.0874 112.47 66.1209 112.614 66.2056C112.784 66.3029 112.909 66.4637 112.961 66.6528C113.001 66.8155 112.983 66.987 112.911 67.1381C112.839 67.2893 112.716 67.4109 112.565 67.4825C112.414 67.554 112.242 67.5711 112.079 67.5309C111.917 67.4906 111.773 67.3955 111.672 67.2616C111.571 67.1268 111.519 66.9614 111.524 66.7928C111.529 66.6242 111.591 66.4624 111.701 66.3341Z" fill="white"/>
<path d="M109.562 65.6156C109.679 65.4964 109.832 65.4193 109.997 65.396C110.162 65.3728 110.331 65.4048 110.476 65.4871C110.56 65.5347 110.635 65.5988 110.695 65.6756C110.754 65.7523 110.798 65.8403 110.823 65.9342C110.855 66.0566 110.854 66.1852 110.821 66.3072C110.788 66.4292 110.723 66.5405 110.634 66.6301C110.545 66.7197 110.434 66.7845 110.312 66.8182C110.19 66.8518 110.062 66.8532 109.939 66.8221C109.817 66.791 109.704 66.7285 109.613 66.6408C109.522 66.5531 109.456 66.4432 109.42 66.3219C109.385 66.2006 109.381 66.0721 109.41 65.9491C109.439 65.8261 109.5 65.7128 109.586 65.6203L109.562 65.6156Z" fill="white"/>
<path d="M111.252 72.6033C111.218 72.57 111.727 72.0277 112.46 71.0622C114.341 68.5305 115.55 65.5638 115.975 62.4386C116.136 61.2447 116.141 60.4932 116.184 60.4932C116.218 60.667 116.229 60.8444 116.217 61.0211C116.223 61.4978 116.199 61.9743 116.146 62.4481C115.817 65.6286 114.586 68.6487 112.598 71.1525C112.303 71.5313 111.985 71.8919 111.646 72.2323C111.531 72.372 111.398 72.4967 111.252 72.6033Z" fill="white"/>
<path d="M112.881 52.6924C112.932 52.8314 112.961 52.9774 112.966 53.1252C113.009 53.4011 113.052 53.8054 113.095 54.3096C113.204 55.6162 113.247 56.9275 113.223 58.2385C113.203 59.55 113.118 60.8597 112.966 62.1626C112.905 62.6383 112.848 63.0664 112.795 63.3422C112.784 63.4892 112.751 63.6336 112.695 63.7703C112.695 63.2282 112.726 62.6866 112.79 62.1483C112.867 61.1447 112.952 59.7701 112.976 58.2337C113 56.6974 112.976 55.3227 112.924 54.3191C112.875 53.7783 112.86 53.235 112.881 52.6924Z" fill="white"/>
<path d="M110.325 44.2734C110.891 45.0505 111.342 45.9042 111.667 46.8087C112.064 47.6818 112.333 48.6078 112.466 49.5579C112.395 49.5579 112.028 48.3545 111.438 46.899C110.849 45.4435 110.259 44.3115 110.325 44.2734Z" fill="white"/>
<path d="M96.2578 76.1848C96.3904 76.073 96.5357 75.9772 96.6907 75.8994L97.8988 75.1859C98.9215 74.5866 100.329 73.759 101.856 72.7744C103.383 71.7898 104.739 70.8718 105.714 70.2106L106.874 69.4163C107.01 69.3091 107.159 69.2196 107.317 69.1499C107.203 69.2812 107.074 69.3979 106.931 69.4971C106.675 69.7064 106.294 70.0013 105.818 70.3533C104.867 71.0668 103.521 72.0086 101.989 72.9837C100.458 73.9588 99.0309 74.7769 97.9844 75.3381C97.4612 75.6188 97.0331 75.8376 96.7335 75.985C96.5836 76.0707 96.4239 76.1378 96.2578 76.1848Z" fill="white"/>
<defs>
<linearGradient id="paint0_linear_7003_5447" x1="135.488" y1="95.8481" x2="135.488" y2="157.644" gradientUnits="userSpaceOnUse">
<stop stop-color="#59BDEC"/>
<stop offset="1" stop-color="#DFB424"/>
</linearGradient>
<linearGradient id="paint1_linear_7003_5447" x1="59.6094" y1="106.213" x2="59.6094" y2="162.401" gradientUnits="userSpaceOnUse">
<stop stop-color="#57BEF0"/>
<stop offset="1" stop-color="#E1B422"/>
</linearGradient>
<linearGradient id="paint2_linear_7003_5447" x1="96.5033" y1="85.2319" x2="96.5033" y2="162.454" gradientUnits="userSpaceOnUse">
<stop stop-color="#4CBEFE"/>
<stop offset="1" stop-color="#F6B101"/>
</linearGradient>
</defs>
</svg>
