<svg width="320" height="312" viewBox="0 0 320 312" fill="none" xmlns="http://www.w3.org/2000/svg">
<path d="M188.374 9.45194C212.114 12.8464 237.314 10.2907 258.337 21.7623C279.914 33.5365 298.063 52.4124 308.06 74.7633C317.816 96.5739 311.92 121.444 313.572 145.255C315.217 168.971 324.002 192.583 317.829 215.55C311.453 239.27 297.488 261.334 278.235 276.725C259.325 291.843 234.205 295.247 210.685 301.203C187.996 306.949 165.241 314.473 142.059 311.209C118.792 307.932 97.5853 296.471 78.6737 282.612C60.1008 269.001 46.4893 250.582 33.4822 231.641C19.742 211.633 0.491253 192.277 0.00818854 168.059C-0.475541 143.808 20.5943 125.078 30.9182 103.099C40.6469 82.3857 44.4471 58.9492 59.4112 41.5883C75.0536 23.4406 94.9608 7.54955 118.286 1.7371C141.375 -4.01646 164.813 6.083 188.374 9.45194Z" fill="#C4E8BC"/>
<path d="M108.355 196.36C128.512 195.879 141.59 210.382 141.59 210.382C139.614 216.324 138.348 220.772 138.348 220.772C127.323 218.803 114.786 218.009 104.465 215.471C95.1465 213.182 94.1738 201.289 95.2005 196.294C96.2273 191.299 101.515 190.133 106.719 188.507C112.655 186.647 123.973 186.502 132.087 186.472C140.64 186.472 151.881 187.202 157.702 188.441C157.702 188.441 170.054 187.923 179.233 188.069C184.59 187.216 181.363 195.463 172.856 202.492C168.654 206.007 163.68 208.598 158.291 210.079C152.902 211.561 147.233 211.896 141.69 211.06H141.621" fill="#263238"/>
<path d="M205.306 196.36C185.149 195.879 167.262 210.382 167.262 210.382C169.238 216.324 170.504 220.772 170.504 220.772C181.528 218.803 198.875 218.009 209.197 215.471C218.523 213.182 219.488 201.289 218.461 196.294C217.434 191.299 212.146 190.133 206.943 188.507C201.006 186.647 189.688 186.502 181.575 186.472C173.021 186.472 161.781 187.202 155.96 188.441C155.96 188.441 143.608 187.923 134.436 188.069C129.071 187.216 132.298 195.463 140.805 202.492C145.003 206.002 149.97 208.59 155.352 210.071C160.734 211.553 166.396 211.89 171.932 211.06H172.002" fill="#263238"/>
<path d="M141.675 144.706C139.93 150.325 138.091 155.916 136.155 161.477C135.19 164.262 134.21 167.04 133.191 169.811C132.172 172.582 131.184 175.331 130.057 178.131L129.918 178.481L129.732 178.904C129.609 179.181 129.47 179.443 129.331 179.706C129.051 180.194 128.742 180.666 128.404 181.12C127.788 181.935 127.087 182.69 126.312 183.373C124.953 184.564 123.465 185.617 121.873 186.516C118.989 188.125 115.949 189.471 112.795 190.534C106.774 192.584 100.556 194.071 94.228 194.974L93.0469 190.249C95.857 189.302 98.752 188.295 101.539 187.202C104.326 186.108 107.09 185.014 109.722 183.745C112.291 182.579 114.752 181.21 117.079 179.655C119.256 178.196 120.993 176.366 121.171 175.28L126.328 158.56C128.073 152.967 129.864 147.375 131.732 141.789L141.675 144.706Z" fill="#CE7A63"/>
<path d="M95.0746 190.483L85.6484 188.222L90.1415 196.783C90.1415 196.783 96.5336 197.045 98.6335 193.684L95.0746 190.483Z" fill="#CE7A63"/>
<path d="M161.803 83.9155C158.422 81.604 152.864 79.6645 150.625 83.1863C148.386 86.7082 146.456 94.1238 142.727 95.9175C138.999 97.7112 134.56 104.908 136.999 111.23C139.439 117.552 129.796 115.846 129.279 125.449C128.762 135.052 143.237 139.908 152.377 135.168C161.518 130.429 167.949 105.696 167.37 95.9175C166.791 86.1394 161.803 83.9155 161.803 83.9155Z" fill="#263238"/>
<path d="M157.555 83.4927C157.555 83.4927 162.511 76.3833 171.636 80.051C182.29 84.3312 178.947 88.9468 180.9 98.703C182.853 108.459 194.757 110.202 194.217 123.779C193.298 146.901 171.636 142.613 165.653 136.474C159.67 130.334 166.294 107.796 166.294 107.796L157.555 83.4927Z" fill="#263238"/>
<path d="M78 191.584L82.1765 198.562L90.1281 196.892L85.6274 188.332L78 191.584Z" fill="#CE7A63"/>
<path d="M135.128 131.479C131.028 132.47 128.18 148.41 128.18 148.41L139.482 155.702C139.482 155.702 150.29 139.616 147.202 135.358C143.859 130.888 141.118 130.042 135.128 131.479Z" fill="#E8F4E5"/>
<path opacity="0.2" d="M134.755 137.276L143.541 139.201L144.382 147.309C142.89 150.164 141.246 152.945 139.457 155.643L132.602 151.269C132.895 147.542 133.644 139.799 134.755 137.276Z" fill="black"/>
<path d="M135.125 131.479C135.125 131.479 130.415 133.039 139.88 188.222H180.31C179.63 172.684 179.607 163.103 187.474 131.209C181.813 130.104 176.075 129.39 170.305 129.073C163.503 128.759 157.953 128.555 151.954 129.073C144.064 129.751 135.125 131.479 135.125 131.479Z" fill="#E8F4E5"/>
<path opacity="0.2" d="M177.962 146.018L183.18 150.211C182.061 155.789 181.32 160.419 180.864 164.568C179.861 160.427 177.383 149.183 177.962 146.018Z" fill="black"/>
<path d="M168.493 109.553C167.335 115.131 166.177 125.347 170.307 129.073C170.307 129.073 166.447 137.429 156.218 137.429C145.989 137.429 151.957 129.073 151.957 129.073C158.542 127.614 158.372 122.97 157.222 118.638L168.493 109.553Z" fill="#CE7A63"/>
<path d="M170.312 129.073C163.51 128.759 157.96 128.555 151.953 129.073C149.112 129.313 146.14 129.692 143.5 130.079C141.755 133.061 134.83 146.47 151.822 146.47C169.64 146.47 177.067 131.727 177.993 129.7C175.608 129.437 172.967 129.197 170.312 129.073Z" fill="#CE7A63"/>
<path opacity="0.2" d="M163.904 113.257L157.234 118.631C157.514 119.64 157.702 120.669 157.798 121.708C160.315 121.365 163.773 118.755 164.036 116.269C164.185 115.265 164.141 114.245 163.904 113.257Z" fill="black"/>
<path d="M176.277 99.0094C174.424 108.175 173.829 112.091 168.248 116.225C159.848 122.452 148.338 118.288 147.265 108.78C146.3 100.227 149.511 86.6792 159.617 84.1709C161.833 83.6147 164.163 83.602 166.386 84.134C168.608 84.6659 170.651 85.725 172.319 87.2109C173.987 88.6968 175.226 90.5604 175.919 92.625C176.611 94.6897 176.735 96.8872 176.277 99.0094Z" fill="#CE7A63"/>
<path d="M158.983 83.1865C155.501 85.0313 157.809 88.2906 164.093 90.6021C170.378 92.9135 170.756 93.3364 169.729 98.1343C168.702 102.932 177.858 107.373 177.974 102.415C178.09 97.4562 179.958 88.05 175.071 85.4323C170.185 82.8146 162.665 81.2688 158.983 83.1865Z" fill="#263238"/>
<path d="M158.459 85.4978C155.371 86.4385 148.354 93.6353 148.871 91.2655C149.388 88.8957 150.701 85.6145 154.406 84.4041C156.157 83.7483 157.997 83.3286 159.872 83.1572L158.459 85.4978Z" fill="#263238"/>
<path d="M178.114 106.709C177.205 108.29 175.692 109.484 173.883 110.049C171.483 110.778 170.271 108.816 170.927 106.673C171.521 104.74 173.474 102.035 175.891 102.239C178.307 102.444 179.203 104.77 178.114 106.709Z" fill="#CE7A63"/>
<path d="M139.441 219.686L143.139 209.718C143.278 209.353 144.876 210.309 145.27 210.381C145.27 210.381 151.068 209.652 153.376 210.265C155.684 210.877 155.584 212.277 155.159 213.765C154.179 217.221 152.596 217.877 151.577 222.456C150.952 225.249 150.442 227.823 147.208 230.477C144.12 233.007 141.155 232.854 142.375 229.748C145.308 222.34 143.919 223.441 142.066 220.685C141.726 220.218 139.24 220.211 139.441 219.686Z" fill="#CE7A63"/>
<path d="M168.497 219.686L164.791 209.718C164.652 209.353 163.054 210.309 162.66 210.381C162.66 210.381 156.863 209.652 154.554 210.265C152.246 210.877 152.346 212.277 152.771 213.765C153.751 217.221 155.334 217.877 156.353 222.456C156.978 225.249 157.488 227.823 160.723 230.477C163.811 233.007 166.775 232.854 165.555 229.748C162.622 222.34 164.011 223.441 165.864 220.685C166.204 220.218 168.69 220.211 168.497 219.686Z" fill="#CE7A63"/>
<path d="M140.708 222.062L144.436 208.843L139.526 206.925L132.602 221.122L140.708 222.062Z" fill="#E8F4E5"/>
<path d="M167.508 222.34L161.648 208.974L166.18 207.217L175.359 220.218L167.508 222.34Z" fill="#E8F4E5"/>
<path d="M154.114 99.7603C154.114 99.7603 152.323 102.83 150.617 104.208C151.544 105.265 153.389 105.061 153.389 105.061L154.114 99.7603Z" fill="#BA4D3C"/>
<path d="M155.827 108.977H155.889C157.64 109.115 159.381 108.614 160.753 107.577C160.781 107.55 160.797 107.513 160.797 107.475C160.797 107.437 160.781 107.4 160.753 107.373C160.724 107.346 160.685 107.331 160.645 107.331C160.604 107.331 160.565 107.346 160.537 107.373C159.223 108.348 157.571 108.824 155.905 108.707C155.872 108.705 155.839 108.714 155.811 108.731C155.784 108.749 155.763 108.774 155.751 108.803C155.74 108.833 155.739 108.865 155.749 108.895C155.758 108.925 155.778 108.951 155.804 108.97L155.827 108.977Z" fill="#263238"/>
<path d="M164.648 96.1509C164.691 96.1739 164.74 96.1859 164.79 96.1859C164.84 96.1859 164.889 96.1739 164.933 96.1509C164.967 96.1308 164.996 96.1047 165.019 96.0741C165.041 96.0434 165.058 96.0088 165.066 95.9722C165.075 95.9356 165.076 95.8978 165.069 95.8608C165.062 95.8239 165.047 95.7887 165.026 95.7571C164.66 95.1709 164.15 94.677 163.538 94.3177C162.926 93.9583 162.232 93.7442 161.513 93.6936C161.47 93.687 161.426 93.6894 161.384 93.7004C161.342 93.7115 161.303 93.7311 161.27 93.7578C161.237 93.7845 161.21 93.8177 161.192 93.8551C161.174 93.8924 161.164 93.9331 161.164 93.9743C161.164 94.0155 161.174 94.0562 161.192 94.0936C161.21 94.131 161.237 94.1642 161.27 94.1909C161.303 94.2176 161.342 94.2371 161.384 94.2482C161.426 94.2593 161.47 94.2616 161.513 94.255C162.131 94.3101 162.726 94.5027 163.249 94.8171C163.772 95.1314 164.209 95.5585 164.524 96.0634C164.558 96.1011 164.6 96.131 164.648 96.1509Z" fill="#263238"/>
<path d="M157.914 98.7103C157.851 98.6984 157.785 98.7061 157.727 98.7324C157.668 98.7586 157.62 98.802 157.59 98.856C157.559 98.91 157.548 98.9718 157.558 99.0323C157.568 99.0927 157.598 99.1486 157.644 99.1915C158.144 99.6816 158.761 100.052 159.443 100.271C160.125 100.491 160.853 100.553 161.566 100.453C161.644 100.436 161.712 100.39 161.755 100.326C161.799 100.262 161.814 100.185 161.798 100.11C161.781 100.037 161.734 99.9728 161.668 99.9318C161.601 99.8909 161.52 99.8764 161.442 99.8915C160.828 99.975 160.201 99.9186 159.614 99.7271C159.028 99.5356 158.498 99.2145 158.069 98.7905C158.027 98.7502 157.973 98.7223 157.914 98.7103Z" fill="#263238"/>
<path d="M147.296 97.6747C147.248 97.6638 147.198 97.6648 147.151 97.6776C147.103 97.6904 147.06 97.7145 147.026 97.7476C146.969 97.8022 146.938 97.8755 146.938 97.9518C146.938 98.0281 146.969 98.1014 147.026 98.156C147.526 98.6457 148.143 99.0152 148.825 99.2334C149.508 99.4516 150.235 99.5122 150.948 99.4101C151.025 99.3944 151.093 99.3503 151.136 99.2874C151.18 99.2246 151.195 99.1482 151.179 99.0747C151.161 99.0008 151.112 98.9366 151.045 98.8958C150.977 98.8549 150.895 98.8406 150.816 98.856C150.202 98.9403 149.576 98.8837 148.99 98.6908C148.404 98.4978 147.876 98.1743 147.45 97.7476C147.407 97.7106 147.353 97.6854 147.296 97.6747Z" fill="#263238"/>
<path d="M148.172 93.3582C148.219 93.3845 148.272 93.3984 148.326 93.3984C148.381 93.3984 148.434 93.3845 148.481 93.3582C148.957 92.98 149.523 92.7161 150.131 92.5892C150.738 92.4622 151.369 92.4759 151.97 92.629C152.046 92.6526 152.129 92.6476 152.201 92.6149C152.272 92.5823 152.328 92.5246 152.356 92.454C152.37 92.4186 152.375 92.381 152.373 92.3434C152.371 92.3059 152.361 92.2691 152.344 92.2352C152.327 92.2013 152.303 92.1709 152.273 92.1459C152.243 92.1209 152.209 92.1017 152.171 92.0894C151.477 91.9049 150.746 91.8801 150.039 92.0171C149.333 92.1541 148.671 92.4489 148.11 92.8769C148.079 92.8998 148.052 92.9283 148.032 92.9609C148.012 92.9935 148 93.0295 147.995 93.0668C147.99 93.1041 147.992 93.1419 148.003 93.1782C148.014 93.2144 148.032 93.2483 148.056 93.2779C148.086 93.3146 148.126 93.3425 148.172 93.3582Z" fill="#263238"/>
<path d="M180.907 185.984L181.232 189.396C181.371 189.666 181.039 189.936 180.575 189.936H139.675C139.312 189.936 139.011 189.768 138.988 189.549L138.625 186.129C138.625 185.896 138.918 185.692 139.312 185.692H180.228C180.359 185.678 180.491 185.698 180.611 185.749C180.73 185.8 180.833 185.881 180.907 185.984Z" fill="#E8F4E5"/>
<path opacity="0.3" d="M180.907 185.984L181.232 189.396C181.371 189.666 181.039 189.936 180.575 189.936H139.675C139.312 189.936 139.011 189.768 138.988 189.549L138.625 186.129C138.625 185.896 138.918 185.692 139.312 185.692H180.228C180.359 185.678 180.491 185.698 180.61 185.749C180.73 185.8 180.833 185.881 180.907 185.984Z" fill="black"/>
<path d="M175.419 190.308H176.516C176.732 190.308 176.902 190.198 176.886 190.067L176.369 185.626C176.369 185.495 176.168 185.393 175.944 185.393H174.848C174.632 185.393 174.462 185.495 174.478 185.626L174.995 190.067C175.01 190.198 175.195 190.308 175.419 190.308Z" fill="#263238"/>
<path d="M142.771 190.308H143.867C144.083 190.308 144.245 190.198 144.23 190.067L143.72 185.626C143.72 185.495 143.512 185.393 143.296 185.393H142.2C141.983 185.393 141.814 185.495 141.829 185.626L142.346 190.067C142.362 190.198 142.547 190.308 142.771 190.308Z" fill="#263238"/>
<path d="M159.084 190.308H160.18C160.404 190.308 160.566 190.198 160.55 190.067L160.041 185.626C160.041 185.495 159.832 185.393 159.616 185.393H158.52C158.296 185.393 158.134 185.495 158.149 185.626L158.659 190.067C158.674 190.198 158.867 190.308 159.084 190.308Z" fill="#263238"/>
<path d="M191.065 142.518L194.377 159.377C194.941 162.177 195.512 164.969 196.114 167.733C196.407 169.111 196.747 170.474 197.064 171.823L197.573 173.814L198.067 175.52C198.381 176.284 198.869 176.973 199.495 177.54C200.369 178.382 201.322 179.146 202.344 179.822C204.663 181.336 207.105 182.674 209.647 183.825C212.257 185.05 214.982 186.166 217.738 187.231C220.494 188.295 223.342 189.294 226.106 190.235L224.925 194.96C218.681 194.064 212.543 192.599 206.598 190.585C203.491 189.546 200.491 188.243 197.635 186.691C196.075 185.828 194.606 184.824 193.25 183.694C191.585 182.339 190.265 180.647 189.39 178.743L189.212 178.327L189.097 178.014L188.888 177.46L188.479 176.337L187.761 174.149C187.308 172.691 186.889 171.257 186.503 169.847C185.705 166.999 184.982 164.15 184.333 161.302C182.99 155.599 181.84 149.919 180.852 144.152L191.065 142.518Z" fill="#CE7A63"/>
<path d="M187.478 131.209C191.531 132.369 196.549 144.677 196.549 144.677L180.831 155.293C180.831 155.293 174.948 145.158 176.654 140.214C178.422 135.066 182.853 129.882 187.478 131.209Z" fill="#E8F4E5"/>
<path d="M224.106 190.483L233.547 188.222L229.047 196.783C229.047 196.783 222.662 197.045 220.555 193.684L224.106 190.483Z" fill="#CE7A63"/>
<path d="M241.175 191.584L236.998 198.562L229.047 196.892L233.548 188.332L241.175 191.584Z" fill="#CE7A63"/>
</svg>
